<?xml version="1.0" ?>
<svg id="Apple" viewBox="0 0 512 512" xmlns="http://www.w3.org/2000/svg">
    <defs>
        <style>.cls-1{fill:#fffd00;}.cls-2{fill:#fff;}</style>
    </defs>
    <title/>
    <rect class="cls-1" height="464.08" rx="120.54" ry="120.54" width="464.08" x="23.96" y="23.47"/>
    <path class="cls-2"
          d="M418.48,335.87c-1.93-.24-25.39-2.18-49.56-33.37s-14.75-36.75-13.54-39.65,16.51-7.31,26.35-11.12c15-5.81,14.27-16.2,11.85-21.88s-12.33-10.77-25.87-5c-12.86,5.51-17.9,1.21-17.9,1.21S353,178.46,351.26,169C336.22,85.19,256,92.15,256,92.15s-80.22-7-95.26,76.88c-1.7,9.43,1.45,57.07,1.45,57.07s-5,4.3-17.9-1.21c-13.54-5.81-23.45-.72-25.87,5s-3.14,16.07,11.85,21.88c9.84,3.81,25.15,8.22,26.35,11.12s10.64,8.46-13.54,39.65-47.63,33.13-49.56,33.37-11.61.48-11.61,7,3.19,17.36,42.32,24.18c6.17,1.07,5.56,5.56,5.56,5.56s0,15.48,8.22,16.93,22.73-3.63,33.61-2.42,17.16-.24,38.44,16.68,45.94,16,45.94,16,24.66,1,45.94-16,27.56-15.47,38.44-16.68S365.77,391,374,389.55s8.22-16.93,8.22-16.93-.61-4.49,5.56-5.56c39.13-6.82,42.32-17.65,42.32-24.18S420.42,336.11,418.48,335.87Z"/>
    <path d="M251.54,100.71c2.34,0,3.71.11,3.71.11h0l.75.06.73-.06s1.38-.11,3.73-.11c7,0,25.32,1,42.81,10.5,21.15,11.45,34.41,31.43,39.43,59.36,1,5.78-.3,35.62-1.57,55l-.29,4.36,3.32,2.83c1,.87,4.86,3.69,11.9,3.69a38.78,38.78,0,0,0,15.08-3.51,20.62,20.62,0,0,1,8.08-1.86c4.25,0,6.13,1.81,6.35,2.23a6.66,6.66,0,0,1,.27,4.94c-.85,2-3.42,3.93-7.25,5.41-2.6,1-5.73,2.1-8.75,3.16C356,251.62,350,253.89,347.57,259l-.1.14c-1.48,2.22-4.94,7.4-3.08,16.69,1.68,8.39,7.45,18.86,17.65,32,23.28,30,46.4,35.65,55.26,36.66l.1,0,1,.1c1.14.1,2,.22,2.63.34a8.43,8.43,0,0,1-2.72,3c-3.79,2.92-12.41,7.11-32,10.52-10,1.75-13,9.25-12.78,14.42-.07,3.05-.86,6.74-1.71,8.16-.32,0-.72,0-1.21,0a78.34,78.34,0,0,1-10.78-1.23A103.7,103.7,0,0,0,344,378.24a42,42,0,0,0-4.61.24c-1.16.13-2.33.23-3.45.33-11.24,1-20.06,2.76-39.45,18.19-16.84,13.4-36.09,14.08-39.77,14.08h-1.5c-3.68,0-22.93-.68-39.77-14.08-19.39-15.43-28.21-17.22-39.45-18.19-1.12-.1-2.28-.2-3.45-.33a42,42,0,0,0-4.61-.24,103.7,103.7,0,0,0-15.77,1.63,78.34,78.34,0,0,1-10.78,1.23c-.49,0-.89,0-1.21,0-.85-1.42-1.65-5.12-1.72-8.16.28-5.16-2.77-12.67-12.77-14.42-19.6-3.41-28.22-7.6-32-10.52A8.43,8.43,0,0,1,91,345c.64-.12,1.49-.24,2.63-.34l1-.1.11,0c8.86-1,32-6.62,55.26-36.66,10.2-13.15,16-23.62,17.65-32,1.86-9.29-1.6-14.47-3.08-16.69l-.1-.14c-2.43-5.1-8.4-7.37-22.27-12.22-3-1.06-6.15-2.16-8.75-3.16-3.83-1.48-6.4-3.41-7.25-5.41a6.62,6.62,0,0,1,.26-4.91c.23-.45,2.11-2.26,6.36-2.26a20.62,20.62,0,0,1,8.08,1.86,38.78,38.78,0,0,0,15.08,3.51c7,0,10.89-2.82,11.9-3.69l3.32-2.83-.29-4.36c-1.27-19.33-2.6-49.17-1.57-55,5-27.94,18.28-47.91,39.43-59.36,17.49-9.48,35.77-10.5,42.81-10.5M260.46,92c-2.84,0-4.46.15-4.46.15s-1.63-.15-4.46-.15c-17.06,0-77.9,5.12-90.8,77-1.7,9.43,1.45,57.07,1.45,57.07s-1.87,1.6-6.25,1.6a30,30,0,0,1-11.65-2.81,29.19,29.19,0,0,0-11.51-2.57c-7.49,0-12.7,3.63-14.36,7.53-2.42,5.68-3.14,16.07,11.85,21.88,9.84,3.81,25.15,8.22,26.35,11.12s10.64,8.46-13.54,39.65-47.63,33.13-49.56,33.37-11.61.48-11.61,7,3.19,17.36,42.32,24.18c6.17,1.07,5.56,5.56,5.56,5.56s0,15.48,8.22,16.93a20.19,20.19,0,0,0,3.41.26c7.39,0,17.72-2.87,26.55-2.87a33.38,33.38,0,0,1,3.65.19c10.88,1.21,17.16-.24,38.44,16.68,19.09,15.19,40.92,16,45.19,16h1.5c4.27,0,26.09-.78,45.19-16,21.28-16.92,27.56-15.47,38.44-16.68a33.38,33.38,0,0,1,3.65-.19c8.83,0,19.16,2.87,26.55,2.87a20.11,20.11,0,0,0,3.41-.26c8.22-1.45,8.22-16.93,8.22-16.93s-.61-4.49,5.56-5.56c39.13-6.82,42.32-17.65,42.32-24.18s-9.67-6.77-11.61-7-25.39-2.18-49.56-33.37-14.75-36.75-13.54-39.65,16.51-7.31,26.35-11.12c15-5.81,14.27-16.2,11.85-21.88-1.66-3.9-6.87-7.53-14.36-7.53a29.19,29.19,0,0,0-11.51,2.57,30,30,0,0,1-11.65,2.81c-4.38,0-6.25-1.6-6.25-1.6S353,178.46,351.26,169c-12.9-71.9-73.74-77-90.8-77Z"/>
</svg>