<svg width="570" height="352" viewBox="0 0 570 352" fill="none" xmlns="http://www.w3.org/2000/svg">
    <rect x="0.5" y="0.5" width="569" height="351" rx="19.5" fill="#B0CAD9"/>
    <rect x="0.5" y="0.5" width="569" height="351" rx="19.5" stroke="#BDBDBD"/>
    <g filter="url(#filter0_d_15_229)">
        <path d="M189.849 148.93L191.859 143.57H212.629L214.639 148.93H189.849ZM202.11 126.686L194.204 145.312L193.668 146.518L186.7 163H180.335L202.11 113.755L223.885 163H217.52L210.686 146.92L210.15 145.58L202.11 126.686ZM234.615 132.18V163H229.255V132.18H234.615ZM243.928 138.076C243.214 137.54 242.566 137.16 241.985 136.937C241.405 136.669 240.668 136.535 239.774 136.535C238.434 136.535 237.385 136.87 236.625 137.54C235.866 138.21 235.33 139.126 235.017 140.287C234.749 141.448 234.615 142.766 234.615 144.24H232.203C232.203 141.783 232.628 139.617 233.476 137.741C234.37 135.82 235.509 134.302 236.893 133.185C238.278 132.068 239.685 131.51 241.114 131.51C242.231 131.51 243.258 131.666 244.196 131.979C245.179 132.247 246.072 132.805 246.876 133.654L243.928 138.076ZM247.531 132.18H262.941V137.205H247.531V132.18ZM252.556 121.46H257.916V163H252.556V121.46ZM268.317 119.45C268.317 118.423 268.674 117.552 269.389 116.837C270.148 116.122 271.019 115.765 272.002 115.765C273.029 115.765 273.9 116.122 274.615 116.837C275.33 117.552 275.687 118.423 275.687 119.45C275.687 120.433 275.33 121.304 274.615 122.063C273.9 122.778 273.029 123.135 272.002 123.135C271.019 123.135 270.148 122.778 269.389 122.063C268.674 121.304 268.317 120.433 268.317 119.45ZM269.322 132.18H274.682V163H269.322V132.18ZM288.133 147.59C288.133 149.734 288.58 151.632 289.473 153.285C290.411 154.938 291.662 156.255 293.225 157.238C294.833 158.176 296.642 158.645 298.652 158.645C300.305 158.645 301.846 158.399 303.275 157.908C304.749 157.372 306.022 156.68 307.094 155.831C308.166 154.938 308.926 154 309.372 153.017V159.717C308.3 160.968 306.759 161.95 304.749 162.665C302.784 163.335 300.752 163.67 298.652 163.67C295.66 163.67 292.957 162.978 290.545 161.593C288.133 160.208 286.213 158.31 284.783 155.898C283.399 153.441 282.706 150.672 282.706 147.59C282.706 144.463 283.399 141.694 284.783 139.282C286.213 136.87 288.133 134.972 290.545 133.587C292.957 132.202 295.66 131.51 298.652 131.51C300.752 131.51 302.784 131.867 304.749 132.582C306.759 133.252 308.3 134.212 309.372 135.463V142.163C308.926 141.136 308.166 140.198 307.094 139.349C306.022 138.5 304.749 137.83 303.275 137.339C301.846 136.803 300.305 136.535 298.652 136.535C296.642 136.535 294.833 137.004 293.225 137.942C291.662 138.88 290.411 140.198 289.473 141.895C288.58 143.548 288.133 145.446 288.133 147.59ZM317.716 110.74H323.076V163H317.716V110.74ZM345.084 163.67C342.225 163.67 339.679 163 337.446 161.66C335.257 160.275 333.537 158.377 332.287 155.965C331.081 153.553 330.478 150.761 330.478 147.59C330.478 144.374 331.103 141.56 332.354 139.148C333.649 136.736 335.436 134.86 337.714 133.52C340.036 132.18 342.716 131.51 345.754 131.51C348.791 131.51 351.382 132.158 353.526 133.453C355.714 134.704 357.389 136.513 358.551 138.88C359.712 141.247 360.293 144.061 360.293 147.322C360.293 147.635 360.27 147.97 360.226 148.327C360.226 148.64 360.226 148.841 360.226 148.93H333.895V144.374H356.005L353.861 147.456C353.995 147.233 354.129 146.898 354.263 146.451C354.397 145.96 354.464 145.558 354.464 145.245C354.464 143.414 354.084 141.828 353.325 140.488C352.61 139.148 351.605 138.098 350.31 137.339C349.014 136.58 347.496 136.2 345.754 136.2C343.699 136.2 341.935 136.647 340.461 137.54C339.031 138.389 337.915 139.639 337.111 141.292C336.351 142.9 335.949 144.888 335.905 147.255C335.905 149.667 336.284 151.722 337.044 153.419C337.803 155.116 338.92 156.412 340.394 157.305C341.868 158.198 343.654 158.645 345.754 158.645C347.853 158.645 349.707 158.198 351.315 157.305C352.923 156.367 354.285 154.96 355.402 153.084L359.757 155.831C358.149 158.422 356.116 160.387 353.66 161.727C351.248 163.022 348.389 163.67 345.084 163.67ZM368.912 153.553C369.538 154.491 370.252 155.362 371.056 156.166C371.86 156.97 372.776 157.618 373.803 158.109C374.875 158.556 376.037 158.779 377.287 158.779C378.806 158.779 379.99 158.444 380.838 157.774C381.732 157.059 382.178 156.099 382.178 154.893C382.178 153.821 381.821 152.928 381.106 152.213C380.436 151.454 379.565 150.828 378.493 150.337C377.421 149.801 376.282 149.31 375.076 148.863C373.736 148.327 372.374 147.702 370.989 146.987C369.649 146.228 368.51 145.267 367.572 144.106C366.679 142.9 366.232 141.404 366.232 139.617C366.232 137.786 366.701 136.267 367.639 135.061C368.622 133.855 369.873 132.962 371.391 132.381C372.955 131.8 374.563 131.51 376.215 131.51C377.868 131.51 379.409 131.778 380.838 132.314C382.312 132.85 383.608 133.565 384.724 134.458C385.841 135.351 386.712 136.379 387.337 137.54L383.049 140.287C382.201 139.126 381.129 138.165 379.833 137.406C378.583 136.647 377.153 136.267 375.545 136.267C374.429 136.267 373.468 136.513 372.664 137.004C371.86 137.495 371.458 138.255 371.458 139.282C371.458 140.086 371.771 140.801 372.396 141.426C373.022 142.051 373.826 142.61 374.808 143.101C375.791 143.592 376.818 144.061 377.89 144.508C379.677 145.223 381.307 146.004 382.781 146.853C384.255 147.657 385.417 148.64 386.265 149.801C387.159 150.962 387.605 152.459 387.605 154.29C387.605 156.97 386.623 159.203 384.657 160.99C382.737 162.777 380.191 163.67 377.019 163.67C374.965 163.67 373.111 163.313 371.458 162.598C369.806 161.839 368.399 160.878 367.237 159.717C366.121 158.556 365.272 157.372 364.691 156.166L368.912 153.553Z"
              fill="white"/>
    </g>
    <g filter="url(#filter1_d_15_229)">
        <path d="M150.386 218C147.782 218 145.88 217.4 144.68 216.2C143.48 215 142.88 213.098 142.88 210.494V202.304C142.88 199.676 143.474 197.768 144.662 196.58C145.862 195.392 147.758 194.798 150.35 194.798H154.706C156.914 194.798 158.558 195.26 159.638 196.184C160.718 197.096 161.312 198.566 161.42 200.594C161.456 200.918 161.39 201.164 161.222 201.332C161.066 201.5 160.832 201.584 160.52 201.584C159.92 201.584 159.59 201.266 159.53 200.63C159.446 199.142 159.038 198.116 158.306 197.552C157.574 196.976 156.374 196.688 154.706 196.688H150.35C148.97 196.688 147.872 196.868 147.056 197.228C146.24 197.576 145.652 198.164 145.292 198.992C144.944 199.808 144.77 200.912 144.77 202.304V210.494C144.77 211.886 144.95 212.99 145.31 213.806C145.67 214.622 146.258 215.21 147.074 215.57C147.89 215.93 148.994 216.11 150.386 216.11H154.706C156.374 216.11 157.574 215.828 158.306 215.264C159.038 214.688 159.446 213.656 159.53 212.168C159.59 211.532 159.92 211.214 160.52 211.214C160.832 211.214 161.066 211.304 161.222 211.484C161.39 211.652 161.456 211.892 161.42 212.204C161.312 214.232 160.718 215.708 159.638 216.632C158.558 217.544 156.914 218 154.706 218H150.386ZM171.878 218C169.634 218 167.99 217.484 166.946 216.452C165.902 215.408 165.38 213.77 165.38 211.538V207.47C165.38 205.202 165.902 203.552 166.946 202.52C167.99 201.476 169.634 200.966 171.878 200.99H174.83C177.074 200.99 178.712 201.512 179.744 202.556C180.788 203.588 181.31 205.226 181.31 207.47V211.502C181.31 213.746 180.788 215.39 179.744 216.434C178.712 217.478 177.074 218 174.83 218H171.878ZM167.27 211.538C167.27 213.23 167.606 214.418 168.278 215.102C168.962 215.774 170.162 216.11 171.878 216.11H174.83C176.546 216.11 177.74 215.774 178.412 215.102C179.084 214.418 179.42 213.218 179.42 211.502V207.47C179.42 205.754 179.084 204.56 178.412 203.888C177.74 203.216 176.546 202.88 174.83 202.88H171.878C170.726 202.868 169.814 203.006 169.142 203.294C168.47 203.582 167.99 204.062 167.702 204.734C167.414 205.406 167.27 206.318 167.27 207.47V211.538ZM188.511 218C187.875 218 187.557 217.682 187.557 217.046V201.926C187.557 201.302 187.875 200.99 188.511 200.99C189.135 200.99 189.447 201.302 189.447 201.926V203.654C190.587 201.878 192.651 200.99 195.639 200.99H196.647C198.891 200.99 200.529 201.512 201.561 202.556C202.605 203.588 203.127 205.226 203.127 207.47V217.046C203.127 217.682 202.815 218 202.191 218C201.555 218 201.237 217.682 201.237 217.046V207.47C201.237 205.754 200.895 204.56 200.211 203.888C199.539 203.216 198.351 202.88 196.647 202.88H195.639C193.779 202.88 192.315 203.174 191.247 203.762C190.179 204.35 189.579 205.268 189.447 206.516V217.046C189.447 217.682 189.135 218 188.511 218ZM216.478 218C214.27 218 212.656 217.49 211.636 216.47C210.616 215.45 210.106 213.842 210.106 211.646V202.88H207.964C207.328 202.88 207.01 202.562 207.01 201.926C207.01 201.302 207.328 200.99 207.964 200.99H210.106V197.12C210.106 196.484 210.418 196.166 211.042 196.166C211.678 196.166 211.996 196.484 211.996 197.12V200.99H216.514C217.138 200.99 217.45 201.302 217.45 201.926C217.45 202.562 217.138 202.88 216.514 202.88H211.996V211.646C211.996 213.326 212.32 214.49 212.968 215.138C213.628 215.786 214.798 216.11 216.478 216.11C216.826 216.11 217.072 216.188 217.216 216.344C217.372 216.5 217.45 216.734 217.45 217.046C217.45 217.682 217.126 218 216.478 218ZM222.395 210.224V211.538C222.395 213.23 222.731 214.418 223.403 215.102C224.087 215.774 225.287 216.11 227.003 216.11H229.955C231.467 216.11 232.565 215.918 233.249 215.534C233.945 215.138 234.359 214.46 234.491 213.5C234.539 213.2 234.635 212.972 234.779 212.816C234.935 212.66 235.169 212.582 235.481 212.582C235.793 212.582 236.027 212.672 236.183 212.852C236.351 213.02 236.417 213.26 236.381 213.572C236.225 215.084 235.619 216.2 234.563 216.92C233.507 217.64 231.971 218 229.955 218H227.003C224.759 218 223.115 217.484 222.071 216.452C221.027 215.408 220.505 213.77 220.505 211.538V207.47C220.505 205.202 221.027 203.552 222.071 202.52C223.115 201.476 224.759 200.966 227.003 200.99H229.955C232.199 200.99 233.837 201.512 234.869 202.556C235.913 203.588 236.435 205.226 236.435 207.47V209.27C236.435 209.906 236.123 210.224 235.499 210.224H222.395ZM227.003 202.88C225.287 202.856 224.087 203.186 223.403 203.87C222.731 204.542 222.395 205.742 222.395 207.47V208.334H234.545V207.47C234.545 205.754 234.209 204.56 233.537 203.888C232.865 203.216 231.671 202.88 229.955 202.88H227.003ZM243.636 218C243 218 242.682 217.682 242.682 217.046V201.926C242.682 201.302 243 200.99 243.636 200.99C244.26 200.99 244.572 201.302 244.572 201.926V203.654C245.712 201.878 247.776 200.99 250.764 200.99H251.772C254.016 200.99 255.654 201.512 256.686 202.556C257.73 203.588 258.252 205.226 258.252 207.47V217.046C258.252 217.682 257.94 218 257.316 218C256.68 218 256.362 217.682 256.362 217.046V207.47C256.362 205.754 256.02 204.56 255.336 203.888C254.664 203.216 253.476 202.88 251.772 202.88H250.764C248.904 202.88 247.44 203.174 246.372 203.762C245.304 204.35 244.704 205.268 244.572 206.516V217.046C244.572 217.682 244.26 218 243.636 218ZM271.603 218C269.395 218 267.781 217.49 266.761 216.47C265.741 215.45 265.231 213.842 265.231 211.646V202.88H263.089C262.453 202.88 262.135 202.562 262.135 201.926C262.135 201.302 262.453 200.99 263.089 200.99H265.231V197.12C265.231 196.484 265.543 196.166 266.167 196.166C266.803 196.166 267.121 196.484 267.121 197.12V200.99H271.639C272.263 200.99 272.575 201.302 272.575 201.926C272.575 202.562 272.263 202.88 271.639 202.88H267.121V211.646C267.121 213.326 267.445 214.49 268.093 215.138C268.753 215.786 269.923 216.11 271.603 216.11C271.951 216.11 272.197 216.188 272.341 216.344C272.497 216.5 272.575 216.734 272.575 217.046C272.575 217.682 272.251 218 271.603 218ZM293.613 218C291.009 218 289.107 217.4 287.907 216.2C286.707 215 286.107 213.098 286.107 210.494V202.304C286.107 199.676 286.701 197.768 287.889 196.58C289.089 195.392 290.985 194.798 293.577 194.798H297.933C300.141 194.798 301.785 195.26 302.865 196.184C303.945 197.096 304.539 198.566 304.647 200.594C304.683 200.918 304.617 201.164 304.449 201.332C304.293 201.5 304.059 201.584 303.747 201.584C303.147 201.584 302.817 201.266 302.757 200.63C302.673 199.142 302.265 198.116 301.533 197.552C300.801 196.976 299.601 196.688 297.933 196.688H293.577C292.197 196.688 291.099 196.868 290.283 197.228C289.467 197.576 288.879 198.164 288.519 198.992C288.171 199.808 287.997 200.912 287.997 202.304V210.494C287.997 211.886 288.177 212.99 288.537 213.806C288.897 214.622 289.485 215.21 290.301 215.57C291.117 215.93 292.221 216.11 293.613 216.11H297.933C299.601 216.11 300.801 215.828 301.533 215.264C302.265 214.688 302.673 213.656 302.757 212.168C302.817 211.532 303.147 211.214 303.747 211.214C304.059 211.214 304.293 211.304 304.449 211.484C304.617 211.652 304.683 211.892 304.647 212.204C304.539 214.232 303.945 215.708 302.865 216.632C301.785 217.544 300.141 218 297.933 218H293.613ZM311.488 218C310.852 218 310.534 217.682 310.534 217.046V201.926C310.534 201.302 310.852 200.99 311.488 200.99C312.112 200.99 312.424 201.302 312.424 201.926V204.698C313.048 203.498 313.948 202.58 315.124 201.944C316.312 201.308 317.716 200.99 319.336 200.99C319.972 200.99 320.29 201.302 320.29 201.926C320.29 202.562 319.972 202.88 319.336 202.88C317.2 202.88 315.544 203.366 314.368 204.338C313.192 205.298 312.544 206.672 312.424 208.46V217.046C312.424 217.682 312.112 218 311.488 218ZM324.805 210.224V211.538C324.805 213.23 325.141 214.418 325.813 215.102C326.497 215.774 327.697 216.11 329.413 216.11H332.365C333.877 216.11 334.975 215.918 335.659 215.534C336.355 215.138 336.769 214.46 336.901 213.5C336.949 213.2 337.045 212.972 337.189 212.816C337.345 212.66 337.579 212.582 337.891 212.582C338.203 212.582 338.437 212.672 338.593 212.852C338.761 213.02 338.827 213.26 338.791 213.572C338.635 215.084 338.029 216.2 336.973 216.92C335.917 217.64 334.381 218 332.365 218H329.413C327.169 218 325.525 217.484 324.481 216.452C323.437 215.408 322.915 213.77 322.915 211.538V207.47C322.915 205.202 323.437 203.552 324.481 202.52C325.525 201.476 327.169 200.966 329.413 200.99H332.365C334.609 200.99 336.247 201.512 337.279 202.556C338.323 203.588 338.845 205.226 338.845 207.47V209.27C338.845 209.906 338.533 210.224 337.909 210.224H324.805ZM329.413 202.88C327.697 202.856 326.497 203.186 325.813 203.87C325.141 204.542 324.805 205.742 324.805 207.47V208.334H336.955V207.47C336.955 205.754 336.619 204.56 335.947 203.888C335.275 203.216 334.081 202.88 332.365 202.88H329.413ZM350.151 218C348.279 218 346.905 217.568 346.029 216.704C345.165 215.828 344.733 214.454 344.733 212.582C344.733 210.71 345.171 209.336 346.047 208.46C346.923 207.584 348.291 207.146 350.151 207.146H358.341C358.317 205.562 357.957 204.458 357.261 203.834C356.577 203.198 355.407 202.88 353.751 202.88H351.663C350.139 202.88 349.023 203.042 348.315 203.366C347.607 203.69 347.169 204.242 347.001 205.022C346.917 205.322 346.803 205.544 346.659 205.688C346.527 205.82 346.311 205.886 346.011 205.886C345.699 205.886 345.453 205.802 345.273 205.634C345.105 205.454 345.045 205.214 345.093 204.914C345.249 203.546 345.867 202.55 346.947 201.926C348.039 201.302 349.611 200.99 351.663 200.99H353.751C355.995 200.99 357.633 201.512 358.665 202.556C359.709 203.588 360.231 205.226 360.231 207.47V217.046C360.231 217.682 359.919 218 359.295 218C358.659 218 358.341 217.682 358.341 217.046V215.264C357.189 217.088 355.131 218 352.167 218H350.151ZM350.151 216.11H352.167C353.331 216.11 354.351 215.984 355.227 215.732C356.115 215.468 356.829 215.048 357.369 214.472C357.909 213.896 358.233 213.128 358.341 212.168V209.036H350.151C348.819 209.036 347.895 209.294 347.379 209.81C346.875 210.314 346.623 211.238 346.623 212.582C346.623 213.914 346.875 214.838 347.379 215.354C347.895 215.858 348.819 216.11 350.151 216.11ZM373.591 218C371.383 218 369.769 217.49 368.749 216.47C367.729 215.45 367.219 213.842 367.219 211.646V202.88H365.077C364.441 202.88 364.123 202.562 364.123 201.926C364.123 201.302 364.441 200.99 365.077 200.99H367.219V197.12C367.219 196.484 367.531 196.166 368.155 196.166C368.791 196.166 369.109 196.484 369.109 197.12V200.99H373.627C374.251 200.99 374.563 201.302 374.563 201.926C374.563 202.562 374.251 202.88 373.627 202.88H369.109V211.646C369.109 213.326 369.433 214.49 370.081 215.138C370.741 215.786 371.911 216.11 373.591 216.11C373.939 216.11 374.185 216.188 374.329 216.344C374.485 216.5 374.563 216.734 374.563 217.046C374.563 217.682 374.239 218 373.591 218ZM380.086 197.714C379.258 197.714 378.844 197.288 378.844 196.436V195.626C378.844 194.798 379.258 194.384 380.086 194.384H380.896C381.7 194.384 382.102 194.798 382.102 195.626V196.436C382.102 197.288 381.7 197.714 380.896 197.714H380.086ZM380.5 218C379.864 218 379.546 217.682 379.546 217.046V201.926C379.546 201.302 379.864 200.99 380.5 200.99C381.124 200.99 381.436 201.302 381.436 201.926V217.046C381.436 217.682 381.124 218 380.5 218ZM394.171 218C391.927 218 390.283 217.484 389.239 216.452C388.195 215.408 387.673 213.77 387.673 211.538V207.47C387.673 205.202 388.195 203.552 389.239 202.52C390.283 201.476 391.927 200.966 394.171 200.99H397.123C399.367 200.99 401.005 201.512 402.037 202.556C403.081 203.588 403.603 205.226 403.603 207.47V211.502C403.603 213.746 403.081 215.39 402.037 216.434C401.005 217.478 399.367 218 397.123 218H394.171ZM389.563 211.538C389.563 213.23 389.899 214.418 390.571 215.102C391.255 215.774 392.455 216.11 394.171 216.11H397.123C398.839 216.11 400.033 215.774 400.705 215.102C401.377 214.418 401.713 213.218 401.713 211.502V207.47C401.713 205.754 401.377 204.56 400.705 203.888C400.033 203.216 398.839 202.88 397.123 202.88H394.171C393.019 202.868 392.107 203.006 391.435 203.294C390.763 203.582 390.283 204.062 389.995 204.734C389.707 205.406 389.563 206.318 389.563 207.47V211.538ZM410.804 218C410.168 218 409.85 217.682 409.85 217.046V201.926C409.85 201.302 410.168 200.99 410.804 200.99C411.428 200.99 411.74 201.302 411.74 201.926V203.654C412.88 201.878 414.944 200.99 417.932 200.99H418.94C421.184 200.99 422.822 201.512 423.854 202.556C424.898 203.588 425.42 205.226 425.42 207.47V217.046C425.42 217.682 425.108 218 424.484 218C423.848 218 423.53 217.682 423.53 217.046V207.47C423.53 205.754 423.188 204.56 422.504 203.888C421.832 203.216 420.644 202.88 418.94 202.88H417.932C416.072 202.88 414.608 203.174 413.54 203.762C412.472 204.35 411.872 205.268 411.74 206.516V217.046C411.74 217.682 411.428 218 410.804 218Z"
              fill="white"/>
    </g>
    <defs>
        <filter id="filter0_d_15_229" x="176.335" y="110.74" width="215.27" height="60.9301"
                filterUnits="userSpaceOnUse" color-interpolation-filters="sRGB">
            <feFlood flood-opacity="0" result="BackgroundImageFix"/>
            <feColorMatrix in="SourceAlpha" type="matrix" values="0 0 0 0 0 0 0 0 0 0 0 0 0 0 0 0 0 0 127 0"
                           result="hardAlpha"/>
            <feOffset dy="4"/>
            <feGaussianBlur stdDeviation="2"/>
            <feComposite in2="hardAlpha" operator="out"/>
            <feColorMatrix type="matrix" values="0 0 0 0 0 0 0 0 0 0 0 0 0 0 0 0 0 0 0.25 0"/>
            <feBlend mode="normal" in2="BackgroundImageFix" result="effect1_dropShadow_15_229"/>
            <feBlend mode="normal" in="SourceGraphic" in2="effect1_dropShadow_15_229" result="shape"/>
        </filter>
        <filter id="filter1_d_15_229" x="138.88" y="194.384" width="290.541" height="31.616"
                filterUnits="userSpaceOnUse" color-interpolation-filters="sRGB">
            <feFlood flood-opacity="0" result="BackgroundImageFix"/>
            <feColorMatrix in="SourceAlpha" type="matrix" values="0 0 0 0 0 0 0 0 0 0 0 0 0 0 0 0 0 0 127 0"
                           result="hardAlpha"/>
            <feOffset dy="4"/>
            <feGaussianBlur stdDeviation="2"/>
            <feComposite in2="hardAlpha" operator="out"/>
            <feColorMatrix type="matrix" values="0 0 0 0 0 0 0 0 0 0 0 0 0 0 0 0 0 0 0.25 0"/>
            <feBlend mode="normal" in2="BackgroundImageFix" result="effect1_dropShadow_15_229"/>
            <feBlend mode="normal" in="SourceGraphic" in2="effect1_dropShadow_15_229" result="shape"/>
        </filter>
    </defs>
</svg>
