<svg width="570" height="352" viewBox="0 0 570 352" fill="none" xmlns="http://www.w3.org/2000/svg">
    <rect x="0.5" y="0.5" width="569" height="351" rx="19.5" fill="#B0CAD9"/>
    <rect x="0.5" y="0.5" width="569" height="351" rx="19.5" stroke="#BDBDBD"/>
    <g filter="url(#filter0_d_15_221)">
        <path d="M165.849 135.21V132.061H173.42C174.983 132.061 176.39 131.793 177.641 131.257C178.892 130.721 179.874 129.939 180.589 128.912C181.304 127.885 181.661 126.634 181.661 125.16C181.661 122.927 180.879 121.207 179.316 120.001C177.753 118.75 175.787 118.125 173.42 118.125H167.055V154.975H174.09C176.1 154.975 177.864 154.618 179.383 153.903C180.946 153.188 182.152 152.161 183.001 150.821C183.894 149.481 184.341 147.851 184.341 145.93C184.341 144.501 184.095 143.228 183.604 142.111C183.113 140.994 182.398 140.056 181.46 139.297C180.567 138.538 179.495 137.979 178.244 137.622C176.993 137.22 175.609 137.019 174.09 137.019H165.849V133.87H174.09C176.368 133.87 178.467 134.116 180.388 134.607C182.309 135.098 183.984 135.858 185.413 136.885C186.887 137.868 188.026 139.141 188.83 140.704C189.634 142.267 190.036 144.121 190.036 146.265C190.036 149.347 189.321 151.915 187.892 153.97C186.507 155.98 184.609 157.499 182.197 158.526C179.83 159.509 177.127 160 174.09 160H161.36V113.1H173.42C176.234 113.1 178.668 113.524 180.723 114.373C182.822 115.222 184.453 116.517 185.614 118.259C186.775 119.956 187.356 122.145 187.356 124.825C187.356 127.014 186.775 128.89 185.614 130.453C184.453 132.016 182.822 133.2 180.723 134.004C178.668 134.808 176.234 135.21 173.42 135.21H165.849ZM198.385 107.74H203.745V160H198.385V107.74ZM211.147 144.59C211.147 141.463 211.839 138.694 213.224 136.282C214.653 133.87 216.574 131.972 218.986 130.587C221.398 129.202 224.1 128.51 227.093 128.51C230.13 128.51 232.832 129.202 235.2 130.587C237.612 131.972 239.51 133.87 240.895 136.282C242.324 138.694 243.039 141.463 243.039 144.59C243.039 147.672 242.324 150.441 240.895 152.898C239.51 155.31 237.612 157.208 235.2 158.593C232.832 159.978 230.13 160.67 227.093 160.67C224.1 160.67 221.398 159.978 218.986 158.593C216.574 157.208 214.653 155.31 213.224 152.898C211.839 150.441 211.147 147.672 211.147 144.59ZM216.574 144.59C216.574 146.734 217.02 148.632 217.914 150.285C218.852 151.938 220.102 153.255 221.666 154.238C223.274 155.176 225.083 155.645 227.093 155.645C229.103 155.645 230.889 155.176 232.453 154.238C234.061 153.255 235.311 151.938 236.205 150.285C237.143 148.632 237.612 146.734 237.612 144.59C237.612 142.446 237.143 140.548 236.205 138.895C235.311 137.198 234.061 135.88 232.453 134.942C230.889 134.004 229.103 133.535 227.093 133.535C225.083 133.535 223.274 134.004 221.666 134.942C220.102 135.88 218.852 137.198 217.914 138.895C217.02 140.548 216.574 142.446 216.574 144.59ZM248.325 162.01H253.752C253.752 163.484 254.154 164.846 254.958 166.097C255.762 167.392 256.901 168.42 258.375 169.179C259.849 169.983 261.591 170.385 263.601 170.385C265.164 170.385 266.705 170.005 268.224 169.246C269.743 168.487 270.993 167.281 271.976 165.628C273.003 164.02 273.517 161.921 273.517 159.33V129.18H278.877V159.33C278.877 162.859 278.14 165.807 276.666 168.174C275.192 170.586 273.294 172.395 270.971 173.601C268.648 174.807 266.192 175.41 263.601 175.41C260.608 175.41 257.951 174.852 255.628 173.735C253.35 172.618 251.563 171.033 250.268 168.978C248.973 166.968 248.325 164.645 248.325 162.01ZM247.722 144.59C247.722 141.24 248.414 138.381 249.799 136.014C251.184 133.602 253.037 131.748 255.36 130.453C257.683 129.158 260.229 128.51 262.998 128.51C265.589 128.51 267.844 129.158 269.765 130.453C271.686 131.748 273.182 133.602 274.254 136.014C275.371 138.381 275.929 141.24 275.929 144.59C275.929 147.895 275.371 150.754 274.254 153.166C273.182 155.578 271.686 157.432 269.765 158.727C267.844 160.022 265.589 160.67 262.998 160.67C260.229 160.67 257.683 160.022 255.36 158.727C253.037 157.432 251.184 155.578 249.799 153.166C248.414 150.754 247.722 147.895 247.722 144.59ZM253.149 144.59C253.149 146.957 253.618 148.967 254.556 150.62C255.539 152.273 256.834 153.523 258.442 154.372C260.05 155.221 261.792 155.645 263.668 155.645C265.231 155.645 266.772 155.221 268.291 154.372C269.81 153.523 271.06 152.273 272.043 150.62C273.026 148.967 273.517 146.957 273.517 144.59C273.517 142.803 273.227 141.24 272.646 139.9C272.065 138.515 271.284 137.354 270.301 136.416C269.363 135.478 268.313 134.763 267.152 134.272C265.991 133.781 264.829 133.535 263.668 133.535C261.792 133.535 260.05 133.959 258.442 134.808C256.834 135.657 255.539 136.907 254.556 138.56C253.618 140.213 253.149 142.223 253.149 144.59ZM286.536 162.01H291.963C291.963 163.484 292.365 164.846 293.169 166.097C293.973 167.392 295.112 168.42 296.586 169.179C298.06 169.983 299.802 170.385 301.812 170.385C303.375 170.385 304.916 170.005 306.435 169.246C307.954 168.487 309.204 167.281 310.187 165.628C311.214 164.02 311.728 161.921 311.728 159.33V129.18H317.088V159.33C317.088 162.859 316.351 165.807 314.877 168.174C313.403 170.586 311.505 172.395 309.182 173.601C306.859 174.807 304.403 175.41 301.812 175.41C298.819 175.41 296.162 174.852 293.839 173.735C291.561 172.618 289.774 171.033 288.479 168.978C287.184 166.968 286.536 164.645 286.536 162.01ZM285.933 144.59C285.933 141.24 286.625 138.381 288.01 136.014C289.395 133.602 291.248 131.748 293.571 130.453C295.894 129.158 298.44 128.51 301.209 128.51C303.8 128.51 306.055 129.158 307.976 130.453C309.897 131.748 311.393 133.602 312.465 136.014C313.582 138.381 314.14 141.24 314.14 144.59C314.14 147.895 313.582 150.754 312.465 153.166C311.393 155.578 309.897 157.432 307.976 158.727C306.055 160.022 303.8 160.67 301.209 160.67C298.44 160.67 295.894 160.022 293.571 158.727C291.248 157.432 289.395 155.578 288.01 153.166C286.625 150.754 285.933 147.895 285.933 144.59ZM291.36 144.59C291.36 146.957 291.829 148.967 292.767 150.62C293.75 152.273 295.045 153.523 296.653 154.372C298.261 155.221 300.003 155.645 301.879 155.645C303.442 155.645 304.983 155.221 306.502 154.372C308.021 153.523 309.271 152.273 310.254 150.62C311.237 148.967 311.728 146.957 311.728 144.59C311.728 142.803 311.438 141.24 310.857 139.9C310.276 138.515 309.495 137.354 308.512 136.416C307.574 135.478 306.524 134.763 305.363 134.272C304.202 133.781 303.04 133.535 301.879 133.535C300.003 133.535 298.261 133.959 296.653 134.808C295.045 135.657 293.75 136.907 292.767 138.56C291.829 140.213 291.36 142.223 291.36 144.59ZM326.824 116.45C326.824 115.423 327.181 114.552 327.896 113.837C328.655 113.122 329.526 112.765 330.509 112.765C331.536 112.765 332.407 113.122 333.122 113.837C333.836 114.552 334.194 115.423 334.194 116.45C334.194 117.433 333.836 118.304 333.122 119.063C332.407 119.778 331.536 120.135 330.509 120.135C329.526 120.135 328.655 119.778 327.896 119.063C327.181 118.304 326.824 117.433 326.824 116.45ZM327.829 129.18H333.189V160H327.829V129.18ZM363.993 141.24C363.993 138.694 363.435 136.773 362.318 135.478C361.201 134.183 359.571 133.535 357.427 133.535C355.864 133.535 354.479 133.87 353.273 134.54C352.112 135.165 351.196 136.059 350.526 137.22C349.901 138.381 349.588 139.721 349.588 141.24V160H344.228V129.18H349.588V134.004C350.615 132.128 351.888 130.743 353.407 129.85C354.97 128.957 356.757 128.51 358.767 128.51C362.028 128.51 364.596 129.604 366.472 131.793C368.393 133.937 369.353 136.863 369.353 140.57V160H363.993V141.24ZM377.352 162.01H382.779C382.779 163.484 383.181 164.846 383.985 166.097C384.789 167.392 385.928 168.42 387.402 169.179C388.876 169.983 390.618 170.385 392.628 170.385C394.192 170.385 395.733 170.005 397.251 169.246C398.77 168.487 400.021 167.281 401.003 165.628C402.031 164.02 402.544 161.921 402.544 159.33V129.18H407.904V159.33C407.904 162.859 407.167 165.807 405.693 168.174C404.219 170.586 402.321 172.395 399.998 173.601C397.676 174.807 395.219 175.41 392.628 175.41C389.636 175.41 386.978 174.852 384.655 173.735C382.377 172.618 380.591 171.033 379.295 168.978C378 166.968 377.352 164.645 377.352 162.01ZM376.749 144.59C376.749 141.24 377.442 138.381 378.826 136.014C380.211 133.602 382.065 131.748 384.387 130.453C386.71 129.158 389.256 128.51 392.025 128.51C394.616 128.51 396.872 129.158 398.792 130.453C400.713 131.748 402.209 133.602 403.281 136.014C404.398 138.381 404.956 141.24 404.956 144.59C404.956 147.895 404.398 150.754 403.281 153.166C402.209 155.578 400.713 157.432 398.792 158.727C396.872 160.022 394.616 160.67 392.025 160.67C389.256 160.67 386.71 160.022 384.387 158.727C382.065 157.432 380.211 155.578 378.826 153.166C377.442 150.754 376.749 147.895 376.749 144.59ZM382.176 144.59C382.176 146.957 382.645 148.967 383.583 150.62C384.566 152.273 385.861 153.523 387.469 154.372C389.077 155.221 390.819 155.645 392.695 155.645C394.259 155.645 395.8 155.221 397.318 154.372C398.837 153.523 400.088 152.273 401.07 150.62C402.053 148.967 402.544 146.957 402.544 144.59C402.544 142.803 402.254 141.24 401.673 139.9C401.093 138.515 400.311 137.354 399.328 136.416C398.39 135.478 397.341 134.763 396.179 134.272C395.018 133.781 393.857 133.535 392.695 133.535C390.819 133.535 389.077 133.959 387.469 134.808C385.861 135.657 384.566 136.907 383.583 138.56C382.645 140.213 382.176 142.223 382.176 144.59Z"
              fill="white"/>
    </g>
    <g filter="url(#filter1_d_15_221)">
        <path d="M150.386 220C147.782 220 145.88 219.4 144.68 218.2C143.48 217 142.88 215.098 142.88 212.494V204.304C142.88 201.676 143.474 199.768 144.662 198.58C145.862 197.392 147.758 196.798 150.35 196.798H154.706C156.914 196.798 158.558 197.26 159.638 198.184C160.718 199.096 161.312 200.566 161.42 202.594C161.456 202.918 161.39 203.164 161.222 203.332C161.066 203.5 160.832 203.584 160.52 203.584C159.92 203.584 159.59 203.266 159.53 202.63C159.446 201.142 159.038 200.116 158.306 199.552C157.574 198.976 156.374 198.688 154.706 198.688H150.35C148.97 198.688 147.872 198.868 147.056 199.228C146.24 199.576 145.652 200.164 145.292 200.992C144.944 201.808 144.77 202.912 144.77 204.304V212.494C144.77 213.886 144.95 214.99 145.31 215.806C145.67 216.622 146.258 217.21 147.074 217.57C147.89 217.93 148.994 218.11 150.386 218.11H154.706C156.374 218.11 157.574 217.828 158.306 217.264C159.038 216.688 159.446 215.656 159.53 214.168C159.59 213.532 159.92 213.214 160.52 213.214C160.832 213.214 161.066 213.304 161.222 213.484C161.39 213.652 161.456 213.892 161.42 214.204C161.312 216.232 160.718 217.708 159.638 218.632C158.558 219.544 156.914 220 154.706 220H150.386ZM171.878 220C169.634 220 167.99 219.484 166.946 218.452C165.902 217.408 165.38 215.77 165.38 213.538V209.47C165.38 207.202 165.902 205.552 166.946 204.52C167.99 203.476 169.634 202.966 171.878 202.99H174.83C177.074 202.99 178.712 203.512 179.744 204.556C180.788 205.588 181.31 207.226 181.31 209.47V213.502C181.31 215.746 180.788 217.39 179.744 218.434C178.712 219.478 177.074 220 174.83 220H171.878ZM167.27 213.538C167.27 215.23 167.606 216.418 168.278 217.102C168.962 217.774 170.162 218.11 171.878 218.11H174.83C176.546 218.11 177.74 217.774 178.412 217.102C179.084 216.418 179.42 215.218 179.42 213.502V209.47C179.42 207.754 179.084 206.56 178.412 205.888C177.74 205.216 176.546 204.88 174.83 204.88H171.878C170.726 204.868 169.814 205.006 169.142 205.294C168.47 205.582 167.99 206.062 167.702 206.734C167.414 207.406 167.27 208.318 167.27 209.47V213.538ZM188.511 220C187.875 220 187.557 219.682 187.557 219.046V203.926C187.557 203.302 187.875 202.99 188.511 202.99C189.135 202.99 189.447 203.302 189.447 203.926V205.654C190.587 203.878 192.651 202.99 195.639 202.99H196.647C198.891 202.99 200.529 203.512 201.561 204.556C202.605 205.588 203.127 207.226 203.127 209.47V219.046C203.127 219.682 202.815 220 202.191 220C201.555 220 201.237 219.682 201.237 219.046V209.47C201.237 207.754 200.895 206.56 200.211 205.888C199.539 205.216 198.351 204.88 196.647 204.88H195.639C193.779 204.88 192.315 205.174 191.247 205.762C190.179 206.35 189.579 207.268 189.447 208.516V219.046C189.447 219.682 189.135 220 188.511 220ZM216.478 220C214.27 220 212.656 219.49 211.636 218.47C210.616 217.45 210.106 215.842 210.106 213.646V204.88H207.964C207.328 204.88 207.01 204.562 207.01 203.926C207.01 203.302 207.328 202.99 207.964 202.99H210.106V199.12C210.106 198.484 210.418 198.166 211.042 198.166C211.678 198.166 211.996 198.484 211.996 199.12V202.99H216.514C217.138 202.99 217.45 203.302 217.45 203.926C217.45 204.562 217.138 204.88 216.514 204.88H211.996V213.646C211.996 215.326 212.32 216.49 212.968 217.138C213.628 217.786 214.798 218.11 216.478 218.11C216.826 218.11 217.072 218.188 217.216 218.344C217.372 218.5 217.45 218.734 217.45 219.046C217.45 219.682 217.126 220 216.478 220ZM222.395 212.224V213.538C222.395 215.23 222.731 216.418 223.403 217.102C224.087 217.774 225.287 218.11 227.003 218.11H229.955C231.467 218.11 232.565 217.918 233.249 217.534C233.945 217.138 234.359 216.46 234.491 215.5C234.539 215.2 234.635 214.972 234.779 214.816C234.935 214.66 235.169 214.582 235.481 214.582C235.793 214.582 236.027 214.672 236.183 214.852C236.351 215.02 236.417 215.26 236.381 215.572C236.225 217.084 235.619 218.2 234.563 218.92C233.507 219.64 231.971 220 229.955 220H227.003C224.759 220 223.115 219.484 222.071 218.452C221.027 217.408 220.505 215.77 220.505 213.538V209.47C220.505 207.202 221.027 205.552 222.071 204.52C223.115 203.476 224.759 202.966 227.003 202.99H229.955C232.199 202.99 233.837 203.512 234.869 204.556C235.913 205.588 236.435 207.226 236.435 209.47V211.27C236.435 211.906 236.123 212.224 235.499 212.224H222.395ZM227.003 204.88C225.287 204.856 224.087 205.186 223.403 205.87C222.731 206.542 222.395 207.742 222.395 209.47V210.334H234.545V209.47C234.545 207.754 234.209 206.56 233.537 205.888C232.865 205.216 231.671 204.88 229.955 204.88H227.003ZM243.636 220C243 220 242.682 219.682 242.682 219.046V203.926C242.682 203.302 243 202.99 243.636 202.99C244.26 202.99 244.572 203.302 244.572 203.926V205.654C245.712 203.878 247.776 202.99 250.764 202.99H251.772C254.016 202.99 255.654 203.512 256.686 204.556C257.73 205.588 258.252 207.226 258.252 209.47V219.046C258.252 219.682 257.94 220 257.316 220C256.68 220 256.362 219.682 256.362 219.046V209.47C256.362 207.754 256.02 206.56 255.336 205.888C254.664 205.216 253.476 204.88 251.772 204.88H250.764C248.904 204.88 247.44 205.174 246.372 205.762C245.304 206.35 244.704 207.268 244.572 208.516V219.046C244.572 219.682 244.26 220 243.636 220ZM271.603 220C269.395 220 267.781 219.49 266.761 218.47C265.741 217.45 265.231 215.842 265.231 213.646V204.88H263.089C262.453 204.88 262.135 204.562 262.135 203.926C262.135 203.302 262.453 202.99 263.089 202.99H265.231V199.12C265.231 198.484 265.543 198.166 266.167 198.166C266.803 198.166 267.121 198.484 267.121 199.12V202.99H271.639C272.263 202.99 272.575 203.302 272.575 203.926C272.575 204.562 272.263 204.88 271.639 204.88H267.121V213.646C267.121 215.326 267.445 216.49 268.093 217.138C268.753 217.786 269.923 218.11 271.603 218.11C271.951 218.11 272.197 218.188 272.341 218.344C272.497 218.5 272.575 218.734 272.575 219.046C272.575 219.682 272.251 220 271.603 220ZM293.613 220C291.009 220 289.107 219.4 287.907 218.2C286.707 217 286.107 215.098 286.107 212.494V204.304C286.107 201.676 286.701 199.768 287.889 198.58C289.089 197.392 290.985 196.798 293.577 196.798H297.933C300.141 196.798 301.785 197.26 302.865 198.184C303.945 199.096 304.539 200.566 304.647 202.594C304.683 202.918 304.617 203.164 304.449 203.332C304.293 203.5 304.059 203.584 303.747 203.584C303.147 203.584 302.817 203.266 302.757 202.63C302.673 201.142 302.265 200.116 301.533 199.552C300.801 198.976 299.601 198.688 297.933 198.688H293.577C292.197 198.688 291.099 198.868 290.283 199.228C289.467 199.576 288.879 200.164 288.519 200.992C288.171 201.808 287.997 202.912 287.997 204.304V212.494C287.997 213.886 288.177 214.99 288.537 215.806C288.897 216.622 289.485 217.21 290.301 217.57C291.117 217.93 292.221 218.11 293.613 218.11H297.933C299.601 218.11 300.801 217.828 301.533 217.264C302.265 216.688 302.673 215.656 302.757 214.168C302.817 213.532 303.147 213.214 303.747 213.214C304.059 213.214 304.293 213.304 304.449 213.484C304.617 213.652 304.683 213.892 304.647 214.204C304.539 216.232 303.945 217.708 302.865 218.632C301.785 219.544 300.141 220 297.933 220H293.613ZM311.488 220C310.852 220 310.534 219.682 310.534 219.046V203.926C310.534 203.302 310.852 202.99 311.488 202.99C312.112 202.99 312.424 203.302 312.424 203.926V206.698C313.048 205.498 313.948 204.58 315.124 203.944C316.312 203.308 317.716 202.99 319.336 202.99C319.972 202.99 320.29 203.302 320.29 203.926C320.29 204.562 319.972 204.88 319.336 204.88C317.2 204.88 315.544 205.366 314.368 206.338C313.192 207.298 312.544 208.672 312.424 210.46V219.046C312.424 219.682 312.112 220 311.488 220ZM324.805 212.224V213.538C324.805 215.23 325.141 216.418 325.813 217.102C326.497 217.774 327.697 218.11 329.413 218.11H332.365C333.877 218.11 334.975 217.918 335.659 217.534C336.355 217.138 336.769 216.46 336.901 215.5C336.949 215.2 337.045 214.972 337.189 214.816C337.345 214.66 337.579 214.582 337.891 214.582C338.203 214.582 338.437 214.672 338.593 214.852C338.761 215.02 338.827 215.26 338.791 215.572C338.635 217.084 338.029 218.2 336.973 218.92C335.917 219.64 334.381 220 332.365 220H329.413C327.169 220 325.525 219.484 324.481 218.452C323.437 217.408 322.915 215.77 322.915 213.538V209.47C322.915 207.202 323.437 205.552 324.481 204.52C325.525 203.476 327.169 202.966 329.413 202.99H332.365C334.609 202.99 336.247 203.512 337.279 204.556C338.323 205.588 338.845 207.226 338.845 209.47V211.27C338.845 211.906 338.533 212.224 337.909 212.224H324.805ZM329.413 204.88C327.697 204.856 326.497 205.186 325.813 205.87C325.141 206.542 324.805 207.742 324.805 209.47V210.334H336.955V209.47C336.955 207.754 336.619 206.56 335.947 205.888C335.275 205.216 334.081 204.88 332.365 204.88H329.413ZM350.151 220C348.279 220 346.905 219.568 346.029 218.704C345.165 217.828 344.733 216.454 344.733 214.582C344.733 212.71 345.171 211.336 346.047 210.46C346.923 209.584 348.291 209.146 350.151 209.146H358.341C358.317 207.562 357.957 206.458 357.261 205.834C356.577 205.198 355.407 204.88 353.751 204.88H351.663C350.139 204.88 349.023 205.042 348.315 205.366C347.607 205.69 347.169 206.242 347.001 207.022C346.917 207.322 346.803 207.544 346.659 207.688C346.527 207.82 346.311 207.886 346.011 207.886C345.699 207.886 345.453 207.802 345.273 207.634C345.105 207.454 345.045 207.214 345.093 206.914C345.249 205.546 345.867 204.55 346.947 203.926C348.039 203.302 349.611 202.99 351.663 202.99H353.751C355.995 202.99 357.633 203.512 358.665 204.556C359.709 205.588 360.231 207.226 360.231 209.47V219.046C360.231 219.682 359.919 220 359.295 220C358.659 220 358.341 219.682 358.341 219.046V217.264C357.189 219.088 355.131 220 352.167 220H350.151ZM350.151 218.11H352.167C353.331 218.11 354.351 217.984 355.227 217.732C356.115 217.468 356.829 217.048 357.369 216.472C357.909 215.896 358.233 215.128 358.341 214.168V211.036H350.151C348.819 211.036 347.895 211.294 347.379 211.81C346.875 212.314 346.623 213.238 346.623 214.582C346.623 215.914 346.875 216.838 347.379 217.354C347.895 217.858 348.819 218.11 350.151 218.11ZM373.591 220C371.383 220 369.769 219.49 368.749 218.47C367.729 217.45 367.219 215.842 367.219 213.646V204.88H365.077C364.441 204.88 364.123 204.562 364.123 203.926C364.123 203.302 364.441 202.99 365.077 202.99H367.219V199.12C367.219 198.484 367.531 198.166 368.155 198.166C368.791 198.166 369.109 198.484 369.109 199.12V202.99H373.627C374.251 202.99 374.563 203.302 374.563 203.926C374.563 204.562 374.251 204.88 373.627 204.88H369.109V213.646C369.109 215.326 369.433 216.49 370.081 217.138C370.741 217.786 371.911 218.11 373.591 218.11C373.939 218.11 374.185 218.188 374.329 218.344C374.485 218.5 374.563 218.734 374.563 219.046C374.563 219.682 374.239 220 373.591 220ZM380.086 199.714C379.258 199.714 378.844 199.288 378.844 198.436V197.626C378.844 196.798 379.258 196.384 380.086 196.384H380.896C381.7 196.384 382.102 196.798 382.102 197.626V198.436C382.102 199.288 381.7 199.714 380.896 199.714H380.086ZM380.5 220C379.864 220 379.546 219.682 379.546 219.046V203.926C379.546 203.302 379.864 202.99 380.5 202.99C381.124 202.99 381.436 203.302 381.436 203.926V219.046C381.436 219.682 381.124 220 380.5 220ZM394.171 220C391.927 220 390.283 219.484 389.239 218.452C388.195 217.408 387.673 215.77 387.673 213.538V209.47C387.673 207.202 388.195 205.552 389.239 204.52C390.283 203.476 391.927 202.966 394.171 202.99H397.123C399.367 202.99 401.005 203.512 402.037 204.556C403.081 205.588 403.603 207.226 403.603 209.47V213.502C403.603 215.746 403.081 217.39 402.037 218.434C401.005 219.478 399.367 220 397.123 220H394.171ZM389.563 213.538C389.563 215.23 389.899 216.418 390.571 217.102C391.255 217.774 392.455 218.11 394.171 218.11H397.123C398.839 218.11 400.033 217.774 400.705 217.102C401.377 216.418 401.713 215.218 401.713 213.502V209.47C401.713 207.754 401.377 206.56 400.705 205.888C400.033 205.216 398.839 204.88 397.123 204.88H394.171C393.019 204.868 392.107 205.006 391.435 205.294C390.763 205.582 390.283 206.062 389.995 206.734C389.707 207.406 389.563 208.318 389.563 209.47V213.538ZM410.804 220C410.168 220 409.85 219.682 409.85 219.046V203.926C409.85 203.302 410.168 202.99 410.804 202.99C411.428 202.99 411.74 203.302 411.74 203.926V205.654C412.88 203.878 414.944 202.99 417.932 202.99H418.94C421.184 202.99 422.822 203.512 423.854 204.556C424.898 205.588 425.42 207.226 425.42 209.47V219.046C425.42 219.682 425.108 220 424.484 220C423.848 220 423.53 219.682 423.53 219.046V209.47C423.53 207.754 423.188 206.56 422.504 205.888C421.832 205.216 420.644 204.88 418.94 204.88H417.932C416.072 204.88 414.608 205.174 413.54 205.762C412.472 206.35 411.872 207.268 411.74 208.516V219.046C411.74 219.682 411.428 220 410.804 220Z"
              fill="white"/>
    </g>
    <defs>
        <filter id="filter0_d_15_221" x="157.36" y="107.74" width="254.544" height="75.67" filterUnits="userSpaceOnUse"
                color-interpolation-filters="sRGB">
            <feFlood flood-opacity="0" result="BackgroundImageFix"/>
            <feColorMatrix in="SourceAlpha" type="matrix" values="0 0 0 0 0 0 0 0 0 0 0 0 0 0 0 0 0 0 127 0"
                           result="hardAlpha"/>
            <feOffset dy="4"/>
            <feGaussianBlur stdDeviation="2"/>
            <feComposite in2="hardAlpha" operator="out"/>
            <feColorMatrix type="matrix" values="0 0 0 0 0 0 0 0 0 0 0 0 0 0 0 0 0 0 0.25 0"/>
            <feBlend mode="normal" in2="BackgroundImageFix" result="effect1_dropShadow_15_221"/>
            <feBlend mode="normal" in="SourceGraphic" in2="effect1_dropShadow_15_221" result="shape"/>
        </filter>
        <filter id="filter1_d_15_221" x="138.88" y="196.384" width="290.541" height="31.616"
                filterUnits="userSpaceOnUse" color-interpolation-filters="sRGB">
            <feFlood flood-opacity="0" result="BackgroundImageFix"/>
            <feColorMatrix in="SourceAlpha" type="matrix" values="0 0 0 0 0 0 0 0 0 0 0 0 0 0 0 0 0 0 127 0"
                           result="hardAlpha"/>
            <feOffset dy="4"/>
            <feGaussianBlur stdDeviation="2"/>
            <feComposite in2="hardAlpha" operator="out"/>
            <feColorMatrix type="matrix" values="0 0 0 0 0 0 0 0 0 0 0 0 0 0 0 0 0 0 0.25 0"/>
            <feBlend mode="normal" in2="BackgroundImageFix" result="effect1_dropShadow_15_221"/>
            <feBlend mode="normal" in="SourceGraphic" in2="effect1_dropShadow_15_221" result="shape"/>
        </filter>
    </defs>
</svg>
