<svg width="570" height="352" viewBox="0 0 570 352" fill="none" xmlns="http://www.w3.org/2000/svg">
    <rect x="0.5" y="0.5" width="569" height="351" rx="19.5" fill="#E4D2D1"/>
    <rect x="0.5" y="0.5" width="569" height="351" rx="19.5" stroke="#BDBDBD"/>
    <g filter="url(#filter0_d_15_253)">
        <path d="M211.509 161V155.64H235.16V161H211.509ZM211.509 119.46V114.1H235.16V119.46H211.509ZM211.509 138.22V132.86H233.82V138.22H211.509ZM208.36 114.1H214.055V161H208.36V114.1ZM287.072 141.57V161H281.712V142.24C281.712 139.605 281.221 137.662 280.238 136.411C279.3 135.16 277.826 134.535 275.816 134.535C274.342 134.535 273.069 134.848 271.997 135.473C270.925 136.054 270.099 136.925 269.518 138.086C268.937 139.247 268.647 140.632 268.647 142.24V161H263.287V142.24C263.287 139.605 262.796 137.662 261.813 136.411C260.875 135.16 259.401 134.535 257.391 134.535C255.917 134.535 254.644 134.848 253.572 135.473C252.5 136.054 251.674 136.925 251.093 138.086C250.512 139.247 250.222 140.632 250.222 142.24V161H244.862V130.18H250.222V134.669C251.16 132.927 252.321 131.632 253.706 130.783C255.135 129.934 256.81 129.51 258.731 129.51C260.875 129.51 262.706 130.024 264.225 131.051C265.788 132.034 266.927 133.441 267.642 135.272C268.714 133.351 270.054 131.922 271.662 130.984C273.27 130.001 275.101 129.51 277.156 129.51C279.255 129.51 281.042 129.979 282.516 130.917C283.99 131.855 285.107 133.24 285.866 135.071C286.67 136.858 287.072 139.024 287.072 141.57ZM299.552 151.486C299.552 152.647 299.82 153.652 300.356 154.501C300.937 155.35 301.719 155.997 302.701 156.444C303.729 156.846 304.89 157.047 306.185 157.047C307.838 157.047 309.312 156.712 310.607 156.042C311.947 155.372 312.997 154.434 313.756 153.228C314.56 151.977 314.962 150.548 314.962 148.94L316.034 152.96C316.034 154.925 315.431 156.556 314.225 157.851C313.064 159.146 311.612 160.107 309.87 160.732C308.173 161.357 306.476 161.67 304.778 161.67C302.902 161.67 301.138 161.29 299.485 160.531C297.877 159.727 296.582 158.588 295.599 157.114C294.617 155.64 294.125 153.853 294.125 151.754C294.125 148.761 295.175 146.372 297.274 144.585C299.418 142.754 302.389 141.838 306.185 141.838C308.419 141.838 310.272 142.106 311.746 142.642C313.265 143.133 314.471 143.714 315.364 144.384C316.258 145.009 316.861 145.523 317.173 145.925V149.074C315.61 148.002 314.002 147.243 312.349 146.796C310.697 146.305 308.932 146.059 307.056 146.059C305.314 146.059 303.885 146.282 302.768 146.729C301.696 147.176 300.892 147.801 300.356 148.605C299.82 149.409 299.552 150.369 299.552 151.486ZM298.748 137.282L296.135 133.329C297.297 132.48 298.882 131.632 300.892 130.783C302.947 129.934 305.404 129.51 308.262 129.51C310.674 129.51 312.774 129.89 314.56 130.649C316.392 131.364 317.799 132.413 318.781 133.798C319.809 135.183 320.322 136.88 320.322 138.89V161H314.962V139.627C314.962 138.555 314.784 137.684 314.426 137.014C314.069 136.299 313.555 135.741 312.885 135.339C312.26 134.937 311.523 134.647 310.674 134.468C309.826 134.289 308.932 134.2 307.994 134.2C306.476 134.2 305.091 134.379 303.84 134.736C302.634 135.093 301.607 135.518 300.758 136.009C299.91 136.5 299.24 136.925 298.748 137.282ZM329.397 117.45C329.397 116.423 329.754 115.552 330.469 114.837C331.228 114.122 332.099 113.765 333.082 113.765C334.109 113.765 334.98 114.122 335.695 114.837C336.41 115.552 336.767 116.423 336.767 117.45C336.767 118.433 336.41 119.304 335.695 120.063C334.98 120.778 334.109 121.135 333.082 121.135C332.099 121.135 331.228 120.778 330.469 120.063C329.754 119.304 329.397 118.433 329.397 117.45ZM330.402 130.18H335.762V161H330.402V130.18ZM346.801 108.74H352.161V161H346.801V108.74ZM363.516 151.553C364.141 152.491 364.856 153.362 365.66 154.166C366.464 154.97 367.379 155.618 368.407 156.109C369.479 156.556 370.64 156.779 371.891 156.779C373.409 156.779 374.593 156.444 375.442 155.774C376.335 155.059 376.782 154.099 376.782 152.893C376.782 151.821 376.424 150.928 375.71 150.213C375.04 149.454 374.169 148.828 373.097 148.337C372.025 147.801 370.886 147.31 369.68 146.863C368.34 146.327 366.977 145.702 365.593 144.987C364.253 144.228 363.114 143.267 362.176 142.106C361.282 140.9 360.836 139.404 360.836 137.617C360.836 135.786 361.305 134.267 362.243 133.061C363.225 131.855 364.476 130.962 365.995 130.381C367.558 129.8 369.166 129.51 370.819 129.51C372.471 129.51 374.012 129.778 375.442 130.314C376.916 130.85 378.211 131.565 379.328 132.458C380.444 133.351 381.315 134.379 381.941 135.54L377.653 138.287C376.804 137.126 375.732 136.165 374.437 135.406C373.186 134.647 371.757 134.267 370.149 134.267C369.032 134.267 368.072 134.513 367.268 135.004C366.464 135.495 366.062 136.255 366.062 137.282C366.062 138.086 366.374 138.801 367 139.426C367.625 140.051 368.429 140.61 369.412 141.101C370.394 141.592 371.422 142.061 372.494 142.508C374.28 143.223 375.911 144.004 377.385 144.853C378.859 145.657 380.02 146.64 380.869 147.801C381.762 148.962 382.209 150.459 382.209 152.29C382.209 154.97 381.226 157.203 379.261 158.99C377.34 160.777 374.794 161.67 371.623 161.67C369.568 161.67 367.714 161.313 366.062 160.598C364.409 159.839 363.002 158.878 361.841 157.717C360.724 156.556 359.875 155.372 359.295 154.166L363.516 151.553Z"
              fill="white"/>
    </g>
    <g filter="url(#filter1_d_15_253)">
        <path d="M144.32 220C143.684 220 143.366 219.682 143.366 219.046V197.752C143.366 197.116 143.684 196.798 144.32 196.798H152.744C154.796 196.798 156.344 197.326 157.388 198.382C158.444 199.438 158.972 200.992 158.972 203.044V204.124C158.972 206.164 158.444 207.712 157.388 208.768C156.344 209.824 154.796 210.352 152.744 210.352H145.256V219.046C145.256 219.682 144.944 220 144.32 220ZM145.256 208.462H152.744C154.256 208.462 155.354 208.12 156.038 207.436C156.734 206.74 157.082 205.636 157.082 204.124V203.044C157.082 201.52 156.734 200.416 156.038 199.732C155.354 199.036 154.256 198.688 152.744 198.688H145.256V208.462ZM164.247 212.224V213.538C164.247 215.23 164.583 216.418 165.255 217.102C165.939 217.774 167.139 218.11 168.855 218.11H171.807C173.319 218.11 174.417 217.918 175.101 217.534C175.797 217.138 176.211 216.46 176.343 215.5C176.391 215.2 176.487 214.972 176.631 214.816C176.787 214.66 177.021 214.582 177.333 214.582C177.645 214.582 177.879 214.672 178.035 214.852C178.203 215.02 178.269 215.26 178.233 215.572C178.077 217.084 177.471 218.2 176.415 218.92C175.359 219.64 173.823 220 171.807 220H168.855C166.611 220 164.967 219.484 163.923 218.452C162.879 217.408 162.357 215.77 162.357 213.538V209.47C162.357 207.202 162.879 205.552 163.923 204.52C164.967 203.476 166.611 202.966 168.855 202.99H171.807C174.051 202.99 175.689 203.512 176.721 204.556C177.765 205.588 178.287 207.226 178.287 209.47V211.27C178.287 211.906 177.975 212.224 177.351 212.224H164.247ZM168.855 204.88C167.139 204.856 165.939 205.186 165.255 205.87C164.583 206.542 164.247 207.742 164.247 209.47V210.334H176.397V209.47C176.397 207.754 176.061 206.56 175.389 205.888C174.717 205.216 173.523 204.88 171.807 204.88H168.855ZM185.488 220C184.852 220 184.534 219.682 184.534 219.046V203.926C184.534 203.302 184.852 202.99 185.488 202.99C186.112 202.99 186.424 203.302 186.424 203.926V206.698C187.048 205.498 187.948 204.58 189.124 203.944C190.312 203.308 191.716 202.99 193.336 202.99C193.972 202.99 194.29 203.302 194.29 203.926C194.29 204.562 193.972 204.88 193.336 204.88C191.2 204.88 189.544 205.366 188.368 206.338C187.192 207.298 186.544 208.672 186.424 210.46V219.046C186.424 219.682 186.112 220 185.488 220ZM201.127 219.964C199.651 219.964 198.523 219.652 197.743 219.028C196.963 218.392 196.495 217.426 196.339 216.13C196.303 215.818 196.369 215.578 196.537 215.41C196.705 215.23 196.951 215.14 197.275 215.14C197.575 215.14 197.797 215.218 197.941 215.374C198.097 215.53 198.199 215.764 198.247 216.076C198.355 216.82 198.625 217.342 199.057 217.642C199.501 217.93 200.191 218.074 201.127 218.074H207.031C208.147 218.074 208.915 217.864 209.335 217.444C209.755 217.024 209.965 216.256 209.965 215.14C209.965 214.012 209.755 213.238 209.335 212.818C208.915 212.398 208.147 212.188 207.031 212.188H201.199C199.639 212.188 198.475 211.816 197.707 211.072C196.951 210.316 196.573 209.158 196.573 207.598C196.573 206.002 196.951 204.832 197.707 204.088C198.463 203.332 199.627 202.954 201.199 202.954H206.851C209.563 202.954 211.069 204.154 211.369 206.554C211.417 206.866 211.351 207.112 211.171 207.292C211.003 207.46 210.763 207.544 210.451 207.544C210.151 207.544 209.923 207.466 209.767 207.31C209.623 207.154 209.521 206.926 209.461 206.626C209.377 205.954 209.131 205.492 208.723 205.24C208.327 204.976 207.703 204.844 206.851 204.844H201.199C200.155 204.844 199.435 205.036 199.039 205.42C198.655 205.804 198.463 206.53 198.463 207.598C198.463 208.618 198.661 209.326 199.057 209.722C199.453 210.106 200.167 210.298 201.199 210.298H207.031C208.687 210.298 209.905 210.694 210.685 211.486C211.465 212.266 211.855 213.484 211.855 215.14C211.855 216.784 211.465 218.002 210.685 218.794C209.905 219.574 208.687 219.964 207.031 219.964H201.127ZM223.523 220C221.279 220 219.635 219.484 218.591 218.452C217.547 217.408 217.025 215.77 217.025 213.538V209.47C217.025 207.202 217.547 205.552 218.591 204.52C219.635 203.476 221.279 202.966 223.523 202.99H226.475C228.719 202.99 230.357 203.512 231.389 204.556C232.433 205.588 232.955 207.226 232.955 209.47V213.502C232.955 215.746 232.433 217.39 231.389 218.434C230.357 219.478 228.719 220 226.475 220H223.523ZM218.915 213.538C218.915 215.23 219.251 216.418 219.923 217.102C220.607 217.774 221.807 218.11 223.523 218.11H226.475C228.191 218.11 229.385 217.774 230.057 217.102C230.729 216.418 231.065 215.218 231.065 213.502V209.47C231.065 207.754 230.729 206.56 230.057 205.888C229.385 205.216 228.191 204.88 226.475 204.88H223.523C222.371 204.868 221.459 205.006 220.787 205.294C220.115 205.582 219.635 206.062 219.347 206.734C219.059 207.406 218.915 208.318 218.915 209.47V213.538ZM240.156 220C239.52 220 239.202 219.682 239.202 219.046V203.926C239.202 203.302 239.52 202.99 240.156 202.99C240.78 202.99 241.092 203.302 241.092 203.926V205.654C242.232 203.878 244.296 202.99 247.284 202.99H248.292C250.536 202.99 252.174 203.512 253.206 204.556C254.25 205.588 254.772 207.226 254.772 209.47V219.046C254.772 219.682 254.46 220 253.836 220C253.2 220 252.882 219.682 252.882 219.046V209.47C252.882 207.754 252.54 206.56 251.856 205.888C251.184 205.216 249.996 204.88 248.292 204.88H247.284C245.424 204.88 243.96 205.174 242.892 205.762C241.824 206.35 241.224 207.268 241.092 208.516V219.046C241.092 219.682 240.78 220 240.156 220ZM265.529 220C263.657 220 262.283 219.568 261.407 218.704C260.543 217.828 260.111 216.454 260.111 214.582C260.111 212.71 260.549 211.336 261.425 210.46C262.301 209.584 263.669 209.146 265.529 209.146H273.719C273.695 207.562 273.335 206.458 272.639 205.834C271.955 205.198 270.785 204.88 269.129 204.88H267.041C265.517 204.88 264.401 205.042 263.693 205.366C262.985 205.69 262.547 206.242 262.379 207.022C262.295 207.322 262.181 207.544 262.037 207.688C261.905 207.82 261.689 207.886 261.389 207.886C261.077 207.886 260.831 207.802 260.651 207.634C260.483 207.454 260.423 207.214 260.471 206.914C260.627 205.546 261.245 204.55 262.325 203.926C263.417 203.302 264.989 202.99 267.041 202.99H269.129C271.373 202.99 273.011 203.512 274.043 204.556C275.087 205.588 275.609 207.226 275.609 209.47V219.046C275.609 219.682 275.297 220 274.673 220C274.037 220 273.719 219.682 273.719 219.046V217.264C272.567 219.088 270.509 220 267.545 220H265.529ZM265.529 218.11H267.545C268.709 218.11 269.729 217.984 270.605 217.732C271.493 217.468 272.207 217.048 272.747 216.472C273.287 215.896 273.611 215.128 273.719 214.168V211.036H265.529C264.197 211.036 263.273 211.294 262.757 211.81C262.253 212.314 262.001 213.238 262.001 214.582C262.001 215.914 262.253 216.838 262.757 217.354C263.273 217.858 264.197 218.11 265.529 218.11ZM286.972 220C285.268 220 284.014 219.604 283.21 218.812C282.418 218.02 282.022 216.778 282.022 215.086V195.97C282.022 195.346 282.34 195.034 282.976 195.034C283.6 195.034 283.912 195.346 283.912 195.97V215.086C283.912 216.25 284.128 217.048 284.56 217.48C284.992 217.9 285.79 218.11 286.954 218.11C287.602 218.11 287.926 218.422 287.926 219.046C287.938 219.682 287.62 220 286.972 220ZM306.502 220C306.046 220 305.74 219.754 305.584 219.262L298.69 198.058C298.594 197.782 298.63 197.506 298.798 197.23C298.966 196.942 299.23 196.798 299.59 196.798C299.794 196.798 299.974 196.858 300.13 196.978C300.298 197.086 300.412 197.254 300.472 197.482L306.88 217.174H306.358L312.424 197.536C312.508 197.272 312.652 197.08 312.856 196.96C313.072 196.84 313.294 196.78 313.522 196.78C313.762 196.78 313.99 196.84 314.206 196.96C314.422 197.08 314.56 197.272 314.62 197.536L320.686 217.174H320.164L326.572 197.482C326.656 197.254 326.77 197.086 326.914 196.978C327.07 196.858 327.25 196.798 327.454 196.798C327.862 196.798 328.138 196.936 328.282 197.212C328.438 197.488 328.468 197.77 328.372 198.058L321.46 219.262C321.304 219.754 320.974 220 320.47 220H320.398C319.882 220 319.552 219.754 319.408 219.262L313.234 199.426H313.756L307.582 219.262C307.498 219.562 307.366 219.76 307.186 219.856C307.006 219.952 306.778 220 306.502 220ZM332.547 220C331.911 220 331.593 219.682 331.593 219.046V203.926C331.593 203.302 331.911 202.99 332.547 202.99C333.171 202.99 333.483 203.302 333.483 203.926V206.698C334.107 205.498 335.007 204.58 336.183 203.944C337.371 203.308 338.775 202.99 340.395 202.99C341.031 202.99 341.349 203.302 341.349 203.926C341.349 204.562 341.031 204.88 340.395 204.88C338.259 204.88 336.603 205.366 335.427 206.338C334.251 207.298 333.603 208.672 333.483 210.46V219.046C333.483 219.682 333.171 220 332.547 220ZM345.703 199.714C344.875 199.714 344.461 199.288 344.461 198.436V197.626C344.461 196.798 344.875 196.384 345.703 196.384H346.513C347.317 196.384 347.719 196.798 347.719 197.626V198.436C347.719 199.288 347.317 199.714 346.513 199.714H345.703ZM346.117 220C345.481 220 345.163 219.682 345.163 219.046V203.926C345.163 203.302 345.481 202.99 346.117 202.99C346.741 202.99 347.053 203.302 347.053 203.926V219.046C347.053 219.682 346.741 220 346.117 220ZM360.724 220C358.516 220 356.902 219.49 355.882 218.47C354.862 217.45 354.352 215.842 354.352 213.646V204.88H352.21C351.574 204.88 351.256 204.562 351.256 203.926C351.256 203.302 351.574 202.99 352.21 202.99H354.352V199.12C354.352 198.484 354.664 198.166 355.288 198.166C355.924 198.166 356.242 198.484 356.242 199.12V202.99H360.76C361.384 202.99 361.696 203.302 361.696 203.926C361.696 204.562 361.384 204.88 360.76 204.88H356.242V213.646C356.242 215.326 356.566 216.49 357.214 217.138C357.874 217.786 359.044 218.11 360.724 218.11C361.072 218.11 361.318 218.188 361.462 218.344C361.618 218.5 361.696 218.734 361.696 219.046C361.696 219.682 361.372 220 360.724 220ZM367.219 199.714C366.391 199.714 365.977 199.288 365.977 198.436V197.626C365.977 196.798 366.391 196.384 367.219 196.384H368.029C368.833 196.384 369.235 196.798 369.235 197.626V198.436C369.235 199.288 368.833 199.714 368.029 199.714H367.219ZM367.633 220C366.997 220 366.679 219.682 366.679 219.046V203.926C366.679 203.302 366.997 202.99 367.633 202.99C368.257 202.99 368.569 203.302 368.569 203.926V219.046C368.569 219.682 368.257 220 367.633 220ZM376.246 220C375.61 220 375.292 219.682 375.292 219.046V203.926C375.292 203.302 375.61 202.99 376.246 202.99C376.87 202.99 377.182 203.302 377.182 203.926V205.654C378.322 203.878 380.386 202.99 383.374 202.99H384.382C386.626 202.99 388.264 203.512 389.296 204.556C390.34 205.588 390.862 207.226 390.862 209.47V219.046C390.862 219.682 390.55 220 389.926 220C389.29 220 388.972 219.682 388.972 219.046V209.47C388.972 207.754 388.63 206.56 387.946 205.888C387.274 205.216 386.086 204.88 384.382 204.88H383.374C381.514 204.88 380.05 205.174 378.982 205.762C377.914 206.35 377.314 207.268 377.182 208.516V219.046C377.182 219.682 376.87 220 376.246 220ZM401.404 227.2C399.988 227.2 398.908 226.906 398.164 226.318C397.42 225.742 396.982 224.83 396.85 223.582C396.814 223.27 396.88 223.024 397.048 222.844C397.216 222.664 397.45 222.574 397.75 222.574C398.05 222.574 398.278 222.652 398.434 222.808C398.59 222.964 398.692 223.198 398.74 223.51C398.824 224.206 399.07 224.68 399.478 224.932C399.886 225.184 400.528 225.31 401.404 225.31H408.1C409.156 225.31 409.87 225.118 410.242 224.734C410.626 224.35 410.818 223.63 410.818 222.574V217.426C410.266 218.266 409.486 218.908 408.478 219.352C407.47 219.784 406.192 220 404.644 220H403.276C401.032 220 399.388 219.484 398.344 218.452C397.3 217.408 396.778 215.77 396.778 213.538V209.47C396.778 207.202 397.294 205.558 398.326 204.538C399.37 203.506 401.02 202.99 403.276 202.99H406.228C407.404 202.99 408.358 203.146 409.09 203.458C409.822 203.77 410.398 204.256 410.818 204.916V203.926C410.818 203.302 411.136 202.99 411.772 202.99C412.396 202.99 412.708 203.302 412.708 203.926V222.574C412.708 224.158 412.336 225.322 411.592 226.066C410.848 226.822 409.684 227.2 408.1 227.2H401.404ZM403.276 218.11H404.644C406.516 218.11 408.01 217.816 409.126 217.228C410.254 216.64 410.818 215.746 410.818 214.546V208.534C410.818 207.178 410.44 206.23 409.684 205.69C408.928 205.15 407.776 204.88 406.228 204.88H403.276C401.56 204.88 400.36 205.216 399.676 205.888C399.004 206.548 398.668 207.742 398.668 209.47V213.538C398.668 215.23 399.004 216.418 399.676 217.102C400.36 217.774 401.56 218.11 403.276 218.11Z"
              fill="white"/>
    </g>
    <defs>
        <filter id="filter0_d_15_253" x="204.36" y="108.74" width="181.849" height="60.9299"
                filterUnits="userSpaceOnUse" color-interpolation-filters="sRGB">
            <feFlood flood-opacity="0" result="BackgroundImageFix"/>
            <feColorMatrix in="SourceAlpha" type="matrix" values="0 0 0 0 0 0 0 0 0 0 0 0 0 0 0 0 0 0 127 0"
                           result="hardAlpha"/>
            <feOffset dy="4"/>
            <feGaussianBlur stdDeviation="2"/>
            <feComposite in2="hardAlpha" operator="out"/>
            <feColorMatrix type="matrix" values="0 0 0 0 0 0 0 0 0 0 0 0 0 0 0 0 0 0 0.25 0"/>
            <feBlend mode="normal" in2="BackgroundImageFix" result="effect1_dropShadow_15_253"/>
            <feBlend mode="normal" in="SourceGraphic" in2="effect1_dropShadow_15_253" result="shape"/>
        </filter>
        <filter id="filter1_d_15_253" x="139.366" y="195.034" width="277.343" height="40.166"
                filterUnits="userSpaceOnUse" color-interpolation-filters="sRGB">
            <feFlood flood-opacity="0" result="BackgroundImageFix"/>
            <feColorMatrix in="SourceAlpha" type="matrix" values="0 0 0 0 0 0 0 0 0 0 0 0 0 0 0 0 0 0 127 0"
                           result="hardAlpha"/>
            <feOffset dy="4"/>
            <feGaussianBlur stdDeviation="2"/>
            <feComposite in2="hardAlpha" operator="out"/>
            <feColorMatrix type="matrix" values="0 0 0 0 0 0 0 0 0 0 0 0 0 0 0 0 0 0 0.25 0"/>
            <feBlend mode="normal" in2="BackgroundImageFix" result="effect1_dropShadow_15_253"/>
            <feBlend mode="normal" in="SourceGraphic" in2="effect1_dropShadow_15_253" result="shape"/>
        </filter>
    </defs>
</svg>
