<svg width="570" height="352" viewBox="0 0 570 352" fill="none" xmlns="http://www.w3.org/2000/svg">
    <rect x="0.5" y="0.5" width="569" height="351" rx="19.5" fill="#96DED6"/>
    <rect x="0.5" y="0.5" width="569" height="351" rx="19.5" stroke="#BDBDBD"/>
    <g filter="url(#filter0_d_15_245)">
        <path d="M212.509 161V155.64H236.16V161H212.509ZM212.509 119.46V114.1H236.16V119.46H212.509ZM212.509 138.22V132.86H234.82V138.22H212.509ZM209.36 114.1H215.055V161H209.36V114.1ZM247.135 151.553C247.76 152.491 248.475 153.362 249.279 154.166C250.083 154.97 250.999 155.618 252.026 156.109C253.098 156.556 254.259 156.779 255.51 156.779C257.029 156.779 258.212 156.444 259.061 155.774C259.954 155.059 260.401 154.099 260.401 152.893C260.401 151.821 260.044 150.928 259.329 150.213C258.659 149.454 257.788 148.828 256.716 148.337C255.644 147.801 254.505 147.31 253.299 146.863C251.959 146.327 250.597 145.702 249.212 144.987C247.872 144.228 246.733 143.267 245.795 142.106C244.902 140.9 244.455 139.404 244.455 137.617C244.455 135.786 244.924 134.267 245.862 133.061C246.845 131.855 248.095 130.962 249.614 130.381C251.177 129.8 252.785 129.51 254.438 129.51C256.091 129.51 257.632 129.778 259.061 130.314C260.535 130.85 261.83 131.565 262.947 132.458C264.064 133.351 264.935 134.379 265.56 135.54L261.272 138.287C260.423 137.126 259.351 136.165 258.056 135.406C256.805 134.647 255.376 134.267 253.768 134.267C252.651 134.267 251.691 134.513 250.887 135.004C250.083 135.495 249.681 136.255 249.681 137.282C249.681 138.086 249.994 138.801 250.619 139.426C251.244 140.051 252.048 140.61 253.031 141.101C254.014 141.592 255.041 142.061 256.113 142.508C257.9 143.223 259.53 144.004 261.004 144.853C262.478 145.657 263.639 146.64 264.488 147.801C265.381 148.962 265.828 150.459 265.828 152.29C265.828 154.97 264.845 157.203 262.88 158.99C260.959 160.777 258.413 161.67 255.242 161.67C253.187 161.67 251.334 161.313 249.681 160.598C248.028 159.839 246.621 158.878 245.46 157.717C244.343 156.556 243.495 155.372 242.914 154.166L247.135 151.553ZM274.157 151.553C274.783 152.491 275.497 153.362 276.301 154.166C277.105 154.97 278.021 155.618 279.048 156.109C280.12 156.556 281.282 156.779 282.532 156.779C284.051 156.779 285.235 156.444 286.083 155.774C286.977 155.059 287.423 154.099 287.423 152.893C287.423 151.821 287.066 150.928 286.351 150.213C285.681 149.454 284.81 148.828 283.738 148.337C282.666 147.801 281.527 147.31 280.321 146.863C278.981 146.327 277.619 145.702 276.234 144.987C274.894 144.228 273.755 143.267 272.817 142.106C271.924 140.9 271.477 139.404 271.477 137.617C271.477 135.786 271.946 134.267 272.884 133.061C273.867 131.855 275.118 130.962 276.636 130.381C278.2 129.8 279.808 129.51 281.46 129.51C283.113 129.51 284.654 129.778 286.083 130.314C287.557 130.85 288.853 131.565 289.969 132.458C291.086 133.351 291.957 134.379 292.582 135.54L288.294 138.287C287.446 137.126 286.374 136.165 285.078 135.406C283.828 134.647 282.398 134.267 280.79 134.267C279.674 134.267 278.713 134.513 277.909 135.004C277.105 135.495 276.703 136.255 276.703 137.282C276.703 138.086 277.016 138.801 277.641 139.426C278.267 140.051 279.071 140.61 280.053 141.101C281.036 141.592 282.063 142.061 283.135 142.508C284.922 143.223 286.552 144.004 288.026 144.853C289.5 145.657 290.662 146.64 291.51 147.801C292.404 148.962 292.85 150.459 292.85 152.29C292.85 154.97 291.868 157.203 289.902 158.99C287.982 160.777 285.436 161.67 282.264 161.67C280.21 161.67 278.356 161.313 276.703 160.598C275.051 159.839 273.644 158.878 272.482 157.717C271.366 156.556 270.517 155.372 269.936 154.166L274.157 151.553ZM302.319 151.486C302.319 152.647 302.587 153.652 303.123 154.501C303.704 155.35 304.485 155.997 305.468 156.444C306.495 156.846 307.657 157.047 308.952 157.047C310.605 157.047 312.079 156.712 313.374 156.042C314.714 155.372 315.764 154.434 316.523 153.228C317.327 151.977 317.729 150.548 317.729 148.94L318.801 152.96C318.801 154.925 318.198 156.556 316.992 157.851C315.831 159.146 314.379 160.107 312.637 160.732C310.94 161.357 309.242 161.67 307.545 161.67C305.669 161.67 303.905 161.29 302.252 160.531C300.644 159.727 299.349 158.588 298.366 157.114C297.383 155.64 296.892 153.853 296.892 151.754C296.892 148.761 297.942 146.372 300.041 144.585C302.185 142.754 305.155 141.838 308.952 141.838C311.185 141.838 313.039 142.106 314.513 142.642C316.032 143.133 317.238 143.714 318.131 144.384C319.024 145.009 319.627 145.523 319.94 145.925V149.074C318.377 148.002 316.769 147.243 315.116 146.796C313.463 146.305 311.699 146.059 309.823 146.059C308.081 146.059 306.652 146.282 305.535 146.729C304.463 147.176 303.659 147.801 303.123 148.605C302.587 149.409 302.319 150.369 302.319 151.486ZM301.515 137.282L298.902 133.329C300.063 132.48 301.649 131.632 303.659 130.783C305.714 129.934 308.17 129.51 311.029 129.51C313.441 129.51 315.54 129.89 317.327 130.649C319.158 131.364 320.565 132.413 321.548 133.798C322.575 135.183 323.089 136.88 323.089 138.89V161H317.729V139.627C317.729 138.555 317.55 137.684 317.193 137.014C316.836 136.299 316.322 135.741 315.652 135.339C315.027 134.937 314.29 134.647 313.441 134.468C312.592 134.289 311.699 134.2 310.761 134.2C309.242 134.2 307.858 134.379 306.607 134.736C305.401 135.093 304.374 135.518 303.525 136.009C302.676 136.5 302.006 136.925 301.515 137.282ZM356.292 130.18L336.192 175.74H330.162L338.604 156.645L326.812 130.18H333.177L342.959 154.3L340.748 154.032L350.262 130.18H356.292ZM362.618 151.553C363.244 152.491 363.958 153.362 364.762 154.166C365.566 154.97 366.482 155.618 367.509 156.109C368.581 156.556 369.743 156.779 370.993 156.779C372.512 156.779 373.696 156.444 374.544 155.774C375.438 155.059 375.884 154.099 375.884 152.893C375.884 151.821 375.527 150.928 374.812 150.213C374.142 149.454 373.271 148.828 372.199 148.337C371.127 147.801 369.988 147.31 368.782 146.863C367.442 146.327 366.08 145.702 364.695 144.987C363.355 144.228 362.216 143.267 361.278 142.106C360.385 140.9 359.938 139.404 359.938 137.617C359.938 135.786 360.407 134.267 361.345 133.061C362.328 131.855 363.579 130.962 365.097 130.381C366.661 129.8 368.269 129.51 369.921 129.51C371.574 129.51 373.115 129.778 374.544 130.314C376.018 130.85 377.314 131.565 378.43 132.458C379.547 133.351 380.418 134.379 381.043 135.54L376.755 138.287C375.907 137.126 374.835 136.165 373.539 135.406C372.289 134.647 370.859 134.267 369.251 134.267C368.135 134.267 367.174 134.513 366.37 135.004C365.566 135.495 365.164 136.255 365.164 137.282C365.164 138.086 365.477 138.801 366.102 139.426C366.728 140.051 367.532 140.61 368.514 141.101C369.497 141.592 370.524 142.061 371.596 142.508C373.383 143.223 375.013 144.004 376.487 144.853C377.961 145.657 379.123 146.64 379.971 147.801C380.865 148.962 381.311 150.459 381.311 152.29C381.311 154.97 380.329 157.203 378.363 158.99C376.443 160.777 373.897 161.67 370.725 161.67C368.671 161.67 366.817 161.313 365.164 160.598C363.512 159.839 362.105 158.878 360.943 157.717C359.827 156.556 358.978 155.372 358.397 154.166L362.618 151.553Z"
              fill="white"/>
    </g>
    <g filter="url(#filter1_d_15_245)">
        <path d="M141.548 219.91C140.972 219.658 140.798 219.238 141.026 218.65L149.954 197.536C150.146 197.044 150.5 196.798 151.016 196.798H151.124C151.616 196.81 151.964 197.056 152.168 197.536L161.096 218.65C161.336 219.238 161.168 219.658 160.592 219.91C160.004 220.15 159.596 219.982 159.368 219.406L156.974 213.736H145.184L142.79 219.406C142.55 219.982 142.136 220.15 141.548 219.91ZM145.958 211.846H156.182L151.07 199.786L145.958 211.846ZM170.788 220C168.544 220 166.9 219.478 165.856 218.434C164.812 217.39 164.29 215.746 164.29 213.502V209.434C164.29 207.19 164.806 205.552 165.838 204.52C166.882 203.476 168.532 202.966 170.788 202.99H173.74C175.504 202.99 176.848 203.29 177.772 203.89C178.708 204.478 179.266 205.408 179.446 206.68C179.482 207.004 179.41 207.25 179.23 207.418C179.062 207.586 178.822 207.67 178.51 207.67C178.222 207.67 178.006 207.598 177.862 207.454C177.718 207.298 177.61 207.076 177.538 206.788C177.406 206.092 177.052 205.6 176.476 205.312C175.9 205.024 174.988 204.88 173.74 204.88H170.788C169.072 204.856 167.872 205.18 167.188 205.852C166.516 206.512 166.18 207.706 166.18 209.434V213.502C166.18 215.218 166.516 216.418 167.188 217.102C167.872 217.774 169.072 218.11 170.788 218.11H173.74C174.988 218.11 175.9 217.966 176.476 217.678C177.052 217.39 177.406 216.892 177.538 216.184C177.61 215.896 177.718 215.68 177.862 215.536C178.006 215.38 178.222 215.302 178.51 215.302C178.822 215.302 179.062 215.392 179.23 215.572C179.41 215.74 179.482 215.98 179.446 216.292C179.266 217.564 178.708 218.5 177.772 219.1C176.848 219.7 175.504 220 173.74 220H170.788ZM189.697 220C187.825 220 186.451 219.568 185.575 218.704C184.711 217.828 184.279 216.454 184.279 214.582C184.279 212.71 184.717 211.336 185.593 210.46C186.469 209.584 187.837 209.146 189.697 209.146H197.887C197.863 207.562 197.503 206.458 196.807 205.834C196.123 205.198 194.953 204.88 193.297 204.88H191.209C189.685 204.88 188.569 205.042 187.861 205.366C187.153 205.69 186.715 206.242 186.547 207.022C186.463 207.322 186.349 207.544 186.205 207.688C186.073 207.82 185.857 207.886 185.557 207.886C185.245 207.886 184.999 207.802 184.819 207.634C184.651 207.454 184.591 207.214 184.639 206.914C184.795 205.546 185.413 204.55 186.493 203.926C187.585 203.302 189.157 202.99 191.209 202.99H193.297C195.541 202.99 197.179 203.512 198.211 204.556C199.255 205.588 199.777 207.226 199.777 209.47V219.046C199.777 219.682 199.465 220 198.841 220C198.205 220 197.887 219.682 197.887 219.046V217.264C196.735 219.088 194.677 220 191.713 220H189.697ZM189.697 218.11H191.713C192.877 218.11 193.897 217.984 194.773 217.732C195.661 217.468 196.375 217.048 196.915 216.472C197.455 215.896 197.779 215.128 197.887 214.168V211.036H189.697C188.365 211.036 187.441 211.294 186.925 211.81C186.421 212.314 186.169 213.238 186.169 214.582C186.169 215.914 186.421 216.838 186.925 217.354C187.441 217.858 188.365 218.11 189.697 218.11ZM212.202 220C209.958 220 208.314 219.478 207.27 218.434C206.226 217.39 205.704 215.746 205.704 213.502V209.47C205.704 207.226 206.226 205.588 207.27 204.556C208.314 203.512 209.958 202.99 212.202 202.99H219.744V195.97C219.744 195.346 220.062 195.034 220.698 195.034C221.322 195.034 221.634 195.346 221.634 195.97V219.046C221.634 219.682 221.322 220 220.698 220C220.062 220 219.744 219.682 219.744 219.046V217.498C219.228 218.326 218.472 218.95 217.476 219.37C216.48 219.79 215.178 220 213.57 220H212.202ZM212.202 218.11H213.57C215.442 218.11 216.936 217.816 218.052 217.228C219.18 216.628 219.744 215.734 219.744 214.546V204.88H212.202C210.486 204.88 209.286 205.222 208.602 205.906C207.93 206.578 207.594 207.766 207.594 209.47V213.502C207.594 215.218 207.93 216.418 208.602 217.102C209.286 217.774 210.486 218.11 212.202 218.11ZM229.461 212.224V213.538C229.461 215.23 229.797 216.418 230.469 217.102C231.153 217.774 232.353 218.11 234.069 218.11H237.021C238.533 218.11 239.631 217.918 240.315 217.534C241.011 217.138 241.425 216.46 241.557 215.5C241.605 215.2 241.701 214.972 241.845 214.816C242.001 214.66 242.235 214.582 242.547 214.582C242.859 214.582 243.093 214.672 243.249 214.852C243.417 215.02 243.483 215.26 243.447 215.572C243.291 217.084 242.685 218.2 241.629 218.92C240.573 219.64 239.037 220 237.021 220H234.069C231.825 220 230.181 219.484 229.137 218.452C228.093 217.408 227.571 215.77 227.571 213.538V209.47C227.571 207.202 228.093 205.552 229.137 204.52C230.181 203.476 231.825 202.966 234.069 202.99H237.021C239.265 202.99 240.903 203.512 241.935 204.556C242.979 205.588 243.501 207.226 243.501 209.47V211.27C243.501 211.906 243.189 212.224 242.565 212.224H229.461ZM234.069 204.88C232.353 204.856 231.153 205.186 230.469 205.87C229.797 206.542 229.461 207.742 229.461 209.47V210.334H241.611V209.47C241.611 207.754 241.275 206.56 240.603 205.888C239.931 205.216 238.737 204.88 237.021 204.88H234.069ZM268.811 202.954C270.743 202.954 272.123 203.446 272.951 204.43C273.791 205.414 274.211 207.04 274.211 209.308V219.082C274.211 219.706 273.899 220.018 273.275 220.018C272.639 220.018 272.321 219.706 272.321 219.082V209.308C272.321 207.724 272.051 206.584 271.511 205.888C270.971 205.192 270.071 204.844 268.811 204.844H267.317C265.745 204.844 264.617 205.192 263.933 205.888C263.261 206.584 262.925 207.724 262.925 209.308V219.082C262.925 219.706 262.613 220.018 261.989 220.018C261.353 220.018 261.035 219.706 261.035 219.082V209.308C261.035 207.724 260.765 206.584 260.225 205.888C259.685 205.192 258.785 204.844 257.525 204.844H256.031C254.459 204.844 253.331 205.192 252.647 205.888C251.975 206.584 251.639 207.724 251.639 209.308V219.082C251.639 219.706 251.327 220.018 250.703 220.018C250.067 220.018 249.749 219.706 249.749 219.082V203.926C249.749 203.302 250.067 202.99 250.703 202.99C251.327 202.99 251.639 203.302 251.639 203.926V205.33C252.167 204.478 252.791 203.872 253.511 203.512C254.243 203.14 255.167 202.954 256.283 202.954H257.525C258.785 202.954 259.793 203.176 260.549 203.62C261.317 204.052 261.923 204.766 262.367 205.762C262.895 204.766 263.543 204.052 264.311 203.62C265.079 203.176 266.081 202.954 267.317 202.954H268.811ZM281.156 199.714C280.328 199.714 279.914 199.288 279.914 198.436V197.626C279.914 196.798 280.328 196.384 281.156 196.384H281.966C282.77 196.384 283.172 196.798 283.172 197.626V198.436C283.172 199.288 282.77 199.714 281.966 199.714H281.156ZM281.57 220C280.934 220 280.616 219.682 280.616 219.046V203.926C280.616 203.302 280.934 202.99 281.57 202.99C282.194 202.99 282.506 203.302 282.506 203.926V219.046C282.506 219.682 282.194 220 281.57 220ZM295.241 220C292.997 220 291.353 219.478 290.309 218.434C289.265 217.39 288.743 215.746 288.743 213.502V209.434C288.743 207.19 289.259 205.552 290.291 204.52C291.335 203.476 292.985 202.966 295.241 202.99H298.193C299.957 202.99 301.301 203.29 302.225 203.89C303.161 204.478 303.719 205.408 303.899 206.68C303.935 207.004 303.863 207.25 303.683 207.418C303.515 207.586 303.275 207.67 302.963 207.67C302.675 207.67 302.459 207.598 302.315 207.454C302.171 207.298 302.063 207.076 301.991 206.788C301.859 206.092 301.505 205.6 300.929 205.312C300.353 205.024 299.441 204.88 298.193 204.88H295.241C293.525 204.856 292.325 205.18 291.641 205.852C290.969 206.512 290.633 207.706 290.633 209.434V213.502C290.633 215.218 290.969 216.418 291.641 217.102C292.325 217.774 293.525 218.11 295.241 218.11H298.193C299.441 218.11 300.353 217.966 300.929 217.678C301.505 217.39 301.859 216.892 301.991 216.184C302.063 215.896 302.171 215.68 302.315 215.536C302.459 215.38 302.675 215.302 302.963 215.302C303.275 215.302 303.515 215.392 303.683 215.572C303.863 215.74 303.935 215.98 303.899 216.292C303.719 217.564 303.161 218.5 302.225 219.1C301.301 219.7 299.957 220 298.193 220H295.241ZM323.799 220C323.343 220 323.037 219.754 322.881 219.262L315.987 198.058C315.891 197.782 315.927 197.506 316.095 197.23C316.263 196.942 316.527 196.798 316.887 196.798C317.091 196.798 317.271 196.858 317.427 196.978C317.595 197.086 317.709 197.254 317.769 197.482L324.177 217.174H323.655L329.721 197.536C329.805 197.272 329.949 197.08 330.153 196.96C330.369 196.84 330.591 196.78 330.819 196.78C331.059 196.78 331.287 196.84 331.503 196.96C331.719 197.08 331.857 197.272 331.917 197.536L337.983 217.174H337.461L343.869 197.482C343.953 197.254 344.067 197.086 344.211 196.978C344.367 196.858 344.547 196.798 344.751 196.798C345.159 196.798 345.435 196.936 345.579 197.212C345.735 197.488 345.765 197.77 345.669 198.058L338.757 219.262C338.601 219.754 338.271 220 337.767 220H337.695C337.179 220 336.849 219.754 336.705 219.262L330.531 199.426H331.053L324.879 219.262C324.795 219.562 324.663 219.76 324.483 219.856C324.303 219.952 324.075 220 323.799 220ZM349.843 220C349.207 220 348.889 219.682 348.889 219.046V203.926C348.889 203.302 349.207 202.99 349.843 202.99C350.467 202.99 350.779 203.302 350.779 203.926V206.698C351.403 205.498 352.303 204.58 353.479 203.944C354.667 203.308 356.071 202.99 357.691 202.99C358.327 202.99 358.645 203.302 358.645 203.926C358.645 204.562 358.327 204.88 357.691 204.88C355.555 204.88 353.899 205.366 352.723 206.338C351.547 207.298 350.899 208.672 350.779 210.46V219.046C350.779 219.682 350.467 220 349.843 220ZM363 199.714C362.172 199.714 361.758 199.288 361.758 198.436V197.626C361.758 196.798 362.172 196.384 363 196.384H363.81C364.614 196.384 365.016 196.798 365.016 197.626V198.436C365.016 199.288 364.614 199.714 363.81 199.714H363ZM363.414 220C362.778 220 362.46 219.682 362.46 219.046V203.926C362.46 203.302 362.778 202.99 363.414 202.99C364.038 202.99 364.35 203.302 364.35 203.926V219.046C364.35 219.682 364.038 220 363.414 220ZM378.021 220C375.813 220 374.199 219.49 373.179 218.47C372.159 217.45 371.649 215.842 371.649 213.646V204.88H369.507C368.871 204.88 368.553 204.562 368.553 203.926C368.553 203.302 368.871 202.99 369.507 202.99H371.649V199.12C371.649 198.484 371.961 198.166 372.585 198.166C373.221 198.166 373.539 198.484 373.539 199.12V202.99H378.057C378.681 202.99 378.993 203.302 378.993 203.926C378.993 204.562 378.681 204.88 378.057 204.88H373.539V213.646C373.539 215.326 373.863 216.49 374.511 217.138C375.171 217.786 376.341 218.11 378.021 218.11C378.369 218.11 378.615 218.188 378.759 218.344C378.915 218.5 378.993 218.734 378.993 219.046C378.993 219.682 378.669 220 378.021 220ZM384.515 199.714C383.687 199.714 383.273 199.288 383.273 198.436V197.626C383.273 196.798 383.687 196.384 384.515 196.384H385.325C386.129 196.384 386.531 196.798 386.531 197.626V198.436C386.531 199.288 386.129 199.714 385.325 199.714H384.515ZM384.929 220C384.293 220 383.975 219.682 383.975 219.046V203.926C383.975 203.302 384.293 202.99 384.929 202.99C385.553 202.99 385.865 203.302 385.865 203.926V219.046C385.865 219.682 385.553 220 384.929 220ZM393.543 220C392.907 220 392.589 219.682 392.589 219.046V203.926C392.589 203.302 392.907 202.99 393.543 202.99C394.167 202.99 394.479 203.302 394.479 203.926V205.654C395.619 203.878 397.683 202.99 400.671 202.99H401.679C403.923 202.99 405.561 203.512 406.593 204.556C407.637 205.588 408.159 207.226 408.159 209.47V219.046C408.159 219.682 407.847 220 407.223 220C406.587 220 406.269 219.682 406.269 219.046V209.47C406.269 207.754 405.927 206.56 405.243 205.888C404.571 205.216 403.383 204.88 401.679 204.88H400.671C398.811 204.88 397.347 205.174 396.279 205.762C395.211 206.35 394.611 207.268 394.479 208.516V219.046C394.479 219.682 394.167 220 393.543 220ZM418.701 227.2C417.285 227.2 416.205 226.906 415.461 226.318C414.717 225.742 414.279 224.83 414.147 223.582C414.111 223.27 414.177 223.024 414.345 222.844C414.513 222.664 414.747 222.574 415.047 222.574C415.347 222.574 415.575 222.652 415.731 222.808C415.887 222.964 415.989 223.198 416.037 223.51C416.121 224.206 416.367 224.68 416.775 224.932C417.183 225.184 417.825 225.31 418.701 225.31H425.397C426.453 225.31 427.167 225.118 427.539 224.734C427.923 224.35 428.115 223.63 428.115 222.574V217.426C427.563 218.266 426.783 218.908 425.775 219.352C424.767 219.784 423.489 220 421.941 220H420.573C418.329 220 416.685 219.484 415.641 218.452C414.597 217.408 414.075 215.77 414.075 213.538V209.47C414.075 207.202 414.591 205.558 415.623 204.538C416.667 203.506 418.317 202.99 420.573 202.99H423.525C424.701 202.99 425.655 203.146 426.387 203.458C427.119 203.77 427.695 204.256 428.115 204.916V203.926C428.115 203.302 428.433 202.99 429.069 202.99C429.693 202.99 430.005 203.302 430.005 203.926V222.574C430.005 224.158 429.633 225.322 428.889 226.066C428.145 226.822 426.981 227.2 425.397 227.2H418.701ZM420.573 218.11H421.941C423.813 218.11 425.307 217.816 426.423 217.228C427.551 216.64 428.115 215.746 428.115 214.546V208.534C428.115 207.178 427.737 206.23 426.981 205.69C426.225 205.15 425.073 204.88 423.525 204.88H420.573C418.857 204.88 417.657 205.216 416.973 205.888C416.301 206.548 415.965 207.742 415.965 209.47V213.538C415.965 215.23 416.301 216.418 416.973 217.102C417.657 217.774 418.857 218.11 420.573 218.11Z"
              fill="white"/>
    </g>
    <defs>
        <filter id="filter0_d_15_245" x="205.36" y="114.1" width="179.951" height="69.64" filterUnits="userSpaceOnUse"
                color-interpolation-filters="sRGB">
            <feFlood flood-opacity="0" result="BackgroundImageFix"/>
            <feColorMatrix in="SourceAlpha" type="matrix" values="0 0 0 0 0 0 0 0 0 0 0 0 0 0 0 0 0 0 127 0"
                           result="hardAlpha"/>
            <feOffset dy="4"/>
            <feGaussianBlur stdDeviation="2"/>
            <feComposite in2="hardAlpha" operator="out"/>
            <feColorMatrix type="matrix" values="0 0 0 0 0 0 0 0 0 0 0 0 0 0 0 0 0 0 0.25 0"/>
            <feBlend mode="normal" in2="BackgroundImageFix" result="effect1_dropShadow_15_245"/>
            <feBlend mode="normal" in="SourceGraphic" in2="effect1_dropShadow_15_245" result="shape"/>
        </filter>
        <filter id="filter1_d_15_245" x="136.684" y="195.034" width="297.321" height="40.166"
                filterUnits="userSpaceOnUse" color-interpolation-filters="sRGB">
            <feFlood flood-opacity="0" result="BackgroundImageFix"/>
            <feColorMatrix in="SourceAlpha" type="matrix" values="0 0 0 0 0 0 0 0 0 0 0 0 0 0 0 0 0 0 127 0"
                           result="hardAlpha"/>
            <feOffset dy="4"/>
            <feGaussianBlur stdDeviation="2"/>
            <feComposite in2="hardAlpha" operator="out"/>
            <feColorMatrix type="matrix" values="0 0 0 0 0 0 0 0 0 0 0 0 0 0 0 0 0 0 0.25 0"/>
            <feBlend mode="normal" in2="BackgroundImageFix" result="effect1_dropShadow_15_245"/>
            <feBlend mode="normal" in="SourceGraphic" in2="effect1_dropShadow_15_245" result="shape"/>
        </filter>
    </defs>
</svg>
