<svg width="570" height="352" viewBox="0 0 570 352" fill="none" xmlns="http://www.w3.org/2000/svg">
    <rect x="0.5" y="0.5" width="569" height="351" rx="19.5" fill="#96DED6"/>
    <rect x="0.5" y="0.5" width="569" height="351" rx="19.5" stroke="#BDBDBD"/>
    <g filter="url(#filter0_d_15_277)">
        <path d="M197.36 111.1H203.055V158H197.36V111.1ZM200.509 116.46V111.1H210.09C213.127 111.1 215.83 111.681 218.197 112.842C220.609 113.959 222.507 115.567 223.892 117.666C225.321 119.765 226.036 122.267 226.036 125.17C226.036 128.029 225.321 130.53 223.892 132.674C222.507 134.773 220.609 136.404 218.197 137.565C215.83 138.682 213.127 139.24 210.09 139.24H200.509V133.88H210.09C213.127 133.88 215.584 133.143 217.46 131.669C219.381 130.195 220.341 128.029 220.341 125.17C220.341 122.267 219.381 120.1 217.46 118.671C215.584 117.197 213.127 116.46 210.09 116.46H200.509ZM234.115 148.486C234.115 149.647 234.383 150.652 234.919 151.501C235.499 152.35 236.281 152.997 237.264 153.444C238.291 153.846 239.452 154.047 240.748 154.047C242.4 154.047 243.874 153.712 245.17 153.042C246.51 152.372 247.559 151.434 248.319 150.228C249.123 148.977 249.525 147.548 249.525 145.94L250.597 149.96C250.597 151.925 249.994 153.556 248.788 154.851C247.626 156.146 246.175 157.107 244.433 157.732C242.735 158.357 241.038 158.67 239.341 158.67C237.465 158.67 235.7 158.29 234.048 157.531C232.44 156.727 231.144 155.588 230.162 154.114C229.179 152.64 228.688 150.853 228.688 148.754C228.688 145.761 229.737 143.372 231.837 141.585C233.981 139.754 236.951 138.838 240.748 138.838C242.981 138.838 244.835 139.106 246.309 139.642C247.827 140.133 249.033 140.714 249.927 141.384C250.82 142.009 251.423 142.523 251.736 142.925V146.074C250.172 145.002 248.564 144.243 246.912 143.796C245.259 143.305 243.495 143.059 241.619 143.059C239.877 143.059 238.447 143.282 237.331 143.729C236.259 144.176 235.455 144.801 234.919 145.605C234.383 146.409 234.115 147.369 234.115 148.486ZM233.311 134.282L230.698 130.329C231.859 129.48 233.445 128.632 235.455 127.783C237.509 126.934 239.966 126.51 242.825 126.51C245.237 126.51 247.336 126.89 249.123 127.649C250.954 128.364 252.361 129.413 253.344 130.798C254.371 132.183 254.885 133.88 254.885 135.89V158H249.525V136.627C249.525 135.555 249.346 134.684 248.989 134.014C248.631 133.299 248.118 132.741 247.448 132.339C246.822 131.937 246.085 131.647 245.237 131.468C244.388 131.289 243.495 131.2 242.557 131.2C241.038 131.2 239.653 131.379 238.403 131.736C237.197 132.093 236.169 132.518 235.321 133.009C234.472 133.5 233.802 133.925 233.311 134.282ZM268.985 172.74H263.625V127.18H268.985V172.74ZM294.78 142.59C294.78 145.895 294.087 148.754 292.703 151.166C291.318 153.578 289.464 155.432 287.142 156.727C284.864 158.022 282.318 158.67 279.504 158.67C276.958 158.67 274.702 158.022 272.737 156.727C270.816 155.432 269.297 153.578 268.181 151.166C267.109 148.754 266.573 145.895 266.573 142.59C266.573 139.24 267.109 136.381 268.181 134.014C269.297 131.602 270.816 129.748 272.737 128.453C274.702 127.158 276.958 126.51 279.504 126.51C282.318 126.51 284.864 127.158 287.142 128.453C289.464 129.748 291.318 131.602 292.703 134.014C294.087 136.381 294.78 139.24 294.78 142.59ZM289.353 142.59C289.353 140.223 288.861 138.213 287.879 136.56C286.941 134.907 285.668 133.657 284.06 132.808C282.496 131.959 280.754 131.535 278.834 131.535C277.27 131.535 275.729 131.959 274.211 132.808C272.692 133.657 271.441 134.907 270.459 136.56C269.476 138.213 268.985 140.223 268.985 142.59C268.985 144.957 269.476 146.967 270.459 148.62C271.441 150.273 272.692 151.523 274.211 152.372C275.729 153.221 277.27 153.645 278.834 153.645C280.754 153.645 282.496 153.221 284.06 152.372C285.668 151.523 286.941 150.273 287.879 148.62C288.861 146.967 289.353 144.957 289.353 142.59ZM314.097 158.67C311.238 158.67 308.692 158 306.459 156.66C304.27 155.275 302.55 153.377 301.3 150.965C300.094 148.553 299.491 145.761 299.491 142.59C299.491 139.374 300.116 136.56 301.367 134.148C302.662 131.736 304.449 129.86 306.727 128.52C309.049 127.18 311.729 126.51 314.767 126.51C317.804 126.51 320.395 127.158 322.539 128.453C324.727 129.704 326.402 131.513 327.564 133.88C328.725 136.247 329.306 139.061 329.306 142.322C329.306 142.635 329.283 142.97 329.239 143.327C329.239 143.64 329.239 143.841 329.239 143.93H302.908V139.374H325.018L322.874 142.456C323.008 142.233 323.142 141.898 323.276 141.451C323.41 140.96 323.477 140.558 323.477 140.245C323.477 138.414 323.097 136.828 322.338 135.488C321.623 134.148 320.618 133.098 319.323 132.339C318.027 131.58 316.509 131.2 314.767 131.2C312.712 131.2 310.948 131.647 309.474 132.54C308.044 133.389 306.928 134.639 306.124 136.292C305.364 137.9 304.962 139.888 304.918 142.255C304.918 144.667 305.297 146.722 306.057 148.419C306.816 150.116 307.933 151.412 309.407 152.305C310.881 153.198 312.667 153.645 314.767 153.645C316.866 153.645 318.72 153.198 320.328 152.305C321.936 151.367 323.298 149.96 324.415 148.084L328.77 150.831C327.162 153.422 325.129 155.387 322.673 156.727C320.261 158.022 317.402 158.67 314.097 158.67ZM342.012 127.18V158H336.652V127.18H342.012ZM351.325 133.076C350.61 132.54 349.963 132.16 349.382 131.937C348.801 131.669 348.064 131.535 347.171 131.535C345.831 131.535 344.781 131.87 344.022 132.54C343.263 133.21 342.727 134.126 342.414 135.287C342.146 136.448 342.012 137.766 342.012 139.24H339.6C339.6 136.783 340.024 134.617 340.873 132.741C341.766 130.82 342.905 129.302 344.29 128.185C345.675 127.068 347.082 126.51 348.511 126.51C349.628 126.51 350.655 126.666 351.593 126.979C352.576 127.247 353.469 127.805 354.273 128.654L351.325 133.076ZM360.891 148.553C361.516 149.491 362.231 150.362 363.035 151.166C363.839 151.97 364.754 152.618 365.782 153.109C366.854 153.556 368.015 153.779 369.266 153.779C370.784 153.779 371.968 153.444 372.817 152.774C373.71 152.059 374.157 151.099 374.157 149.893C374.157 148.821 373.799 147.928 373.085 147.213C372.415 146.454 371.544 145.828 370.472 145.337C369.4 144.801 368.261 144.31 367.055 143.863C365.715 143.327 364.352 142.702 362.968 141.987C361.628 141.228 360.489 140.267 359.551 139.106C358.657 137.9 358.211 136.404 358.211 134.617C358.211 132.786 358.68 131.267 359.618 130.061C360.6 128.855 361.851 127.962 363.37 127.381C364.933 126.8 366.541 126.51 368.194 126.51C369.846 126.51 371.387 126.778 372.817 127.314C374.291 127.85 375.586 128.565 376.703 129.458C377.819 130.351 378.69 131.379 379.316 132.54L375.028 135.287C374.179 134.126 373.107 133.165 371.812 132.406C370.561 131.647 369.132 131.267 367.524 131.267C366.407 131.267 365.447 131.513 364.643 132.004C363.839 132.495 363.437 133.255 363.437 134.282C363.437 135.086 363.749 135.801 364.375 136.426C365 137.051 365.804 137.61 366.787 138.101C367.769 138.592 368.797 139.061 369.869 139.508C371.655 140.223 373.286 141.004 374.76 141.853C376.234 142.657 377.395 143.64 378.244 144.801C379.137 145.962 379.584 147.459 379.584 149.29C379.584 151.97 378.601 154.203 376.636 155.99C374.715 157.777 372.169 158.67 368.998 158.67C366.943 158.67 365.089 158.313 363.437 157.598C361.784 156.839 360.377 155.878 359.216 154.717C358.099 153.556 357.25 152.372 356.67 151.166L360.891 148.553Z"
              fill="white"/>
    </g>
    <g filter="url(#filter1_d_15_277)">
        <path d="M141.548 217.91C140.972 217.658 140.798 217.238 141.026 216.65L149.954 195.536C150.146 195.044 150.5 194.798 151.016 194.798H151.124C151.616 194.81 151.964 195.056 152.168 195.536L161.096 216.65C161.336 217.238 161.168 217.658 160.592 217.91C160.004 218.15 159.596 217.982 159.368 217.406L156.974 211.736H145.184L142.79 217.406C142.55 217.982 142.136 218.15 141.548 217.91ZM145.958 209.846H156.182L151.07 197.786L145.958 209.846ZM170.788 218C168.544 218 166.9 217.478 165.856 216.434C164.812 215.39 164.29 213.746 164.29 211.502V207.434C164.29 205.19 164.806 203.552 165.838 202.52C166.882 201.476 168.532 200.966 170.788 200.99H173.74C175.504 200.99 176.848 201.29 177.772 201.89C178.708 202.478 179.266 203.408 179.446 204.68C179.482 205.004 179.41 205.25 179.23 205.418C179.062 205.586 178.822 205.67 178.51 205.67C178.222 205.67 178.006 205.598 177.862 205.454C177.718 205.298 177.61 205.076 177.538 204.788C177.406 204.092 177.052 203.6 176.476 203.312C175.9 203.024 174.988 202.88 173.74 202.88H170.788C169.072 202.856 167.872 203.18 167.188 203.852C166.516 204.512 166.18 205.706 166.18 207.434V211.502C166.18 213.218 166.516 214.418 167.188 215.102C167.872 215.774 169.072 216.11 170.788 216.11H173.74C174.988 216.11 175.9 215.966 176.476 215.678C177.052 215.39 177.406 214.892 177.538 214.184C177.61 213.896 177.718 213.68 177.862 213.536C178.006 213.38 178.222 213.302 178.51 213.302C178.822 213.302 179.062 213.392 179.23 213.572C179.41 213.74 179.482 213.98 179.446 214.292C179.266 215.564 178.708 216.5 177.772 217.1C176.848 217.7 175.504 218 173.74 218H170.788ZM189.697 218C187.825 218 186.451 217.568 185.575 216.704C184.711 215.828 184.279 214.454 184.279 212.582C184.279 210.71 184.717 209.336 185.593 208.46C186.469 207.584 187.837 207.146 189.697 207.146H197.887C197.863 205.562 197.503 204.458 196.807 203.834C196.123 203.198 194.953 202.88 193.297 202.88H191.209C189.685 202.88 188.569 203.042 187.861 203.366C187.153 203.69 186.715 204.242 186.547 205.022C186.463 205.322 186.349 205.544 186.205 205.688C186.073 205.82 185.857 205.886 185.557 205.886C185.245 205.886 184.999 205.802 184.819 205.634C184.651 205.454 184.591 205.214 184.639 204.914C184.795 203.546 185.413 202.55 186.493 201.926C187.585 201.302 189.157 200.99 191.209 200.99H193.297C195.541 200.99 197.179 201.512 198.211 202.556C199.255 203.588 199.777 205.226 199.777 207.47V217.046C199.777 217.682 199.465 218 198.841 218C198.205 218 197.887 217.682 197.887 217.046V215.264C196.735 217.088 194.677 218 191.713 218H189.697ZM189.697 216.11H191.713C192.877 216.11 193.897 215.984 194.773 215.732C195.661 215.468 196.375 215.048 196.915 214.472C197.455 213.896 197.779 213.128 197.887 212.168V209.036H189.697C188.365 209.036 187.441 209.294 186.925 209.81C186.421 210.314 186.169 211.238 186.169 212.582C186.169 213.914 186.421 214.838 186.925 215.354C187.441 215.858 188.365 216.11 189.697 216.11ZM212.202 218C209.958 218 208.314 217.478 207.27 216.434C206.226 215.39 205.704 213.746 205.704 211.502V207.47C205.704 205.226 206.226 203.588 207.27 202.556C208.314 201.512 209.958 200.99 212.202 200.99H219.744V193.97C219.744 193.346 220.062 193.034 220.698 193.034C221.322 193.034 221.634 193.346 221.634 193.97V217.046C221.634 217.682 221.322 218 220.698 218C220.062 218 219.744 217.682 219.744 217.046V215.498C219.228 216.326 218.472 216.95 217.476 217.37C216.48 217.79 215.178 218 213.57 218H212.202ZM212.202 216.11H213.57C215.442 216.11 216.936 215.816 218.052 215.228C219.18 214.628 219.744 213.734 219.744 212.546V202.88H212.202C210.486 202.88 209.286 203.222 208.602 203.906C207.93 204.578 207.594 205.766 207.594 207.47V211.502C207.594 213.218 207.93 214.418 208.602 215.102C209.286 215.774 210.486 216.11 212.202 216.11ZM229.461 210.224V211.538C229.461 213.23 229.797 214.418 230.469 215.102C231.153 215.774 232.353 216.11 234.069 216.11H237.021C238.533 216.11 239.631 215.918 240.315 215.534C241.011 215.138 241.425 214.46 241.557 213.5C241.605 213.2 241.701 212.972 241.845 212.816C242.001 212.66 242.235 212.582 242.547 212.582C242.859 212.582 243.093 212.672 243.249 212.852C243.417 213.02 243.483 213.26 243.447 213.572C243.291 215.084 242.685 216.2 241.629 216.92C240.573 217.64 239.037 218 237.021 218H234.069C231.825 218 230.181 217.484 229.137 216.452C228.093 215.408 227.571 213.77 227.571 211.538V207.47C227.571 205.202 228.093 203.552 229.137 202.52C230.181 201.476 231.825 200.966 234.069 200.99H237.021C239.265 200.99 240.903 201.512 241.935 202.556C242.979 203.588 243.501 205.226 243.501 207.47V209.27C243.501 209.906 243.189 210.224 242.565 210.224H229.461ZM234.069 202.88C232.353 202.856 231.153 203.186 230.469 203.87C229.797 204.542 229.461 205.742 229.461 207.47V208.334H241.611V207.47C241.611 205.754 241.275 204.56 240.603 203.888C239.931 203.216 238.737 202.88 237.021 202.88H234.069ZM268.811 200.954C270.743 200.954 272.123 201.446 272.951 202.43C273.791 203.414 274.211 205.04 274.211 207.308V217.082C274.211 217.706 273.899 218.018 273.275 218.018C272.639 218.018 272.321 217.706 272.321 217.082V207.308C272.321 205.724 272.051 204.584 271.511 203.888C270.971 203.192 270.071 202.844 268.811 202.844H267.317C265.745 202.844 264.617 203.192 263.933 203.888C263.261 204.584 262.925 205.724 262.925 207.308V217.082C262.925 217.706 262.613 218.018 261.989 218.018C261.353 218.018 261.035 217.706 261.035 217.082V207.308C261.035 205.724 260.765 204.584 260.225 203.888C259.685 203.192 258.785 202.844 257.525 202.844H256.031C254.459 202.844 253.331 203.192 252.647 203.888C251.975 204.584 251.639 205.724 251.639 207.308V217.082C251.639 217.706 251.327 218.018 250.703 218.018C250.067 218.018 249.749 217.706 249.749 217.082V201.926C249.749 201.302 250.067 200.99 250.703 200.99C251.327 200.99 251.639 201.302 251.639 201.926V203.33C252.167 202.478 252.791 201.872 253.511 201.512C254.243 201.14 255.167 200.954 256.283 200.954H257.525C258.785 200.954 259.793 201.176 260.549 201.62C261.317 202.052 261.923 202.766 262.367 203.762C262.895 202.766 263.543 202.052 264.311 201.62C265.079 201.176 266.081 200.954 267.317 200.954H268.811ZM281.156 197.714C280.328 197.714 279.914 197.288 279.914 196.436V195.626C279.914 194.798 280.328 194.384 281.156 194.384H281.966C282.77 194.384 283.172 194.798 283.172 195.626V196.436C283.172 197.288 282.77 197.714 281.966 197.714H281.156ZM281.57 218C280.934 218 280.616 217.682 280.616 217.046V201.926C280.616 201.302 280.934 200.99 281.57 200.99C282.194 200.99 282.506 201.302 282.506 201.926V217.046C282.506 217.682 282.194 218 281.57 218ZM295.241 218C292.997 218 291.353 217.478 290.309 216.434C289.265 215.39 288.743 213.746 288.743 211.502V207.434C288.743 205.19 289.259 203.552 290.291 202.52C291.335 201.476 292.985 200.966 295.241 200.99H298.193C299.957 200.99 301.301 201.29 302.225 201.89C303.161 202.478 303.719 203.408 303.899 204.68C303.935 205.004 303.863 205.25 303.683 205.418C303.515 205.586 303.275 205.67 302.963 205.67C302.675 205.67 302.459 205.598 302.315 205.454C302.171 205.298 302.063 205.076 301.991 204.788C301.859 204.092 301.505 203.6 300.929 203.312C300.353 203.024 299.441 202.88 298.193 202.88H295.241C293.525 202.856 292.325 203.18 291.641 203.852C290.969 204.512 290.633 205.706 290.633 207.434V211.502C290.633 213.218 290.969 214.418 291.641 215.102C292.325 215.774 293.525 216.11 295.241 216.11H298.193C299.441 216.11 300.353 215.966 300.929 215.678C301.505 215.39 301.859 214.892 301.991 214.184C302.063 213.896 302.171 213.68 302.315 213.536C302.459 213.38 302.675 213.302 302.963 213.302C303.275 213.302 303.515 213.392 303.683 213.572C303.863 213.74 303.935 213.98 303.899 214.292C303.719 215.564 303.161 216.5 302.225 217.1C301.301 217.7 299.957 218 298.193 218H295.241ZM323.799 218C323.343 218 323.037 217.754 322.881 217.262L315.987 196.058C315.891 195.782 315.927 195.506 316.095 195.23C316.263 194.942 316.527 194.798 316.887 194.798C317.091 194.798 317.271 194.858 317.427 194.978C317.595 195.086 317.709 195.254 317.769 195.482L324.177 215.174H323.655L329.721 195.536C329.805 195.272 329.949 195.08 330.153 194.96C330.369 194.84 330.591 194.78 330.819 194.78C331.059 194.78 331.287 194.84 331.503 194.96C331.719 195.08 331.857 195.272 331.917 195.536L337.983 215.174H337.461L343.869 195.482C343.953 195.254 344.067 195.086 344.211 194.978C344.367 194.858 344.547 194.798 344.751 194.798C345.159 194.798 345.435 194.936 345.579 195.212C345.735 195.488 345.765 195.77 345.669 196.058L338.757 217.262C338.601 217.754 338.271 218 337.767 218H337.695C337.179 218 336.849 217.754 336.705 217.262L330.531 197.426H331.053L324.879 217.262C324.795 217.562 324.663 217.76 324.483 217.856C324.303 217.952 324.075 218 323.799 218ZM349.843 218C349.207 218 348.889 217.682 348.889 217.046V201.926C348.889 201.302 349.207 200.99 349.843 200.99C350.467 200.99 350.779 201.302 350.779 201.926V204.698C351.403 203.498 352.303 202.58 353.479 201.944C354.667 201.308 356.071 200.99 357.691 200.99C358.327 200.99 358.645 201.302 358.645 201.926C358.645 202.562 358.327 202.88 357.691 202.88C355.555 202.88 353.899 203.366 352.723 204.338C351.547 205.298 350.899 206.672 350.779 208.46V217.046C350.779 217.682 350.467 218 349.843 218ZM363 197.714C362.172 197.714 361.758 197.288 361.758 196.436V195.626C361.758 194.798 362.172 194.384 363 194.384H363.81C364.614 194.384 365.016 194.798 365.016 195.626V196.436C365.016 197.288 364.614 197.714 363.81 197.714H363ZM363.414 218C362.778 218 362.46 217.682 362.46 217.046V201.926C362.46 201.302 362.778 200.99 363.414 200.99C364.038 200.99 364.35 201.302 364.35 201.926V217.046C364.35 217.682 364.038 218 363.414 218ZM378.021 218C375.813 218 374.199 217.49 373.179 216.47C372.159 215.45 371.649 213.842 371.649 211.646V202.88H369.507C368.871 202.88 368.553 202.562 368.553 201.926C368.553 201.302 368.871 200.99 369.507 200.99H371.649V197.12C371.649 196.484 371.961 196.166 372.585 196.166C373.221 196.166 373.539 196.484 373.539 197.12V200.99H378.057C378.681 200.99 378.993 201.302 378.993 201.926C378.993 202.562 378.681 202.88 378.057 202.88H373.539V211.646C373.539 213.326 373.863 214.49 374.511 215.138C375.171 215.786 376.341 216.11 378.021 216.11C378.369 216.11 378.615 216.188 378.759 216.344C378.915 216.5 378.993 216.734 378.993 217.046C378.993 217.682 378.669 218 378.021 218ZM384.515 197.714C383.687 197.714 383.273 197.288 383.273 196.436V195.626C383.273 194.798 383.687 194.384 384.515 194.384H385.325C386.129 194.384 386.531 194.798 386.531 195.626V196.436C386.531 197.288 386.129 197.714 385.325 197.714H384.515ZM384.929 218C384.293 218 383.975 217.682 383.975 217.046V201.926C383.975 201.302 384.293 200.99 384.929 200.99C385.553 200.99 385.865 201.302 385.865 201.926V217.046C385.865 217.682 385.553 218 384.929 218ZM393.543 218C392.907 218 392.589 217.682 392.589 217.046V201.926C392.589 201.302 392.907 200.99 393.543 200.99C394.167 200.99 394.479 201.302 394.479 201.926V203.654C395.619 201.878 397.683 200.99 400.671 200.99H401.679C403.923 200.99 405.561 201.512 406.593 202.556C407.637 203.588 408.159 205.226 408.159 207.47V217.046C408.159 217.682 407.847 218 407.223 218C406.587 218 406.269 217.682 406.269 217.046V207.47C406.269 205.754 405.927 204.56 405.243 203.888C404.571 203.216 403.383 202.88 401.679 202.88H400.671C398.811 202.88 397.347 203.174 396.279 203.762C395.211 204.35 394.611 205.268 394.479 206.516V217.046C394.479 217.682 394.167 218 393.543 218ZM418.701 225.2C417.285 225.2 416.205 224.906 415.461 224.318C414.717 223.742 414.279 222.83 414.147 221.582C414.111 221.27 414.177 221.024 414.345 220.844C414.513 220.664 414.747 220.574 415.047 220.574C415.347 220.574 415.575 220.652 415.731 220.808C415.887 220.964 415.989 221.198 416.037 221.51C416.121 222.206 416.367 222.68 416.775 222.932C417.183 223.184 417.825 223.31 418.701 223.31H425.397C426.453 223.31 427.167 223.118 427.539 222.734C427.923 222.35 428.115 221.63 428.115 220.574V215.426C427.563 216.266 426.783 216.908 425.775 217.352C424.767 217.784 423.489 218 421.941 218H420.573C418.329 218 416.685 217.484 415.641 216.452C414.597 215.408 414.075 213.77 414.075 211.538V207.47C414.075 205.202 414.591 203.558 415.623 202.538C416.667 201.506 418.317 200.99 420.573 200.99H423.525C424.701 200.99 425.655 201.146 426.387 201.458C427.119 201.77 427.695 202.256 428.115 202.916V201.926C428.115 201.302 428.433 200.99 429.069 200.99C429.693 200.99 430.005 201.302 430.005 201.926V220.574C430.005 222.158 429.633 223.322 428.889 224.066C428.145 224.822 426.981 225.2 425.397 225.2H418.701ZM420.573 216.11H421.941C423.813 216.11 425.307 215.816 426.423 215.228C427.551 214.64 428.115 213.746 428.115 212.546V206.534C428.115 205.178 427.737 204.23 426.981 203.69C426.225 203.15 425.073 202.88 423.525 202.88H420.573C418.857 202.88 417.657 203.216 416.973 203.888C416.301 204.548 415.965 205.742 415.965 207.47V211.538C415.965 213.23 416.301 214.418 416.973 215.102C417.657 215.774 418.857 216.11 420.573 216.11Z"
              fill="white"/>
    </g>
    <defs>
        <filter id="filter0_d_15_277" x="193.36" y="111.1" width="190.224" height="69.64" filterUnits="userSpaceOnUse"
                color-interpolation-filters="sRGB">
            <feFlood flood-opacity="0" result="BackgroundImageFix"/>
            <feColorMatrix in="SourceAlpha" type="matrix" values="0 0 0 0 0 0 0 0 0 0 0 0 0 0 0 0 0 0 127 0"
                           result="hardAlpha"/>
            <feOffset dy="4"/>
            <feGaussianBlur stdDeviation="2"/>
            <feComposite in2="hardAlpha" operator="out"/>
            <feColorMatrix type="matrix" values="0 0 0 0 0 0 0 0 0 0 0 0 0 0 0 0 0 0 0.25 0"/>
            <feBlend mode="normal" in2="BackgroundImageFix" result="effect1_dropShadow_15_277"/>
            <feBlend mode="normal" in="SourceGraphic" in2="effect1_dropShadow_15_277" result="shape"/>
        </filter>
        <filter id="filter1_d_15_277" x="136.684" y="193.034" width="297.321" height="40.166"
                filterUnits="userSpaceOnUse" color-interpolation-filters="sRGB">
            <feFlood flood-opacity="0" result="BackgroundImageFix"/>
            <feColorMatrix in="SourceAlpha" type="matrix" values="0 0 0 0 0 0 0 0 0 0 0 0 0 0 0 0 0 0 127 0"
                           result="hardAlpha"/>
            <feOffset dy="4"/>
            <feGaussianBlur stdDeviation="2"/>
            <feComposite in2="hardAlpha" operator="out"/>
            <feColorMatrix type="matrix" values="0 0 0 0 0 0 0 0 0 0 0 0 0 0 0 0 0 0 0.25 0"/>
            <feBlend mode="normal" in2="BackgroundImageFix" result="effect1_dropShadow_15_277"/>
            <feBlend mode="normal" in="SourceGraphic" in2="effect1_dropShadow_15_277" result="shape"/>
        </filter>
    </defs>
</svg>
