<svg width="570" height="352" viewBox="0 0 570 352" fill="none" xmlns="http://www.w3.org/2000/svg">
    <rect x="0.5" y="0.5" width="569" height="351" rx="19.5" fill="#E4D2D1"/>
    <rect x="0.5" y="0.5" width="569" height="351" rx="19.5" stroke="#BDBDBD"/>
    <g filter="url(#filter0_d_15_261)">
        <path d="M82.36 111.1H88.055V158H82.36V111.1ZM85.509 116.46V111.1H95.09C98.1273 111.1 100.83 111.681 103.197 112.842C105.609 113.959 107.507 115.567 108.892 117.666C110.321 119.765 111.036 122.267 111.036 125.17C111.036 128.029 110.321 130.53 108.892 132.674C107.507 134.773 105.609 136.404 103.197 137.565C100.83 138.682 98.1273 139.24 95.09 139.24H85.509V133.88H95.09C98.1273 133.88 100.584 133.143 102.46 131.669C104.381 130.195 105.341 128.029 105.341 125.17C105.341 122.267 104.381 120.1 102.46 118.671C100.584 117.197 98.1273 116.46 95.09 116.46H85.509ZM128.629 158.67C125.77 158.67 123.224 158 120.991 156.66C118.802 155.275 117.082 153.377 115.832 150.965C114.626 148.553 114.023 145.761 114.023 142.59C114.023 139.374 114.648 136.56 115.899 134.148C117.194 131.736 118.981 129.86 121.259 128.52C123.581 127.18 126.261 126.51 129.299 126.51C132.336 126.51 134.927 127.158 137.071 128.453C139.259 129.704 140.934 131.513 142.096 133.88C143.257 136.247 143.838 139.061 143.838 142.322C143.838 142.635 143.815 142.97 143.771 143.327C143.771 143.64 143.771 143.841 143.771 143.93H117.44V139.374H139.55L137.406 142.456C137.54 142.233 137.674 141.898 137.808 141.451C137.942 140.96 138.009 140.558 138.009 140.245C138.009 138.414 137.629 136.828 136.87 135.488C136.155 134.148 135.15 133.098 133.855 132.339C132.559 131.58 131.041 131.2 129.299 131.2C127.244 131.2 125.48 131.647 124.006 132.54C122.576 133.389 121.46 134.639 120.656 136.292C119.896 137.9 119.494 139.888 119.45 142.255C119.45 144.667 119.829 146.722 120.589 148.419C121.348 150.116 122.465 151.412 123.939 152.305C125.413 153.198 127.199 153.645 129.299 153.645C131.398 153.645 133.252 153.198 134.86 152.305C136.468 151.367 137.83 149.96 138.947 148.084L143.302 150.831C141.694 153.422 139.661 155.387 137.205 156.727C134.793 158.022 131.934 158.67 128.629 158.67ZM156.544 127.18V158H151.184V127.18H156.544ZM165.857 133.076C165.143 132.54 164.495 132.16 163.914 131.937C163.334 131.669 162.597 131.535 161.703 131.535C160.363 131.535 159.314 131.87 158.554 132.54C157.795 133.21 157.259 134.126 156.946 135.287C156.678 136.448 156.544 137.766 156.544 139.24H154.132C154.132 136.783 154.557 134.617 155.405 132.741C156.299 130.82 157.438 129.302 158.822 128.185C160.207 127.068 161.614 126.51 163.043 126.51C164.16 126.51 165.187 126.666 166.125 126.979C167.108 127.247 168.001 127.805 168.805 128.654L165.857 133.076ZM175.423 148.553C176.048 149.491 176.763 150.362 177.567 151.166C178.371 151.97 179.287 152.618 180.314 153.109C181.386 153.556 182.547 153.779 183.798 153.779C185.317 153.779 186.5 153.444 187.349 152.774C188.242 152.059 188.689 151.099 188.689 149.893C188.689 148.821 188.332 147.928 187.617 147.213C186.947 146.454 186.076 145.828 185.004 145.337C183.932 144.801 182.793 144.31 181.587 143.863C180.247 143.327 178.885 142.702 177.5 141.987C176.16 141.228 175.021 140.267 174.083 139.106C173.19 137.9 172.743 136.404 172.743 134.617C172.743 132.786 173.212 131.267 174.15 130.061C175.133 128.855 176.383 127.962 177.902 127.381C179.465 126.8 181.073 126.51 182.726 126.51C184.379 126.51 185.92 126.778 187.349 127.314C188.823 127.85 190.118 128.565 191.235 129.458C192.352 130.351 193.223 131.379 193.848 132.54L189.56 135.287C188.711 134.126 187.639 133.165 186.344 132.406C185.093 131.647 183.664 131.267 182.056 131.267C180.939 131.267 179.979 131.513 179.175 132.004C178.371 132.495 177.969 133.255 177.969 134.282C177.969 135.086 178.282 135.801 178.907 136.426C179.532 137.051 180.336 137.61 181.319 138.101C182.302 138.592 183.329 139.061 184.401 139.508C186.188 140.223 187.818 141.004 189.292 141.853C190.766 142.657 191.927 143.64 192.776 144.801C193.669 145.962 194.116 147.459 194.116 149.29C194.116 151.97 193.133 154.203 191.168 155.99C189.247 157.777 186.701 158.67 183.53 158.67C181.475 158.67 179.622 158.313 177.969 157.598C176.316 156.839 174.909 155.878 173.748 154.717C172.631 153.556 171.783 152.372 171.202 151.166L175.423 148.553ZM198.492 142.59C198.492 139.463 199.185 136.694 200.569 134.282C201.999 131.87 203.919 129.972 206.331 128.587C208.743 127.202 211.446 126.51 214.438 126.51C217.476 126.51 220.178 127.202 222.545 128.587C224.957 129.972 226.856 131.87 228.24 134.282C229.67 136.694 230.384 139.463 230.384 142.59C230.384 145.672 229.67 148.441 228.24 150.898C226.856 153.31 224.957 155.208 222.545 156.593C220.178 157.978 217.476 158.67 214.438 158.67C211.446 158.67 208.743 157.978 206.331 156.593C203.919 155.208 201.999 153.31 200.569 150.898C199.185 148.441 198.492 145.672 198.492 142.59ZM203.919 142.59C203.919 144.734 204.366 146.632 205.259 148.285C206.197 149.938 207.448 151.255 209.011 152.238C210.619 153.176 212.428 153.645 214.438 153.645C216.448 153.645 218.235 153.176 219.798 152.238C221.406 151.255 222.657 149.938 223.55 148.285C224.488 146.632 224.957 144.734 224.957 142.59C224.957 140.446 224.488 138.548 223.55 136.895C222.657 135.198 221.406 133.88 219.798 132.942C218.235 132.004 216.448 131.535 214.438 131.535C212.428 131.535 210.619 132.004 209.011 132.942C207.448 133.88 206.197 135.198 205.259 136.895C204.366 138.548 203.919 140.446 203.919 142.59ZM257.513 139.24C257.513 136.694 256.954 134.773 255.838 133.478C254.721 132.183 253.091 131.535 250.947 131.535C249.383 131.535 247.999 131.87 246.793 132.54C245.631 133.165 244.716 134.059 244.046 135.22C243.42 136.381 243.108 137.721 243.108 139.24V158H237.748V127.18H243.108V132.004C244.135 130.128 245.408 128.743 246.927 127.85C248.49 126.957 250.277 126.51 252.287 126.51C255.547 126.51 258.116 127.604 259.992 129.793C261.912 131.937 262.873 134.863 262.873 138.57V158H257.513V139.24ZM275.361 148.486C275.361 149.647 275.629 150.652 276.165 151.501C276.745 152.35 277.527 152.997 278.51 153.444C279.537 153.846 280.698 154.047 281.994 154.047C283.646 154.047 285.12 153.712 286.416 153.042C287.756 152.372 288.805 151.434 289.565 150.228C290.369 148.977 290.771 147.548 290.771 145.94L291.843 149.96C291.843 151.925 291.24 153.556 290.034 154.851C288.872 156.146 287.421 157.107 285.679 157.732C283.981 158.357 282.284 158.67 280.587 158.67C278.711 158.67 276.946 158.29 275.294 157.531C273.686 156.727 272.39 155.588 271.408 154.114C270.425 152.64 269.934 150.853 269.934 148.754C269.934 145.761 270.983 143.372 273.083 141.585C275.227 139.754 278.197 138.838 281.994 138.838C284.227 138.838 286.081 139.106 287.555 139.642C289.073 140.133 290.279 140.714 291.173 141.384C292.066 142.009 292.669 142.523 292.982 142.925V146.074C291.418 145.002 289.81 144.243 288.158 143.796C286.505 143.305 284.741 143.059 282.865 143.059C281.123 143.059 279.693 143.282 278.577 143.729C277.505 144.176 276.701 144.801 276.165 145.605C275.629 146.409 275.361 147.369 275.361 148.486ZM274.557 134.282L271.944 130.329C273.105 129.48 274.691 128.632 276.701 127.783C278.755 126.934 281.212 126.51 284.071 126.51C286.483 126.51 288.582 126.89 290.369 127.649C292.2 128.364 293.607 129.413 294.59 130.798C295.617 132.183 296.131 133.88 296.131 135.89V158H290.771V136.627C290.771 135.555 290.592 134.684 290.235 134.014C289.877 133.299 289.364 132.741 288.694 132.339C288.068 131.937 287.331 131.647 286.483 131.468C285.634 131.289 284.741 131.2 283.803 131.2C282.284 131.2 280.899 131.379 279.649 131.736C278.443 132.093 277.415 132.518 276.567 133.009C275.718 133.5 275.048 133.925 274.557 134.282ZM305.206 105.74H310.566V158H305.206V105.74ZM341.069 111.1H346.764V152.64H365.189V158H341.069V111.1ZM382.823 158.67C379.964 158.67 377.418 158 375.185 156.66C372.996 155.275 371.277 153.377 370.026 150.965C368.82 148.553 368.217 145.761 368.217 142.59C368.217 139.374 368.842 136.56 370.093 134.148C371.388 131.736 373.175 129.86 375.453 128.52C377.776 127.18 380.456 126.51 383.493 126.51C386.53 126.51 389.121 127.158 391.265 128.453C393.454 129.704 395.129 131.513 396.29 133.88C397.451 136.247 398.032 139.061 398.032 142.322C398.032 142.635 398.01 142.97 397.965 143.327C397.965 143.64 397.965 143.841 397.965 143.93H371.634V139.374H393.744L391.6 142.456C391.734 142.233 391.868 141.898 392.002 141.451C392.136 140.96 392.203 140.558 392.203 140.245C392.203 138.414 391.823 136.828 391.064 135.488C390.349 134.148 389.344 133.098 388.049 132.339C386.754 131.58 385.235 131.2 383.493 131.2C381.438 131.2 379.674 131.647 378.2 132.54C376.771 133.389 375.654 134.639 374.85 136.292C374.091 137.9 373.689 139.888 373.644 142.255C373.644 144.667 374.024 146.722 374.783 148.419C375.542 150.116 376.659 151.412 378.133 152.305C379.607 153.198 381.394 153.645 383.493 153.645C385.592 153.645 387.446 153.198 389.054 152.305C390.662 151.367 392.024 149.96 393.141 148.084L397.496 150.831C395.888 153.422 393.856 155.387 391.399 156.727C388.987 158.022 386.128 158.67 382.823 158.67ZM400.689 127.18H416.099V132.205H400.689V127.18ZM405.714 116.46H411.074V158H405.714V116.46ZM416.784 127.18H432.194V132.205H416.784V127.18ZM421.809 116.46H427.169V158H421.809V116.46ZM449.496 158.67C446.637 158.67 444.091 158 441.858 156.66C439.669 155.275 437.95 153.377 436.699 150.965C435.493 148.553 434.89 145.761 434.89 142.59C434.89 139.374 435.515 136.56 436.766 134.148C438.061 131.736 439.848 129.86 442.126 128.52C444.449 127.18 447.129 126.51 450.166 126.51C453.203 126.51 455.794 127.158 457.938 128.453C460.127 129.704 461.802 131.513 462.963 133.88C464.124 136.247 464.705 139.061 464.705 142.322C464.705 142.635 464.683 142.97 464.638 143.327C464.638 143.64 464.638 143.841 464.638 143.93H438.307V139.374H460.417L458.273 142.456C458.407 142.233 458.541 141.898 458.675 141.451C458.809 140.96 458.876 140.558 458.876 140.245C458.876 138.414 458.496 136.828 457.737 135.488C457.022 134.148 456.017 133.098 454.722 132.339C453.427 131.58 451.908 131.2 450.166 131.2C448.111 131.2 446.347 131.647 444.873 132.54C443.444 133.389 442.327 134.639 441.523 136.292C440.764 137.9 440.362 139.888 440.317 142.255C440.317 144.667 440.697 146.722 441.456 148.419C442.215 150.116 443.332 151.412 444.806 152.305C446.28 153.198 448.067 153.645 450.166 153.645C452.265 153.645 454.119 153.198 455.727 152.305C457.335 151.367 458.697 149.96 459.814 148.084L464.169 150.831C462.561 153.422 460.529 155.387 458.072 156.727C455.66 158.022 452.801 158.67 449.496 158.67ZM477.411 127.18V158H472.051V127.18H477.411ZM486.724 133.076C486.01 132.54 485.362 132.16 484.781 131.937C484.201 131.669 483.464 131.535 482.57 131.535C481.23 131.535 480.181 131.87 479.421 132.54C478.662 133.21 478.126 134.126 477.813 135.287C477.545 136.448 477.411 137.766 477.411 139.24H474.999C474.999 136.783 475.424 134.617 476.272 132.741C477.166 130.82 478.305 129.302 479.689 128.185C481.074 127.068 482.481 126.51 483.91 126.51C485.027 126.51 486.054 126.666 486.992 126.979C487.975 127.247 488.868 127.805 489.672 128.654L486.724 133.076ZM496.29 148.553C496.916 149.491 497.63 150.362 498.434 151.166C499.238 151.97 500.154 152.618 501.181 153.109C502.253 153.556 503.415 153.779 504.665 153.779C506.184 153.779 507.368 153.444 508.216 152.774C509.11 152.059 509.556 151.099 509.556 149.893C509.556 148.821 509.199 147.928 508.484 147.213C507.814 146.454 506.943 145.828 505.871 145.337C504.799 144.801 503.66 144.31 502.454 143.863C501.114 143.327 499.752 142.702 498.367 141.987C497.027 141.228 495.888 140.267 494.95 139.106C494.057 137.9 493.61 136.404 493.61 134.617C493.61 132.786 494.079 131.267 495.017 130.061C496 128.855 497.251 127.962 498.769 127.381C500.333 126.8 501.941 126.51 503.593 126.51C505.246 126.51 506.787 126.778 508.216 127.314C509.69 127.85 510.986 128.565 512.102 129.458C513.219 130.351 514.09 131.379 514.715 132.54L510.427 135.287C509.579 134.126 508.507 133.165 507.211 132.406C505.961 131.647 504.531 131.267 502.923 131.267C501.807 131.267 500.846 131.513 500.042 132.004C499.238 132.495 498.836 133.255 498.836 134.282C498.836 135.086 499.149 135.801 499.774 136.426C500.4 137.051 501.204 137.61 502.186 138.101C503.169 138.592 504.196 139.061 505.268 139.508C507.055 140.223 508.685 141.004 510.159 141.853C511.633 142.657 512.795 143.64 513.643 144.801C514.537 145.962 514.983 147.459 514.983 149.29C514.983 151.97 514.001 154.203 512.035 155.99C510.115 157.777 507.569 158.67 504.397 158.67C502.343 158.67 500.489 158.313 498.836 157.598C497.184 156.839 495.777 155.878 494.615 154.717C493.499 153.556 492.65 152.372 492.069 151.166L496.29 148.553Z"
              fill="white"/>
    </g>
    <g filter="url(#filter1_d_15_261)">
        <path d="M144.32 218C143.684 218 143.366 217.682 143.366 217.046V195.752C143.366 195.116 143.684 194.798 144.32 194.798H152.744C154.796 194.798 156.344 195.326 157.388 196.382C158.444 197.438 158.972 198.992 158.972 201.044V202.124C158.972 204.164 158.444 205.712 157.388 206.768C156.344 207.824 154.796 208.352 152.744 208.352H145.256V217.046C145.256 217.682 144.944 218 144.32 218ZM145.256 206.462H152.744C154.256 206.462 155.354 206.12 156.038 205.436C156.734 204.74 157.082 203.636 157.082 202.124V201.044C157.082 199.52 156.734 198.416 156.038 197.732C155.354 197.036 154.256 196.688 152.744 196.688H145.256V206.462ZM164.247 210.224V211.538C164.247 213.23 164.583 214.418 165.255 215.102C165.939 215.774 167.139 216.11 168.855 216.11H171.807C173.319 216.11 174.417 215.918 175.101 215.534C175.797 215.138 176.211 214.46 176.343 213.5C176.391 213.2 176.487 212.972 176.631 212.816C176.787 212.66 177.021 212.582 177.333 212.582C177.645 212.582 177.879 212.672 178.035 212.852C178.203 213.02 178.269 213.26 178.233 213.572C178.077 215.084 177.471 216.2 176.415 216.92C175.359 217.64 173.823 218 171.807 218H168.855C166.611 218 164.967 217.484 163.923 216.452C162.879 215.408 162.357 213.77 162.357 211.538V207.47C162.357 205.202 162.879 203.552 163.923 202.52C164.967 201.476 166.611 200.966 168.855 200.99H171.807C174.051 200.99 175.689 201.512 176.721 202.556C177.765 203.588 178.287 205.226 178.287 207.47V209.27C178.287 209.906 177.975 210.224 177.351 210.224H164.247ZM168.855 202.88C167.139 202.856 165.939 203.186 165.255 203.87C164.583 204.542 164.247 205.742 164.247 207.47V208.334H176.397V207.47C176.397 205.754 176.061 204.56 175.389 203.888C174.717 203.216 173.523 202.88 171.807 202.88H168.855ZM185.488 218C184.852 218 184.534 217.682 184.534 217.046V201.926C184.534 201.302 184.852 200.99 185.488 200.99C186.112 200.99 186.424 201.302 186.424 201.926V204.698C187.048 203.498 187.948 202.58 189.124 201.944C190.312 201.308 191.716 200.99 193.336 200.99C193.972 200.99 194.29 201.302 194.29 201.926C194.29 202.562 193.972 202.88 193.336 202.88C191.2 202.88 189.544 203.366 188.368 204.338C187.192 205.298 186.544 206.672 186.424 208.46V217.046C186.424 217.682 186.112 218 185.488 218ZM201.127 217.964C199.651 217.964 198.523 217.652 197.743 217.028C196.963 216.392 196.495 215.426 196.339 214.13C196.303 213.818 196.369 213.578 196.537 213.41C196.705 213.23 196.951 213.14 197.275 213.14C197.575 213.14 197.797 213.218 197.941 213.374C198.097 213.53 198.199 213.764 198.247 214.076C198.355 214.82 198.625 215.342 199.057 215.642C199.501 215.93 200.191 216.074 201.127 216.074H207.031C208.147 216.074 208.915 215.864 209.335 215.444C209.755 215.024 209.965 214.256 209.965 213.14C209.965 212.012 209.755 211.238 209.335 210.818C208.915 210.398 208.147 210.188 207.031 210.188H201.199C199.639 210.188 198.475 209.816 197.707 209.072C196.951 208.316 196.573 207.158 196.573 205.598C196.573 204.002 196.951 202.832 197.707 202.088C198.463 201.332 199.627 200.954 201.199 200.954H206.851C209.563 200.954 211.069 202.154 211.369 204.554C211.417 204.866 211.351 205.112 211.171 205.292C211.003 205.46 210.763 205.544 210.451 205.544C210.151 205.544 209.923 205.466 209.767 205.31C209.623 205.154 209.521 204.926 209.461 204.626C209.377 203.954 209.131 203.492 208.723 203.24C208.327 202.976 207.703 202.844 206.851 202.844H201.199C200.155 202.844 199.435 203.036 199.039 203.42C198.655 203.804 198.463 204.53 198.463 205.598C198.463 206.618 198.661 207.326 199.057 207.722C199.453 208.106 200.167 208.298 201.199 208.298H207.031C208.687 208.298 209.905 208.694 210.685 209.486C211.465 210.266 211.855 211.484 211.855 213.14C211.855 214.784 211.465 216.002 210.685 216.794C209.905 217.574 208.687 217.964 207.031 217.964H201.127ZM223.523 218C221.279 218 219.635 217.484 218.591 216.452C217.547 215.408 217.025 213.77 217.025 211.538V207.47C217.025 205.202 217.547 203.552 218.591 202.52C219.635 201.476 221.279 200.966 223.523 200.99H226.475C228.719 200.99 230.357 201.512 231.389 202.556C232.433 203.588 232.955 205.226 232.955 207.47V211.502C232.955 213.746 232.433 215.39 231.389 216.434C230.357 217.478 228.719 218 226.475 218H223.523ZM218.915 211.538C218.915 213.23 219.251 214.418 219.923 215.102C220.607 215.774 221.807 216.11 223.523 216.11H226.475C228.191 216.11 229.385 215.774 230.057 215.102C230.729 214.418 231.065 213.218 231.065 211.502V207.47C231.065 205.754 230.729 204.56 230.057 203.888C229.385 203.216 228.191 202.88 226.475 202.88H223.523C222.371 202.868 221.459 203.006 220.787 203.294C220.115 203.582 219.635 204.062 219.347 204.734C219.059 205.406 218.915 206.318 218.915 207.47V211.538ZM240.156 218C239.52 218 239.202 217.682 239.202 217.046V201.926C239.202 201.302 239.52 200.99 240.156 200.99C240.78 200.99 241.092 201.302 241.092 201.926V203.654C242.232 201.878 244.296 200.99 247.284 200.99H248.292C250.536 200.99 252.174 201.512 253.206 202.556C254.25 203.588 254.772 205.226 254.772 207.47V217.046C254.772 217.682 254.46 218 253.836 218C253.2 218 252.882 217.682 252.882 217.046V207.47C252.882 205.754 252.54 204.56 251.856 203.888C251.184 203.216 249.996 202.88 248.292 202.88H247.284C245.424 202.88 243.96 203.174 242.892 203.762C241.824 204.35 241.224 205.268 241.092 206.516V217.046C241.092 217.682 240.78 218 240.156 218ZM265.529 218C263.657 218 262.283 217.568 261.407 216.704C260.543 215.828 260.111 214.454 260.111 212.582C260.111 210.71 260.549 209.336 261.425 208.46C262.301 207.584 263.669 207.146 265.529 207.146H273.719C273.695 205.562 273.335 204.458 272.639 203.834C271.955 203.198 270.785 202.88 269.129 202.88H267.041C265.517 202.88 264.401 203.042 263.693 203.366C262.985 203.69 262.547 204.242 262.379 205.022C262.295 205.322 262.181 205.544 262.037 205.688C261.905 205.82 261.689 205.886 261.389 205.886C261.077 205.886 260.831 205.802 260.651 205.634C260.483 205.454 260.423 205.214 260.471 204.914C260.627 203.546 261.245 202.55 262.325 201.926C263.417 201.302 264.989 200.99 267.041 200.99H269.129C271.373 200.99 273.011 201.512 274.043 202.556C275.087 203.588 275.609 205.226 275.609 207.47V217.046C275.609 217.682 275.297 218 274.673 218C274.037 218 273.719 217.682 273.719 217.046V215.264C272.567 217.088 270.509 218 267.545 218H265.529ZM265.529 216.11H267.545C268.709 216.11 269.729 215.984 270.605 215.732C271.493 215.468 272.207 215.048 272.747 214.472C273.287 213.896 273.611 213.128 273.719 212.168V209.036H265.529C264.197 209.036 263.273 209.294 262.757 209.81C262.253 210.314 262.001 211.238 262.001 212.582C262.001 213.914 262.253 214.838 262.757 215.354C263.273 215.858 264.197 216.11 265.529 216.11ZM286.972 218C285.268 218 284.014 217.604 283.21 216.812C282.418 216.02 282.022 214.778 282.022 213.086V193.97C282.022 193.346 282.34 193.034 282.976 193.034C283.6 193.034 283.912 193.346 283.912 193.97V213.086C283.912 214.25 284.128 215.048 284.56 215.48C284.992 215.9 285.79 216.11 286.954 216.11C287.602 216.11 287.926 216.422 287.926 217.046C287.938 217.682 287.62 218 286.972 218ZM306.502 218C306.046 218 305.74 217.754 305.584 217.262L298.69 196.058C298.594 195.782 298.63 195.506 298.798 195.23C298.966 194.942 299.23 194.798 299.59 194.798C299.794 194.798 299.974 194.858 300.13 194.978C300.298 195.086 300.412 195.254 300.472 195.482L306.88 215.174H306.358L312.424 195.536C312.508 195.272 312.652 195.08 312.856 194.96C313.072 194.84 313.294 194.78 313.522 194.78C313.762 194.78 313.99 194.84 314.206 194.96C314.422 195.08 314.56 195.272 314.62 195.536L320.686 215.174H320.164L326.572 195.482C326.656 195.254 326.77 195.086 326.914 194.978C327.07 194.858 327.25 194.798 327.454 194.798C327.862 194.798 328.138 194.936 328.282 195.212C328.438 195.488 328.468 195.77 328.372 196.058L321.46 217.262C321.304 217.754 320.974 218 320.47 218H320.398C319.882 218 319.552 217.754 319.408 217.262L313.234 197.426H313.756L307.582 217.262C307.498 217.562 307.366 217.76 307.186 217.856C307.006 217.952 306.778 218 306.502 218ZM332.547 218C331.911 218 331.593 217.682 331.593 217.046V201.926C331.593 201.302 331.911 200.99 332.547 200.99C333.171 200.99 333.483 201.302 333.483 201.926V204.698C334.107 203.498 335.007 202.58 336.183 201.944C337.371 201.308 338.775 200.99 340.395 200.99C341.031 200.99 341.349 201.302 341.349 201.926C341.349 202.562 341.031 202.88 340.395 202.88C338.259 202.88 336.603 203.366 335.427 204.338C334.251 205.298 333.603 206.672 333.483 208.46V217.046C333.483 217.682 333.171 218 332.547 218ZM345.703 197.714C344.875 197.714 344.461 197.288 344.461 196.436V195.626C344.461 194.798 344.875 194.384 345.703 194.384H346.513C347.317 194.384 347.719 194.798 347.719 195.626V196.436C347.719 197.288 347.317 197.714 346.513 197.714H345.703ZM346.117 218C345.481 218 345.163 217.682 345.163 217.046V201.926C345.163 201.302 345.481 200.99 346.117 200.99C346.741 200.99 347.053 201.302 347.053 201.926V217.046C347.053 217.682 346.741 218 346.117 218ZM360.724 218C358.516 218 356.902 217.49 355.882 216.47C354.862 215.45 354.352 213.842 354.352 211.646V202.88H352.21C351.574 202.88 351.256 202.562 351.256 201.926C351.256 201.302 351.574 200.99 352.21 200.99H354.352V197.12C354.352 196.484 354.664 196.166 355.288 196.166C355.924 196.166 356.242 196.484 356.242 197.12V200.99H360.76C361.384 200.99 361.696 201.302 361.696 201.926C361.696 202.562 361.384 202.88 360.76 202.88H356.242V211.646C356.242 213.326 356.566 214.49 357.214 215.138C357.874 215.786 359.044 216.11 360.724 216.11C361.072 216.11 361.318 216.188 361.462 216.344C361.618 216.5 361.696 216.734 361.696 217.046C361.696 217.682 361.372 218 360.724 218ZM367.219 197.714C366.391 197.714 365.977 197.288 365.977 196.436V195.626C365.977 194.798 366.391 194.384 367.219 194.384H368.029C368.833 194.384 369.235 194.798 369.235 195.626V196.436C369.235 197.288 368.833 197.714 368.029 197.714H367.219ZM367.633 218C366.997 218 366.679 217.682 366.679 217.046V201.926C366.679 201.302 366.997 200.99 367.633 200.99C368.257 200.99 368.569 201.302 368.569 201.926V217.046C368.569 217.682 368.257 218 367.633 218ZM376.246 218C375.61 218 375.292 217.682 375.292 217.046V201.926C375.292 201.302 375.61 200.99 376.246 200.99C376.87 200.99 377.182 201.302 377.182 201.926V203.654C378.322 201.878 380.386 200.99 383.374 200.99H384.382C386.626 200.99 388.264 201.512 389.296 202.556C390.34 203.588 390.862 205.226 390.862 207.47V217.046C390.862 217.682 390.55 218 389.926 218C389.29 218 388.972 217.682 388.972 217.046V207.47C388.972 205.754 388.63 204.56 387.946 203.888C387.274 203.216 386.086 202.88 384.382 202.88H383.374C381.514 202.88 380.05 203.174 378.982 203.762C377.914 204.35 377.314 205.268 377.182 206.516V217.046C377.182 217.682 376.87 218 376.246 218ZM401.404 225.2C399.988 225.2 398.908 224.906 398.164 224.318C397.42 223.742 396.982 222.83 396.85 221.582C396.814 221.27 396.88 221.024 397.048 220.844C397.216 220.664 397.45 220.574 397.75 220.574C398.05 220.574 398.278 220.652 398.434 220.808C398.59 220.964 398.692 221.198 398.74 221.51C398.824 222.206 399.07 222.68 399.478 222.932C399.886 223.184 400.528 223.31 401.404 223.31H408.1C409.156 223.31 409.87 223.118 410.242 222.734C410.626 222.35 410.818 221.63 410.818 220.574V215.426C410.266 216.266 409.486 216.908 408.478 217.352C407.47 217.784 406.192 218 404.644 218H403.276C401.032 218 399.388 217.484 398.344 216.452C397.3 215.408 396.778 213.77 396.778 211.538V207.47C396.778 205.202 397.294 203.558 398.326 202.538C399.37 201.506 401.02 200.99 403.276 200.99H406.228C407.404 200.99 408.358 201.146 409.09 201.458C409.822 201.77 410.398 202.256 410.818 202.916V201.926C410.818 201.302 411.136 200.99 411.772 200.99C412.396 200.99 412.708 201.302 412.708 201.926V220.574C412.708 222.158 412.336 223.322 411.592 224.066C410.848 224.822 409.684 225.2 408.1 225.2H401.404ZM403.276 216.11H404.644C406.516 216.11 408.01 215.816 409.126 215.228C410.254 214.64 410.818 213.746 410.818 212.546V206.534C410.818 205.178 410.44 204.23 409.684 203.69C408.928 203.15 407.776 202.88 406.228 202.88H403.276C401.56 202.88 400.36 203.216 399.676 203.888C399.004 204.548 398.668 205.742 398.668 207.47V211.538C398.668 213.23 399.004 214.418 399.676 215.102C400.36 215.774 401.56 216.11 403.276 216.11Z"
              fill="white"/>
    </g>
    <defs>
        <filter id="filter0_d_15_261" x="78.3601" y="105.74" width="440.623" height="60.9299"
                filterUnits="userSpaceOnUse" color-interpolation-filters="sRGB">
            <feFlood flood-opacity="0" result="BackgroundImageFix"/>
            <feColorMatrix in="SourceAlpha" type="matrix" values="0 0 0 0 0 0 0 0 0 0 0 0 0 0 0 0 0 0 127 0"
                           result="hardAlpha"/>
            <feOffset dy="4"/>
            <feGaussianBlur stdDeviation="2"/>
            <feComposite in2="hardAlpha" operator="out"/>
            <feColorMatrix type="matrix" values="0 0 0 0 0 0 0 0 0 0 0 0 0 0 0 0 0 0 0.25 0"/>
            <feBlend mode="normal" in2="BackgroundImageFix" result="effect1_dropShadow_15_261"/>
            <feBlend mode="normal" in="SourceGraphic" in2="effect1_dropShadow_15_261" result="shape"/>
        </filter>
        <filter id="filter1_d_15_261" x="139.366" y="193.034" width="277.343" height="40.166"
                filterUnits="userSpaceOnUse" color-interpolation-filters="sRGB">
            <feFlood flood-opacity="0" result="BackgroundImageFix"/>
            <feColorMatrix in="SourceAlpha" type="matrix" values="0 0 0 0 0 0 0 0 0 0 0 0 0 0 0 0 0 0 127 0"
                           result="hardAlpha"/>
            <feOffset dy="4"/>
            <feGaussianBlur stdDeviation="2"/>
            <feComposite in2="hardAlpha" operator="out"/>
            <feColorMatrix type="matrix" values="0 0 0 0 0 0 0 0 0 0 0 0 0 0 0 0 0 0 0.25 0"/>
            <feBlend mode="normal" in2="BackgroundImageFix" result="effect1_dropShadow_15_261"/>
            <feBlend mode="normal" in="SourceGraphic" in2="effect1_dropShadow_15_261" result="shape"/>
        </filter>
    </defs>
</svg>
