<svg width="570" height="352" viewBox="0 0 570 352" fill="none" xmlns="http://www.w3.org/2000/svg">
    <rect x="0.5" y="0.5" width="569" height="351" rx="19.5" fill="#B0CAD9"/>
    <rect x="0.5" y="0.5" width="569" height="351" rx="19.5" stroke="#BDBDBD"/>
    <g filter="url(#filter0_d_15_237)">
        <path d="M10.36 104.1H16.055V151H10.36V104.1ZM13.509 109.46V104.1H23.09C26.1273 104.1 28.8297 104.681 31.197 105.842C33.609 106.959 35.5073 108.567 36.892 110.666C38.3213 112.765 39.036 115.267 39.036 118.17C39.036 121.029 38.3213 123.53 36.892 125.674C35.5073 127.773 33.609 129.404 31.197 130.565C28.8297 131.682 26.1273 132.24 23.09 132.24H13.509V126.88H23.09C26.1273 126.88 28.584 126.143 30.46 124.669C32.3807 123.195 33.341 121.029 33.341 118.17C33.341 115.267 32.3807 113.1 30.46 111.671C28.584 110.197 26.1273 109.46 23.09 109.46H13.509ZM50.7825 120.18V151H45.4225V120.18H50.7825ZM60.0955 126.076C59.3808 125.54 58.7331 125.16 58.1525 124.937C57.5718 124.669 56.8348 124.535 55.9415 124.535C54.6015 124.535 53.5518 124.87 52.7925 125.54C52.0331 126.21 51.4971 127.126 51.1845 128.287C50.9165 129.448 50.7825 130.766 50.7825 132.24H48.3705C48.3705 129.783 48.7948 127.617 49.6435 125.741C50.5368 123.82 51.6758 122.302 53.0605 121.185C54.4451 120.068 55.8521 119.51 57.2815 119.51C58.3981 119.51 59.4255 119.666 60.3635 119.979C61.3461 120.247 62.2395 120.805 63.0435 121.654L60.0955 126.076ZM64.7268 135.59C64.7268 132.463 65.4192 129.694 66.8038 127.282C68.2332 124.87 70.1538 122.972 72.5658 121.587C74.9778 120.202 77.6802 119.51 80.6728 119.51C83.7102 119.51 86.4125 120.202 88.7798 121.587C91.1918 122.972 93.0902 124.87 94.4748 127.282C95.9042 129.694 96.6188 132.463 96.6188 135.59C96.6188 138.672 95.9042 141.441 94.4748 143.898C93.0902 146.31 91.1918 148.208 88.7798 149.593C86.4125 150.978 83.7102 151.67 80.6728 151.67C77.6802 151.67 74.9778 150.978 72.5658 149.593C70.1538 148.208 68.2332 146.31 66.8038 143.898C65.4192 141.441 64.7268 138.672 64.7268 135.59ZM70.1538 135.59C70.1538 137.734 70.6005 139.632 71.4938 141.285C72.4318 142.938 73.6825 144.255 75.2458 145.238C76.8538 146.176 78.6628 146.645 80.6728 146.645C82.6828 146.645 84.4695 146.176 86.0328 145.238C87.6408 144.255 88.8915 142.938 89.7848 141.285C90.7228 139.632 91.1918 137.734 91.1918 135.59C91.1918 133.446 90.7228 131.548 89.7848 129.895C88.8915 128.198 87.6408 126.88 86.0328 125.942C84.4695 125.004 82.6828 124.535 80.6728 124.535C78.6628 124.535 76.8538 125.004 75.2458 125.942C73.6825 126.88 72.4318 128.198 71.4938 129.895C70.6005 131.548 70.1538 133.446 70.1538 135.59ZM127.097 98.74H132.457V151H127.097V98.74ZM101.302 135.59C101.302 132.24 101.994 129.381 103.379 127.014C104.764 124.602 106.617 122.748 108.94 121.453C111.263 120.158 113.809 119.51 116.578 119.51C119.169 119.51 121.424 120.158 123.345 121.453C125.266 122.748 126.762 124.602 127.834 127.014C128.951 129.381 129.509 132.24 129.509 135.59C129.509 138.895 128.951 141.754 127.834 144.166C126.762 146.578 125.266 148.432 123.345 149.727C121.424 151.022 119.169 151.67 116.578 151.67C113.809 151.67 111.263 151.022 108.94 149.727C106.617 148.432 104.764 146.578 103.379 144.166C101.994 141.754 101.302 138.895 101.302 135.59ZM106.729 135.59C106.729 137.957 107.198 139.967 108.136 141.62C109.119 143.273 110.414 144.523 112.022 145.372C113.63 146.221 115.372 146.645 117.248 146.645C118.811 146.645 120.352 146.221 121.871 145.372C123.39 144.523 124.64 143.273 125.623 141.62C126.606 139.967 127.097 137.957 127.097 135.59C127.097 133.223 126.606 131.213 125.623 129.56C124.64 127.907 123.39 126.657 121.871 125.808C120.352 124.959 118.811 124.535 117.248 124.535C115.372 124.535 113.63 124.959 112.022 125.808C110.414 126.657 109.119 127.907 108.136 129.56C107.198 131.213 106.729 133.223 106.729 135.59ZM147.553 138.94C147.553 141.397 148.111 143.295 149.228 144.635C150.345 145.975 151.975 146.645 154.119 146.645C155.682 146.645 157.045 146.332 158.206 145.707C159.412 145.037 160.328 144.121 160.953 142.96C161.623 141.799 161.958 140.459 161.958 138.94V120.18H167.318V151H161.958V146.176C160.931 148.007 159.658 149.392 158.139 150.33C156.62 151.223 154.834 151.67 152.779 151.67C149.563 151.67 146.995 150.576 145.074 148.387C143.153 146.198 142.193 143.273 142.193 139.61V120.18H147.553V138.94ZM179.806 135.59C179.806 137.734 180.253 139.632 181.146 141.285C182.084 142.938 183.335 144.255 184.898 145.238C186.506 146.176 188.315 146.645 190.325 146.645C191.978 146.645 193.519 146.399 194.948 145.908C196.422 145.372 197.695 144.68 198.767 143.831C199.839 142.938 200.598 142 201.045 141.017V147.717C199.973 148.968 198.432 149.95 196.422 150.665C194.457 151.335 192.424 151.67 190.325 151.67C187.332 151.67 184.63 150.978 182.218 149.593C179.806 148.208 177.885 146.31 176.456 143.898C175.071 141.441 174.379 138.672 174.379 135.59C174.379 132.463 175.071 129.694 176.456 127.282C177.885 124.87 179.806 122.972 182.218 121.587C184.63 120.202 187.332 119.51 190.325 119.51C192.424 119.51 194.457 119.867 196.422 120.582C198.432 121.252 199.973 122.212 201.045 123.463V130.163C200.598 129.136 199.839 128.198 198.767 127.349C197.695 126.5 196.422 125.83 194.948 125.339C193.519 124.803 191.978 124.535 190.325 124.535C188.315 124.535 186.506 125.004 184.898 125.942C183.335 126.88 182.084 128.198 181.146 129.895C180.253 131.548 179.806 133.446 179.806 135.59ZM204.699 120.18H220.109V125.205H204.699V120.18ZM209.724 109.46H215.084V151H209.724V109.46ZM245.907 104.1H251.602V151H245.907V104.1ZM259.977 151H249.056V145.305H259.977C262.612 145.305 265.024 144.903 267.213 144.099C269.402 143.25 271.278 142.067 272.841 140.548C274.404 138.985 275.61 137.109 276.459 134.92C277.308 132.731 277.732 130.275 277.732 127.55C277.732 124.825 277.308 122.369 276.459 120.18C275.61 117.991 274.404 116.138 272.841 114.619C271.278 113.056 269.402 111.872 267.213 111.068C265.024 110.219 262.612 109.795 259.977 109.795H249.056V104.1H259.977C264.533 104.1 268.575 105.083 272.104 107.048C275.633 109.013 278.402 111.76 280.412 115.289C282.422 118.773 283.427 122.86 283.427 127.55C283.427 132.24 282.422 136.349 280.412 139.878C278.402 143.362 275.633 146.087 272.104 148.052C268.575 150.017 264.533 151 259.977 151ZM303.037 151.67C300.178 151.67 297.632 151 295.399 149.66C293.21 148.275 291.491 146.377 290.24 143.965C289.034 141.553 288.431 138.761 288.431 135.59C288.431 132.374 289.056 129.56 290.307 127.148C291.602 124.736 293.389 122.86 295.667 121.52C297.99 120.18 300.67 119.51 303.707 119.51C306.744 119.51 309.335 120.158 311.479 121.453C313.668 122.704 315.343 124.513 316.504 126.88C317.665 129.247 318.246 132.061 318.246 135.322C318.246 135.635 318.224 135.97 318.179 136.327C318.179 136.64 318.179 136.841 318.179 136.93H291.848V132.374H313.958L311.814 135.456C311.948 135.233 312.082 134.898 312.216 134.451C312.35 133.96 312.417 133.558 312.417 133.245C312.417 131.414 312.037 129.828 311.278 128.488C310.563 127.148 309.558 126.098 308.263 125.339C306.968 124.58 305.449 124.2 303.707 124.2C301.652 124.2 299.888 124.647 298.414 125.54C296.985 126.389 295.868 127.639 295.064 129.292C294.305 130.9 293.903 132.888 293.858 135.255C293.858 137.667 294.238 139.722 294.997 141.419C295.756 143.116 296.873 144.412 298.347 145.305C299.821 146.198 301.608 146.645 303.707 146.645C305.806 146.645 307.66 146.198 309.268 145.305C310.876 144.367 312.238 142.96 313.355 141.084L317.71 143.831C316.102 146.422 314.07 148.387 311.613 149.727C309.201 151.022 306.342 151.67 303.037 151.67ZM326.865 141.553C327.491 142.491 328.205 143.362 329.009 144.166C329.813 144.97 330.729 145.618 331.756 146.109C332.828 146.556 333.99 146.779 335.24 146.779C336.759 146.779 337.943 146.444 338.791 145.774C339.685 145.059 340.131 144.099 340.131 142.893C340.131 141.821 339.774 140.928 339.059 140.213C338.389 139.454 337.518 138.828 336.446 138.337C335.374 137.801 334.235 137.31 333.029 136.863C331.689 136.327 330.327 135.702 328.942 134.987C327.602 134.228 326.463 133.267 325.525 132.106C324.632 130.9 324.185 129.404 324.185 127.617C324.185 125.786 324.654 124.267 325.592 123.061C326.575 121.855 327.826 120.962 329.344 120.381C330.908 119.8 332.516 119.51 334.168 119.51C335.821 119.51 337.362 119.778 338.791 120.314C340.265 120.85 341.561 121.565 342.677 122.458C343.794 123.351 344.665 124.379 345.29 125.54L341.002 128.287C340.154 127.126 339.082 126.165 337.786 125.406C336.536 124.647 335.106 124.267 333.498 124.267C332.382 124.267 331.421 124.513 330.617 125.004C329.813 125.495 329.411 126.255 329.411 127.282C329.411 128.086 329.724 128.801 330.349 129.426C330.975 130.051 331.779 130.61 332.761 131.101C333.744 131.592 334.771 132.061 335.843 132.508C337.63 133.223 339.26 134.004 340.734 134.853C342.208 135.657 343.37 136.64 344.218 137.801C345.112 138.962 345.558 140.459 345.558 142.29C345.558 144.97 344.576 147.203 342.61 148.99C340.69 150.777 338.144 151.67 334.972 151.67C332.918 151.67 331.064 151.313 329.411 150.598C327.759 149.839 326.352 148.878 325.19 147.717C324.074 146.556 323.225 145.372 322.644 144.166L326.865 141.553ZM355.027 135.59C355.027 137.734 355.474 139.632 356.367 141.285C357.305 142.938 358.556 144.255 360.119 145.238C361.727 146.176 363.536 146.645 365.546 146.645C367.199 146.645 368.74 146.399 370.169 145.908C371.643 145.372 372.916 144.68 373.988 143.831C375.06 142.938 375.819 142 376.266 141.017V147.717C375.194 148.968 373.653 149.95 371.643 150.665C369.678 151.335 367.645 151.67 365.546 151.67C362.553 151.67 359.851 150.978 357.439 149.593C355.027 148.208 353.106 146.31 351.677 143.898C350.292 141.441 349.6 138.672 349.6 135.59C349.6 132.463 350.292 129.694 351.677 127.282C353.106 124.87 355.027 122.972 357.439 121.587C359.851 120.202 362.553 119.51 365.546 119.51C367.645 119.51 369.678 119.867 371.643 120.582C373.653 121.252 375.194 122.212 376.266 123.463V130.163C375.819 129.136 375.06 128.198 373.988 127.349C372.916 126.5 371.643 125.83 370.169 125.339C368.74 124.803 367.199 124.535 365.546 124.535C363.536 124.535 361.727 125.004 360.119 125.942C358.556 126.88 357.305 128.198 356.367 129.895C355.474 131.548 355.027 133.446 355.027 135.59ZM389.97 120.18V151H384.61V120.18H389.97ZM399.283 126.076C398.568 125.54 397.921 125.16 397.34 124.937C396.759 124.669 396.022 124.535 395.129 124.535C393.789 124.535 392.739 124.87 391.98 125.54C391.221 126.21 390.685 127.126 390.372 128.287C390.104 129.448 389.97 130.766 389.97 132.24H387.558C387.558 129.783 387.982 127.617 388.831 125.741C389.724 123.82 390.863 122.302 392.248 121.185C393.633 120.068 395.04 119.51 396.469 119.51C397.586 119.51 398.613 119.666 399.551 119.979C400.534 120.247 401.427 120.805 402.231 121.654L399.283 126.076ZM407.576 107.45C407.576 106.423 407.933 105.552 408.648 104.837C409.407 104.122 410.278 103.765 411.261 103.765C412.288 103.765 413.159 104.122 413.874 104.837C414.588 105.552 414.946 106.423 414.946 107.45C414.946 108.433 414.588 109.304 413.874 110.063C413.159 110.778 412.288 111.135 411.261 111.135C410.278 111.135 409.407 110.778 408.648 110.063C407.933 109.304 407.576 108.433 407.576 107.45ZM408.581 120.18H413.941V151H408.581V120.18ZM430.005 165.74H424.645V120.18H430.005V165.74ZM455.8 135.59C455.8 138.895 455.108 141.754 453.723 144.166C452.338 146.578 450.485 148.432 448.162 149.727C445.884 151.022 443.338 151.67 440.524 151.67C437.978 151.67 435.722 151.022 433.757 149.727C431.836 148.432 430.318 146.578 429.201 144.166C428.129 141.754 427.593 138.895 427.593 135.59C427.593 132.24 428.129 129.381 429.201 127.014C430.318 124.602 431.836 122.748 433.757 121.453C435.722 120.158 437.978 119.51 440.524 119.51C443.338 119.51 445.884 120.158 448.162 121.453C450.485 122.748 452.338 124.602 453.723 127.014C455.108 129.381 455.8 132.24 455.8 135.59ZM450.373 135.59C450.373 133.223 449.882 131.213 448.899 129.56C447.961 127.907 446.688 126.657 445.08 125.808C443.517 124.959 441.775 124.535 439.854 124.535C438.291 124.535 436.75 124.959 435.231 125.808C433.712 126.657 432.462 127.907 431.479 129.56C430.496 131.213 430.005 133.223 430.005 135.59C430.005 137.957 430.496 139.967 431.479 141.62C432.462 143.273 433.712 144.523 435.231 145.372C436.75 146.221 438.291 146.645 439.854 146.645C441.775 146.645 443.517 146.221 445.08 145.372C446.688 144.523 447.961 143.273 448.899 141.62C449.882 139.967 450.373 137.957 450.373 135.59ZM458.501 120.18H473.911V125.205H458.501V120.18ZM463.526 109.46H468.886V151H463.526V109.46ZM479.287 107.45C479.287 106.423 479.644 105.552 480.359 104.837C481.118 104.122 481.989 103.765 482.972 103.765C483.999 103.765 484.87 104.122 485.585 104.837C486.299 105.552 486.657 106.423 486.657 107.45C486.657 108.433 486.299 109.304 485.585 110.063C484.87 110.778 483.999 111.135 482.972 111.135C481.989 111.135 481.118 110.778 480.359 110.063C479.644 109.304 479.287 108.433 479.287 107.45ZM480.292 120.18H485.652V151H480.292V120.18ZM494.011 135.59C494.011 132.463 494.703 129.694 496.088 127.282C497.517 124.87 499.438 122.972 501.85 121.587C504.262 120.202 506.964 119.51 509.957 119.51C512.994 119.51 515.697 120.202 518.064 121.587C520.476 122.972 522.374 124.87 523.759 127.282C525.188 129.694 525.903 132.463 525.903 135.59C525.903 138.672 525.188 141.441 523.759 143.898C522.374 146.31 520.476 148.208 518.064 149.593C515.697 150.978 512.994 151.67 509.957 151.67C506.964 151.67 504.262 150.978 501.85 149.593C499.438 148.208 497.517 146.31 496.088 143.898C494.703 141.441 494.011 138.672 494.011 135.59ZM499.438 135.59C499.438 137.734 499.885 139.632 500.778 141.285C501.716 142.938 502.967 144.255 504.53 145.238C506.138 146.176 507.947 146.645 509.957 146.645C511.967 146.645 513.754 146.176 515.317 145.238C516.925 144.255 518.176 142.938 519.069 141.285C520.007 139.632 520.476 137.734 520.476 135.59C520.476 133.446 520.007 131.548 519.069 129.895C518.176 128.198 516.925 126.88 515.317 125.942C513.754 125.004 511.967 124.535 509.957 124.535C507.947 124.535 506.138 125.004 504.53 125.942C502.967 126.88 501.716 128.198 500.778 129.895C499.885 131.548 499.438 133.446 499.438 135.59ZM553.031 132.24C553.031 129.694 552.473 127.773 551.356 126.478C550.24 125.183 548.609 124.535 546.465 124.535C544.902 124.535 543.517 124.87 542.311 125.54C541.15 126.165 540.234 127.059 539.564 128.22C538.939 129.381 538.626 130.721 538.626 132.24V151H533.266V120.18H538.626V125.004C539.654 123.128 540.927 121.743 542.445 120.85C544.009 119.957 545.795 119.51 547.805 119.51C551.066 119.51 553.634 120.604 555.51 122.793C557.431 124.937 558.391 127.863 558.391 131.57V151H553.031V132.24Z"
              fill="white"/>
    </g>
    <g filter="url(#filter1_d_15_237)">
        <path d="M150.386 218C147.782 218 145.88 217.4 144.68 216.2C143.48 215 142.88 213.098 142.88 210.494V202.304C142.88 199.676 143.474 197.768 144.662 196.58C145.862 195.392 147.758 194.798 150.35 194.798H154.706C156.914 194.798 158.558 195.26 159.638 196.184C160.718 197.096 161.312 198.566 161.42 200.594C161.456 200.918 161.39 201.164 161.222 201.332C161.066 201.5 160.832 201.584 160.52 201.584C159.92 201.584 159.59 201.266 159.53 200.63C159.446 199.142 159.038 198.116 158.306 197.552C157.574 196.976 156.374 196.688 154.706 196.688H150.35C148.97 196.688 147.872 196.868 147.056 197.228C146.24 197.576 145.652 198.164 145.292 198.992C144.944 199.808 144.77 200.912 144.77 202.304V210.494C144.77 211.886 144.95 212.99 145.31 213.806C145.67 214.622 146.258 215.21 147.074 215.57C147.89 215.93 148.994 216.11 150.386 216.11H154.706C156.374 216.11 157.574 215.828 158.306 215.264C159.038 214.688 159.446 213.656 159.53 212.168C159.59 211.532 159.92 211.214 160.52 211.214C160.832 211.214 161.066 211.304 161.222 211.484C161.39 211.652 161.456 211.892 161.42 212.204C161.312 214.232 160.718 215.708 159.638 216.632C158.558 217.544 156.914 218 154.706 218H150.386ZM171.878 218C169.634 218 167.99 217.484 166.946 216.452C165.902 215.408 165.38 213.77 165.38 211.538V207.47C165.38 205.202 165.902 203.552 166.946 202.52C167.99 201.476 169.634 200.966 171.878 200.99H174.83C177.074 200.99 178.712 201.512 179.744 202.556C180.788 203.588 181.31 205.226 181.31 207.47V211.502C181.31 213.746 180.788 215.39 179.744 216.434C178.712 217.478 177.074 218 174.83 218H171.878ZM167.27 211.538C167.27 213.23 167.606 214.418 168.278 215.102C168.962 215.774 170.162 216.11 171.878 216.11H174.83C176.546 216.11 177.74 215.774 178.412 215.102C179.084 214.418 179.42 213.218 179.42 211.502V207.47C179.42 205.754 179.084 204.56 178.412 203.888C177.74 203.216 176.546 202.88 174.83 202.88H171.878C170.726 202.868 169.814 203.006 169.142 203.294C168.47 203.582 167.99 204.062 167.702 204.734C167.414 205.406 167.27 206.318 167.27 207.47V211.538ZM188.511 218C187.875 218 187.557 217.682 187.557 217.046V201.926C187.557 201.302 187.875 200.99 188.511 200.99C189.135 200.99 189.447 201.302 189.447 201.926V203.654C190.587 201.878 192.651 200.99 195.639 200.99H196.647C198.891 200.99 200.529 201.512 201.561 202.556C202.605 203.588 203.127 205.226 203.127 207.47V217.046C203.127 217.682 202.815 218 202.191 218C201.555 218 201.237 217.682 201.237 217.046V207.47C201.237 205.754 200.895 204.56 200.211 203.888C199.539 203.216 198.351 202.88 196.647 202.88H195.639C193.779 202.88 192.315 203.174 191.247 203.762C190.179 204.35 189.579 205.268 189.447 206.516V217.046C189.447 217.682 189.135 218 188.511 218ZM216.478 218C214.27 218 212.656 217.49 211.636 216.47C210.616 215.45 210.106 213.842 210.106 211.646V202.88H207.964C207.328 202.88 207.01 202.562 207.01 201.926C207.01 201.302 207.328 200.99 207.964 200.99H210.106V197.12C210.106 196.484 210.418 196.166 211.042 196.166C211.678 196.166 211.996 196.484 211.996 197.12V200.99H216.514C217.138 200.99 217.45 201.302 217.45 201.926C217.45 202.562 217.138 202.88 216.514 202.88H211.996V211.646C211.996 213.326 212.32 214.49 212.968 215.138C213.628 215.786 214.798 216.11 216.478 216.11C216.826 216.11 217.072 216.188 217.216 216.344C217.372 216.5 217.45 216.734 217.45 217.046C217.45 217.682 217.126 218 216.478 218ZM222.395 210.224V211.538C222.395 213.23 222.731 214.418 223.403 215.102C224.087 215.774 225.287 216.11 227.003 216.11H229.955C231.467 216.11 232.565 215.918 233.249 215.534C233.945 215.138 234.359 214.46 234.491 213.5C234.539 213.2 234.635 212.972 234.779 212.816C234.935 212.66 235.169 212.582 235.481 212.582C235.793 212.582 236.027 212.672 236.183 212.852C236.351 213.02 236.417 213.26 236.381 213.572C236.225 215.084 235.619 216.2 234.563 216.92C233.507 217.64 231.971 218 229.955 218H227.003C224.759 218 223.115 217.484 222.071 216.452C221.027 215.408 220.505 213.77 220.505 211.538V207.47C220.505 205.202 221.027 203.552 222.071 202.52C223.115 201.476 224.759 200.966 227.003 200.99H229.955C232.199 200.99 233.837 201.512 234.869 202.556C235.913 203.588 236.435 205.226 236.435 207.47V209.27C236.435 209.906 236.123 210.224 235.499 210.224H222.395ZM227.003 202.88C225.287 202.856 224.087 203.186 223.403 203.87C222.731 204.542 222.395 205.742 222.395 207.47V208.334H234.545V207.47C234.545 205.754 234.209 204.56 233.537 203.888C232.865 203.216 231.671 202.88 229.955 202.88H227.003ZM243.636 218C243 218 242.682 217.682 242.682 217.046V201.926C242.682 201.302 243 200.99 243.636 200.99C244.26 200.99 244.572 201.302 244.572 201.926V203.654C245.712 201.878 247.776 200.99 250.764 200.99H251.772C254.016 200.99 255.654 201.512 256.686 202.556C257.73 203.588 258.252 205.226 258.252 207.47V217.046C258.252 217.682 257.94 218 257.316 218C256.68 218 256.362 217.682 256.362 217.046V207.47C256.362 205.754 256.02 204.56 255.336 203.888C254.664 203.216 253.476 202.88 251.772 202.88H250.764C248.904 202.88 247.44 203.174 246.372 203.762C245.304 204.35 244.704 205.268 244.572 206.516V217.046C244.572 217.682 244.26 218 243.636 218ZM271.603 218C269.395 218 267.781 217.49 266.761 216.47C265.741 215.45 265.231 213.842 265.231 211.646V202.88H263.089C262.453 202.88 262.135 202.562 262.135 201.926C262.135 201.302 262.453 200.99 263.089 200.99H265.231V197.12C265.231 196.484 265.543 196.166 266.167 196.166C266.803 196.166 267.121 196.484 267.121 197.12V200.99H271.639C272.263 200.99 272.575 201.302 272.575 201.926C272.575 202.562 272.263 202.88 271.639 202.88H267.121V211.646C267.121 213.326 267.445 214.49 268.093 215.138C268.753 215.786 269.923 216.11 271.603 216.11C271.951 216.11 272.197 216.188 272.341 216.344C272.497 216.5 272.575 216.734 272.575 217.046C272.575 217.682 272.251 218 271.603 218ZM293.613 218C291.009 218 289.107 217.4 287.907 216.2C286.707 215 286.107 213.098 286.107 210.494V202.304C286.107 199.676 286.701 197.768 287.889 196.58C289.089 195.392 290.985 194.798 293.577 194.798H297.933C300.141 194.798 301.785 195.26 302.865 196.184C303.945 197.096 304.539 198.566 304.647 200.594C304.683 200.918 304.617 201.164 304.449 201.332C304.293 201.5 304.059 201.584 303.747 201.584C303.147 201.584 302.817 201.266 302.757 200.63C302.673 199.142 302.265 198.116 301.533 197.552C300.801 196.976 299.601 196.688 297.933 196.688H293.577C292.197 196.688 291.099 196.868 290.283 197.228C289.467 197.576 288.879 198.164 288.519 198.992C288.171 199.808 287.997 200.912 287.997 202.304V210.494C287.997 211.886 288.177 212.99 288.537 213.806C288.897 214.622 289.485 215.21 290.301 215.57C291.117 215.93 292.221 216.11 293.613 216.11H297.933C299.601 216.11 300.801 215.828 301.533 215.264C302.265 214.688 302.673 213.656 302.757 212.168C302.817 211.532 303.147 211.214 303.747 211.214C304.059 211.214 304.293 211.304 304.449 211.484C304.617 211.652 304.683 211.892 304.647 212.204C304.539 214.232 303.945 215.708 302.865 216.632C301.785 217.544 300.141 218 297.933 218H293.613ZM311.488 218C310.852 218 310.534 217.682 310.534 217.046V201.926C310.534 201.302 310.852 200.99 311.488 200.99C312.112 200.99 312.424 201.302 312.424 201.926V204.698C313.048 203.498 313.948 202.58 315.124 201.944C316.312 201.308 317.716 200.99 319.336 200.99C319.972 200.99 320.29 201.302 320.29 201.926C320.29 202.562 319.972 202.88 319.336 202.88C317.2 202.88 315.544 203.366 314.368 204.338C313.192 205.298 312.544 206.672 312.424 208.46V217.046C312.424 217.682 312.112 218 311.488 218ZM324.805 210.224V211.538C324.805 213.23 325.141 214.418 325.813 215.102C326.497 215.774 327.697 216.11 329.413 216.11H332.365C333.877 216.11 334.975 215.918 335.659 215.534C336.355 215.138 336.769 214.46 336.901 213.5C336.949 213.2 337.045 212.972 337.189 212.816C337.345 212.66 337.579 212.582 337.891 212.582C338.203 212.582 338.437 212.672 338.593 212.852C338.761 213.02 338.827 213.26 338.791 213.572C338.635 215.084 338.029 216.2 336.973 216.92C335.917 217.64 334.381 218 332.365 218H329.413C327.169 218 325.525 217.484 324.481 216.452C323.437 215.408 322.915 213.77 322.915 211.538V207.47C322.915 205.202 323.437 203.552 324.481 202.52C325.525 201.476 327.169 200.966 329.413 200.99H332.365C334.609 200.99 336.247 201.512 337.279 202.556C338.323 203.588 338.845 205.226 338.845 207.47V209.27C338.845 209.906 338.533 210.224 337.909 210.224H324.805ZM329.413 202.88C327.697 202.856 326.497 203.186 325.813 203.87C325.141 204.542 324.805 205.742 324.805 207.47V208.334H336.955V207.47C336.955 205.754 336.619 204.56 335.947 203.888C335.275 203.216 334.081 202.88 332.365 202.88H329.413ZM350.151 218C348.279 218 346.905 217.568 346.029 216.704C345.165 215.828 344.733 214.454 344.733 212.582C344.733 210.71 345.171 209.336 346.047 208.46C346.923 207.584 348.291 207.146 350.151 207.146H358.341C358.317 205.562 357.957 204.458 357.261 203.834C356.577 203.198 355.407 202.88 353.751 202.88H351.663C350.139 202.88 349.023 203.042 348.315 203.366C347.607 203.69 347.169 204.242 347.001 205.022C346.917 205.322 346.803 205.544 346.659 205.688C346.527 205.82 346.311 205.886 346.011 205.886C345.699 205.886 345.453 205.802 345.273 205.634C345.105 205.454 345.045 205.214 345.093 204.914C345.249 203.546 345.867 202.55 346.947 201.926C348.039 201.302 349.611 200.99 351.663 200.99H353.751C355.995 200.99 357.633 201.512 358.665 202.556C359.709 203.588 360.231 205.226 360.231 207.47V217.046C360.231 217.682 359.919 218 359.295 218C358.659 218 358.341 217.682 358.341 217.046V215.264C357.189 217.088 355.131 218 352.167 218H350.151ZM350.151 216.11H352.167C353.331 216.11 354.351 215.984 355.227 215.732C356.115 215.468 356.829 215.048 357.369 214.472C357.909 213.896 358.233 213.128 358.341 212.168V209.036H350.151C348.819 209.036 347.895 209.294 347.379 209.81C346.875 210.314 346.623 211.238 346.623 212.582C346.623 213.914 346.875 214.838 347.379 215.354C347.895 215.858 348.819 216.11 350.151 216.11ZM373.591 218C371.383 218 369.769 217.49 368.749 216.47C367.729 215.45 367.219 213.842 367.219 211.646V202.88H365.077C364.441 202.88 364.123 202.562 364.123 201.926C364.123 201.302 364.441 200.99 365.077 200.99H367.219V197.12C367.219 196.484 367.531 196.166 368.155 196.166C368.791 196.166 369.109 196.484 369.109 197.12V200.99H373.627C374.251 200.99 374.563 201.302 374.563 201.926C374.563 202.562 374.251 202.88 373.627 202.88H369.109V211.646C369.109 213.326 369.433 214.49 370.081 215.138C370.741 215.786 371.911 216.11 373.591 216.11C373.939 216.11 374.185 216.188 374.329 216.344C374.485 216.5 374.563 216.734 374.563 217.046C374.563 217.682 374.239 218 373.591 218ZM380.086 197.714C379.258 197.714 378.844 197.288 378.844 196.436V195.626C378.844 194.798 379.258 194.384 380.086 194.384H380.896C381.7 194.384 382.102 194.798 382.102 195.626V196.436C382.102 197.288 381.7 197.714 380.896 197.714H380.086ZM380.5 218C379.864 218 379.546 217.682 379.546 217.046V201.926C379.546 201.302 379.864 200.99 380.5 200.99C381.124 200.99 381.436 201.302 381.436 201.926V217.046C381.436 217.682 381.124 218 380.5 218ZM394.171 218C391.927 218 390.283 217.484 389.239 216.452C388.195 215.408 387.673 213.77 387.673 211.538V207.47C387.673 205.202 388.195 203.552 389.239 202.52C390.283 201.476 391.927 200.966 394.171 200.99H397.123C399.367 200.99 401.005 201.512 402.037 202.556C403.081 203.588 403.603 205.226 403.603 207.47V211.502C403.603 213.746 403.081 215.39 402.037 216.434C401.005 217.478 399.367 218 397.123 218H394.171ZM389.563 211.538C389.563 213.23 389.899 214.418 390.571 215.102C391.255 215.774 392.455 216.11 394.171 216.11H397.123C398.839 216.11 400.033 215.774 400.705 215.102C401.377 214.418 401.713 213.218 401.713 211.502V207.47C401.713 205.754 401.377 204.56 400.705 203.888C400.033 203.216 398.839 202.88 397.123 202.88H394.171C393.019 202.868 392.107 203.006 391.435 203.294C390.763 203.582 390.283 204.062 389.995 204.734C389.707 205.406 389.563 206.318 389.563 207.47V211.538ZM410.804 218C410.168 218 409.85 217.682 409.85 217.046V201.926C409.85 201.302 410.168 200.99 410.804 200.99C411.428 200.99 411.74 201.302 411.74 201.926V203.654C412.88 201.878 414.944 200.99 417.932 200.99H418.94C421.184 200.99 422.822 201.512 423.854 202.556C424.898 203.588 425.42 205.226 425.42 207.47V217.046C425.42 217.682 425.108 218 424.484 218C423.848 218 423.53 217.682 423.53 217.046V207.47C423.53 205.754 423.188 204.56 422.504 203.888C421.832 203.216 420.644 202.88 418.94 202.88H417.932C416.072 202.88 414.608 203.174 413.54 203.762C412.472 204.35 411.872 205.268 411.74 206.516V217.046C411.74 217.682 411.428 218 410.804 218Z"
              fill="white"/>
    </g>
    <defs>
        <filter id="filter0_d_15_237" x="6.35986" y="98.74" width="556.031" height="75" filterUnits="userSpaceOnUse"
                color-interpolation-filters="sRGB">
            <feFlood flood-opacity="0" result="BackgroundImageFix"/>
            <feColorMatrix in="SourceAlpha" type="matrix" values="0 0 0 0 0 0 0 0 0 0 0 0 0 0 0 0 0 0 127 0"
                           result="hardAlpha"/>
            <feOffset dy="4"/>
            <feGaussianBlur stdDeviation="2"/>
            <feComposite in2="hardAlpha" operator="out"/>
            <feColorMatrix type="matrix" values="0 0 0 0 0 0 0 0 0 0 0 0 0 0 0 0 0 0 0.25 0"/>
            <feBlend mode="normal" in2="BackgroundImageFix" result="effect1_dropShadow_15_237"/>
            <feBlend mode="normal" in="SourceGraphic" in2="effect1_dropShadow_15_237" result="shape"/>
        </filter>
        <filter id="filter1_d_15_237" x="138.88" y="194.384" width="290.541" height="31.616"
                filterUnits="userSpaceOnUse" color-interpolation-filters="sRGB">
            <feFlood flood-opacity="0" result="BackgroundImageFix"/>
            <feColorMatrix in="SourceAlpha" type="matrix" values="0 0 0 0 0 0 0 0 0 0 0 0 0 0 0 0 0 0 127 0"
                           result="hardAlpha"/>
            <feOffset dy="4"/>
            <feGaussianBlur stdDeviation="2"/>
            <feComposite in2="hardAlpha" operator="out"/>
            <feColorMatrix type="matrix" values="0 0 0 0 0 0 0 0 0 0 0 0 0 0 0 0 0 0 0.25 0"/>
            <feBlend mode="normal" in2="BackgroundImageFix" result="effect1_dropShadow_15_237"/>
            <feBlend mode="normal" in="SourceGraphic" in2="effect1_dropShadow_15_237" result="shape"/>
        </filter>
    </defs>
</svg>
