<svg width="570" height="352" viewBox="0 0 570 352" fill="none" xmlns="http://www.w3.org/2000/svg">
    <rect x="0.5" y="0.5" width="569" height="351" rx="19.5" fill="#96DED6"/>
    <rect x="0.5" y="0.5" width="569" height="351" rx="19.5" stroke="#BDBDBD"/>
    <g filter="url(#filter0_d_15_269)">
        <path d="M69.735 146.885H76.1L92.85 170H85.815L69.735 146.885ZM61.36 123.1H67.055V170H61.36V123.1ZM64.509 128.125V123.1H74.09C77.1273 123.1 79.8297 123.681 82.197 124.842C84.609 125.959 86.5073 127.567 87.892 129.666C89.3213 131.765 90.036 134.267 90.036 137.17C90.036 140.029 89.3213 142.53 87.892 144.674C86.5073 146.773 84.609 148.404 82.197 149.565C79.8297 150.682 77.1273 151.24 74.09 151.24H64.509V146.215H74.09C76.1 146.215 77.8643 145.858 79.383 145.143C80.9463 144.428 82.1523 143.401 83.001 142.061C83.8943 140.721 84.341 139.091 84.341 137.17C84.341 135.249 83.8943 133.619 83.001 132.279C82.1523 130.939 80.9463 129.912 79.383 129.197C77.8643 128.482 76.1 128.125 74.09 128.125H64.509ZM110.442 170.67C107.584 170.67 105.038 170 102.804 168.66C100.616 167.275 98.8959 165.377 97.6452 162.965C96.4392 160.553 95.8362 157.761 95.8362 154.59C95.8362 151.374 96.4615 148.56 97.7122 146.148C99.0075 143.736 100.794 141.86 103.072 140.52C105.395 139.18 108.075 138.51 111.112 138.51C114.15 138.51 116.74 139.158 118.884 140.453C121.073 141.704 122.748 143.513 123.909 145.88C125.071 148.247 125.651 151.061 125.651 154.322C125.651 154.635 125.629 154.97 125.584 155.327C125.584 155.64 125.584 155.841 125.584 155.93H99.2532V151.374H121.363L119.219 154.456C119.353 154.233 119.487 153.898 119.621 153.451C119.755 152.96 119.822 152.558 119.822 152.245C119.822 150.414 119.443 148.828 118.683 147.488C117.969 146.148 116.964 145.098 115.668 144.339C114.373 143.58 112.854 143.2 111.112 143.2C109.058 143.2 107.293 143.647 105.819 144.54C104.39 145.389 103.273 146.639 102.469 148.292C101.71 149.9 101.308 151.888 101.263 154.255C101.263 156.667 101.643 158.722 102.402 160.419C103.162 162.116 104.278 163.412 105.752 164.305C107.226 165.198 109.013 165.645 111.112 165.645C113.212 165.645 115.065 165.198 116.673 164.305C118.281 163.367 119.644 161.96 120.76 160.084L125.115 162.831C123.507 165.422 121.475 167.387 119.018 168.727C116.606 170.022 113.748 170.67 110.442 170.67ZM134.271 160.553C134.896 161.491 135.611 162.362 136.415 163.166C137.219 163.97 138.134 164.618 139.162 165.109C140.234 165.556 141.395 165.779 142.646 165.779C144.164 165.779 145.348 165.444 146.197 164.774C147.09 164.059 147.537 163.099 147.537 161.893C147.537 160.821 147.179 159.928 146.465 159.213C145.795 158.454 144.924 157.828 143.852 157.337C142.78 156.801 141.641 156.31 140.435 155.863C139.095 155.327 137.732 154.702 136.348 153.987C135.008 153.228 133.869 152.267 132.931 151.106C132.037 149.9 131.591 148.404 131.591 146.617C131.591 144.786 132.06 143.267 132.998 142.061C133.98 140.855 135.231 139.962 136.75 139.381C138.313 138.8 139.921 138.51 141.574 138.51C143.226 138.51 144.767 138.778 146.197 139.314C147.671 139.85 148.966 140.565 150.083 141.458C151.199 142.351 152.07 143.379 152.696 144.54L148.408 147.287C147.559 146.126 146.487 145.165 145.192 144.406C143.941 143.647 142.512 143.267 140.904 143.267C139.787 143.267 138.827 143.513 138.023 144.004C137.219 144.495 136.817 145.255 136.817 146.282C136.817 147.086 137.129 147.801 137.755 148.426C138.38 149.051 139.184 149.61 140.167 150.101C141.149 150.592 142.177 151.061 143.249 151.508C145.035 152.223 146.666 153.004 148.14 153.853C149.614 154.657 150.775 155.64 151.624 156.801C152.517 157.962 152.964 159.459 152.964 161.29C152.964 163.97 151.981 166.203 150.016 167.99C148.095 169.777 145.549 170.67 142.378 170.67C140.323 170.67 138.469 170.313 136.817 169.598C135.164 168.839 133.757 167.878 132.596 166.717C131.479 165.556 130.63 164.372 130.05 163.166L134.271 160.553ZM171.946 170.67C169.087 170.67 166.541 170 164.308 168.66C162.119 167.275 160.4 165.377 159.149 162.965C157.943 160.553 157.34 157.761 157.34 154.59C157.34 151.374 157.965 148.56 159.216 146.148C160.511 143.736 162.298 141.86 164.576 140.52C166.899 139.18 169.579 138.51 172.616 138.51C175.653 138.51 178.244 139.158 180.388 140.453C182.577 141.704 184.252 143.513 185.413 145.88C186.574 148.247 187.155 151.061 187.155 154.322C187.155 154.635 187.133 154.97 187.088 155.327C187.088 155.64 187.088 155.841 187.088 155.93H160.757V151.374H182.867L180.723 154.456C180.857 154.233 180.991 153.898 181.125 153.451C181.259 152.96 181.326 152.558 181.326 152.245C181.326 150.414 180.946 148.828 180.187 147.488C179.472 146.148 178.467 145.098 177.172 144.339C175.877 143.58 174.358 143.2 172.616 143.2C170.561 143.2 168.797 143.647 167.323 144.54C165.894 145.389 164.777 146.639 163.973 148.292C163.214 149.9 162.812 151.888 162.767 154.255C162.767 156.667 163.147 158.722 163.906 160.419C164.665 162.116 165.782 163.412 167.256 164.305C168.73 165.198 170.517 165.645 172.616 165.645C174.715 165.645 176.569 165.198 178.177 164.305C179.785 163.367 181.147 161.96 182.264 160.084L186.619 162.831C185.011 165.422 182.979 167.387 180.522 168.727C178.11 170.022 175.251 170.67 171.946 170.67ZM196.914 160.486C196.914 161.647 197.182 162.652 197.718 163.501C198.298 164.35 199.08 164.997 200.063 165.444C201.09 165.846 202.251 166.047 203.547 166.047C205.199 166.047 206.673 165.712 207.969 165.042C209.309 164.372 210.358 163.434 211.118 162.228C211.922 160.977 212.324 159.548 212.324 157.94L213.396 161.96C213.396 163.925 212.793 165.556 211.587 166.851C210.425 168.146 208.974 169.107 207.232 169.732C205.534 170.357 203.837 170.67 202.14 170.67C200.264 170.67 198.499 170.29 196.847 169.531C195.239 168.727 193.943 167.588 192.961 166.114C191.978 164.64 191.487 162.853 191.487 160.754C191.487 157.761 192.536 155.372 194.636 153.585C196.78 151.754 199.75 150.838 203.547 150.838C205.78 150.838 207.634 151.106 209.108 151.642C210.626 152.133 211.832 152.714 212.726 153.384C213.619 154.009 214.222 154.523 214.535 154.925V158.074C212.971 157.002 211.363 156.243 209.711 155.796C208.058 155.305 206.294 155.059 204.418 155.059C202.676 155.059 201.246 155.282 200.13 155.729C199.058 156.176 198.254 156.801 197.718 157.605C197.182 158.409 196.914 159.369 196.914 160.486ZM196.11 146.282L193.497 142.329C194.658 141.48 196.244 140.632 198.254 139.783C200.308 138.934 202.765 138.51 205.624 138.51C208.036 138.51 210.135 138.89 211.922 139.649C213.753 140.364 215.16 141.413 216.143 142.798C217.17 144.183 217.684 145.88 217.684 147.89V170H212.324V148.627C212.324 147.555 212.145 146.684 211.788 146.014C211.43 145.299 210.917 144.741 210.247 144.339C209.621 143.937 208.884 143.647 208.036 143.468C207.187 143.289 206.294 143.2 205.356 143.2C203.837 143.2 202.452 143.379 201.202 143.736C199.996 144.093 198.968 144.518 198.12 145.009C197.271 145.5 196.601 145.925 196.11 146.282ZM232.118 139.18V170H226.758V139.18H232.118ZM241.431 145.076C240.717 144.54 240.069 144.16 239.488 143.937C238.908 143.669 238.171 143.535 237.277 143.535C235.937 143.535 234.888 143.87 234.128 144.54C233.369 145.21 232.833 146.126 232.52 147.287C232.252 148.448 232.118 149.766 232.118 151.24H229.706C229.706 148.783 230.131 146.617 230.979 144.741C231.873 142.82 233.012 141.302 234.396 140.185C235.781 139.068 237.188 138.51 238.617 138.51C239.734 138.51 240.761 138.666 241.699 138.979C242.682 139.247 243.575 139.805 244.379 140.654L241.431 145.076ZM251.155 154.59C251.155 156.734 251.601 158.632 252.495 160.285C253.433 161.938 254.683 163.255 256.247 164.238C257.855 165.176 259.664 165.645 261.674 165.645C263.326 165.645 264.867 165.399 266.297 164.908C267.771 164.372 269.044 163.68 270.116 162.831C271.188 161.938 271.947 161 272.394 160.017V166.717C271.322 167.968 269.781 168.95 267.771 169.665C265.805 170.335 263.773 170.67 261.674 170.67C258.681 170.67 255.979 169.978 253.567 168.593C251.155 167.208 249.234 165.31 247.805 162.898C246.42 160.441 245.728 157.672 245.728 154.59C245.728 151.463 246.42 148.694 247.805 146.282C249.234 143.87 251.155 141.972 253.567 140.587C255.979 139.202 258.681 138.51 261.674 138.51C263.773 138.51 265.805 138.867 267.771 139.582C269.781 140.252 271.322 141.212 272.394 142.463V149.163C271.947 148.136 271.188 147.198 270.116 146.349C269.044 145.5 267.771 144.83 266.297 144.339C264.867 143.803 263.326 143.535 261.674 143.535C259.664 143.535 257.855 144.004 256.247 144.942C254.683 145.88 253.433 147.198 252.495 148.895C251.601 150.548 251.155 152.446 251.155 154.59ZM286.098 117.74V170H280.738V117.74H286.098ZM300.503 151.24C300.503 148.694 299.945 146.773 298.828 145.478C297.756 144.183 296.126 143.535 293.937 143.535C292.374 143.535 290.989 143.87 289.783 144.54C288.622 145.21 287.706 146.126 287.036 147.287C286.411 148.448 286.098 149.766 286.098 151.24H284.356C284.356 148.783 284.825 146.617 285.763 144.741C286.701 142.82 287.974 141.302 289.582 140.185C291.235 139.068 293.133 138.51 295.277 138.51C297.421 138.51 299.275 138.957 300.838 139.85C302.446 140.743 303.674 142.083 304.523 143.87C305.416 145.657 305.863 147.89 305.863 150.57V170H300.503V151.24ZM340.85 155.93L342.86 150.57H363.63L365.64 155.93H340.85ZM353.111 133.686L345.205 152.312L344.669 153.518L337.701 170H331.336L353.111 120.755L374.886 170H368.521L361.687 153.92L361.151 152.58L353.111 133.686ZM385.616 139.18V170H380.256V139.18H385.616ZM394.929 145.076C394.215 144.54 393.567 144.16 392.986 143.937C392.406 143.669 391.669 143.535 390.775 143.535C389.435 143.535 388.386 143.87 387.626 144.54C386.867 145.21 386.331 146.126 386.018 147.287C385.75 148.448 385.616 149.766 385.616 151.24H383.204C383.204 148.783 383.629 146.617 384.477 144.741C385.371 142.82 386.51 141.302 387.894 140.185C389.279 139.068 390.686 138.51 392.115 138.51C393.232 138.51 394.259 138.666 395.197 138.979C396.18 139.247 397.073 139.805 397.877 140.654L394.929 145.076ZM398.532 139.18H413.942V144.205H398.532V139.18ZM403.557 128.46H408.917V170H403.557V128.46ZM419.318 126.45C419.318 125.423 419.675 124.552 420.39 123.837C421.149 123.122 422.02 122.765 423.003 122.765C424.03 122.765 424.901 123.122 425.616 123.837C426.331 124.552 426.688 125.423 426.688 126.45C426.688 127.433 426.331 128.304 425.616 129.063C424.901 129.778 424.03 130.135 423.003 130.135C422.02 130.135 421.149 129.778 420.39 129.063C419.675 128.304 419.318 127.433 419.318 126.45ZM420.323 139.18H425.683V170H420.323V139.18ZM439.134 154.59C439.134 156.734 439.581 158.632 440.474 160.285C441.412 161.938 442.663 163.255 444.226 164.238C445.834 165.176 447.643 165.645 449.653 165.645C451.306 165.645 452.847 165.399 454.276 164.908C455.75 164.372 457.023 163.68 458.095 162.831C459.167 161.938 459.927 161 460.373 160.017V166.717C459.301 167.968 457.76 168.95 455.75 169.665C453.785 170.335 451.753 170.67 449.653 170.67C446.661 170.67 443.958 169.978 441.546 168.593C439.134 167.208 437.214 165.31 435.784 162.898C434.4 160.441 433.707 157.672 433.707 154.59C433.707 151.463 434.4 148.694 435.784 146.282C437.214 143.87 439.134 141.972 441.546 140.587C443.958 139.202 446.661 138.51 449.653 138.51C451.753 138.51 453.785 138.867 455.75 139.582C457.76 140.252 459.301 141.212 460.373 142.463V149.163C459.927 148.136 459.167 147.198 458.095 146.349C457.023 145.5 455.75 144.83 454.276 144.339C452.847 143.803 451.306 143.535 449.653 143.535C447.643 143.535 445.834 144.004 444.226 144.942C442.663 145.88 441.412 147.198 440.474 148.895C439.581 150.548 439.134 152.446 439.134 154.59ZM468.717 117.74H474.077V170H468.717V117.74ZM496.085 170.67C493.226 170.67 490.68 170 488.447 168.66C486.258 167.275 484.538 165.377 483.288 162.965C482.082 160.553 481.479 157.761 481.479 154.59C481.479 151.374 482.104 148.56 483.355 146.148C484.65 143.736 486.437 141.86 488.715 140.52C491.037 139.18 493.717 138.51 496.755 138.51C499.792 138.51 502.383 139.158 504.527 140.453C506.715 141.704 508.39 143.513 509.552 145.88C510.713 148.247 511.294 151.061 511.294 154.322C511.294 154.635 511.271 154.97 511.227 155.327C511.227 155.64 511.227 155.841 511.227 155.93H484.896V151.374H507.006L504.862 154.456C504.996 154.233 505.13 153.898 505.264 153.451C505.398 152.96 505.465 152.558 505.465 152.245C505.465 150.414 505.085 148.828 504.326 147.488C503.611 146.148 502.606 145.098 501.311 144.339C500.015 143.58 498.497 143.2 496.755 143.2C494.7 143.2 492.936 143.647 491.462 144.54C490.032 145.389 488.916 146.639 488.112 148.292C487.352 149.9 486.95 151.888 486.906 154.255C486.906 156.667 487.285 158.722 488.045 160.419C488.804 162.116 489.921 163.412 491.395 164.305C492.869 165.198 494.655 165.645 496.755 165.645C498.854 165.645 500.708 165.198 502.316 164.305C503.924 163.367 505.286 161.96 506.403 160.084L510.758 162.831C509.15 165.422 507.117 167.387 504.661 168.727C502.249 170.022 499.39 170.67 496.085 170.67ZM519.913 160.553C520.539 161.491 521.253 162.362 522.057 163.166C522.861 163.97 523.777 164.618 524.804 165.109C525.876 165.556 527.038 165.779 528.288 165.779C529.807 165.779 530.991 165.444 531.839 164.774C532.733 164.059 533.179 163.099 533.179 161.893C533.179 160.821 532.822 159.928 532.107 159.213C531.437 158.454 530.566 157.828 529.494 157.337C528.422 156.801 527.283 156.31 526.077 155.863C524.737 155.327 523.375 154.702 521.99 153.987C520.65 153.228 519.511 152.267 518.573 151.106C517.68 149.9 517.233 148.404 517.233 146.617C517.233 144.786 517.702 143.267 518.64 142.061C519.623 140.855 520.874 139.962 522.392 139.381C523.956 138.8 525.564 138.51 527.216 138.51C528.869 138.51 530.41 138.778 531.839 139.314C533.313 139.85 534.609 140.565 535.725 141.458C536.842 142.351 537.713 143.379 538.338 144.54L534.05 147.287C533.202 146.126 532.13 145.165 530.834 144.406C529.584 143.647 528.154 143.267 526.546 143.267C525.43 143.267 524.469 143.513 523.665 144.004C522.861 144.495 522.459 145.255 522.459 146.282C522.459 147.086 522.772 147.801 523.397 148.426C524.023 149.051 524.827 149.61 525.809 150.101C526.792 150.592 527.819 151.061 528.891 151.508C530.678 152.223 532.308 153.004 533.782 153.853C535.256 154.657 536.418 155.64 537.266 156.801C538.16 157.962 538.606 159.459 538.606 161.29C538.606 163.97 537.624 166.203 535.658 167.99C533.738 169.777 531.192 170.67 528.02 170.67C525.966 170.67 524.112 170.313 522.459 169.598C520.807 168.839 519.4 167.878 518.238 166.717C517.122 165.556 516.273 164.372 515.692 163.166L519.913 160.553Z"
              fill="white"/>
    </g>
    <g filter="url(#filter1_d_15_269)">
        <path d="M141.548 217.91C140.972 217.658 140.798 217.238 141.026 216.65L149.954 195.536C150.146 195.044 150.5 194.798 151.016 194.798H151.124C151.616 194.81 151.964 195.056 152.168 195.536L161.096 216.65C161.336 217.238 161.168 217.658 160.592 217.91C160.004 218.15 159.596 217.982 159.368 217.406L156.974 211.736H145.184L142.79 217.406C142.55 217.982 142.136 218.15 141.548 217.91ZM145.958 209.846H156.182L151.07 197.786L145.958 209.846ZM170.788 218C168.544 218 166.9 217.478 165.856 216.434C164.812 215.39 164.29 213.746 164.29 211.502V207.434C164.29 205.19 164.806 203.552 165.838 202.52C166.882 201.476 168.532 200.966 170.788 200.99H173.74C175.504 200.99 176.848 201.29 177.772 201.89C178.708 202.478 179.266 203.408 179.446 204.68C179.482 205.004 179.41 205.25 179.23 205.418C179.062 205.586 178.822 205.67 178.51 205.67C178.222 205.67 178.006 205.598 177.862 205.454C177.718 205.298 177.61 205.076 177.538 204.788C177.406 204.092 177.052 203.6 176.476 203.312C175.9 203.024 174.988 202.88 173.74 202.88H170.788C169.072 202.856 167.872 203.18 167.188 203.852C166.516 204.512 166.18 205.706 166.18 207.434V211.502C166.18 213.218 166.516 214.418 167.188 215.102C167.872 215.774 169.072 216.11 170.788 216.11H173.74C174.988 216.11 175.9 215.966 176.476 215.678C177.052 215.39 177.406 214.892 177.538 214.184C177.61 213.896 177.718 213.68 177.862 213.536C178.006 213.38 178.222 213.302 178.51 213.302C178.822 213.302 179.062 213.392 179.23 213.572C179.41 213.74 179.482 213.98 179.446 214.292C179.266 215.564 178.708 216.5 177.772 217.1C176.848 217.7 175.504 218 173.74 218H170.788ZM189.697 218C187.825 218 186.451 217.568 185.575 216.704C184.711 215.828 184.279 214.454 184.279 212.582C184.279 210.71 184.717 209.336 185.593 208.46C186.469 207.584 187.837 207.146 189.697 207.146H197.887C197.863 205.562 197.503 204.458 196.807 203.834C196.123 203.198 194.953 202.88 193.297 202.88H191.209C189.685 202.88 188.569 203.042 187.861 203.366C187.153 203.69 186.715 204.242 186.547 205.022C186.463 205.322 186.349 205.544 186.205 205.688C186.073 205.82 185.857 205.886 185.557 205.886C185.245 205.886 184.999 205.802 184.819 205.634C184.651 205.454 184.591 205.214 184.639 204.914C184.795 203.546 185.413 202.55 186.493 201.926C187.585 201.302 189.157 200.99 191.209 200.99H193.297C195.541 200.99 197.179 201.512 198.211 202.556C199.255 203.588 199.777 205.226 199.777 207.47V217.046C199.777 217.682 199.465 218 198.841 218C198.205 218 197.887 217.682 197.887 217.046V215.264C196.735 217.088 194.677 218 191.713 218H189.697ZM189.697 216.11H191.713C192.877 216.11 193.897 215.984 194.773 215.732C195.661 215.468 196.375 215.048 196.915 214.472C197.455 213.896 197.779 213.128 197.887 212.168V209.036H189.697C188.365 209.036 187.441 209.294 186.925 209.81C186.421 210.314 186.169 211.238 186.169 212.582C186.169 213.914 186.421 214.838 186.925 215.354C187.441 215.858 188.365 216.11 189.697 216.11ZM212.202 218C209.958 218 208.314 217.478 207.27 216.434C206.226 215.39 205.704 213.746 205.704 211.502V207.47C205.704 205.226 206.226 203.588 207.27 202.556C208.314 201.512 209.958 200.99 212.202 200.99H219.744V193.97C219.744 193.346 220.062 193.034 220.698 193.034C221.322 193.034 221.634 193.346 221.634 193.97V217.046C221.634 217.682 221.322 218 220.698 218C220.062 218 219.744 217.682 219.744 217.046V215.498C219.228 216.326 218.472 216.95 217.476 217.37C216.48 217.79 215.178 218 213.57 218H212.202ZM212.202 216.11H213.57C215.442 216.11 216.936 215.816 218.052 215.228C219.18 214.628 219.744 213.734 219.744 212.546V202.88H212.202C210.486 202.88 209.286 203.222 208.602 203.906C207.93 204.578 207.594 205.766 207.594 207.47V211.502C207.594 213.218 207.93 214.418 208.602 215.102C209.286 215.774 210.486 216.11 212.202 216.11ZM229.461 210.224V211.538C229.461 213.23 229.797 214.418 230.469 215.102C231.153 215.774 232.353 216.11 234.069 216.11H237.021C238.533 216.11 239.631 215.918 240.315 215.534C241.011 215.138 241.425 214.46 241.557 213.5C241.605 213.2 241.701 212.972 241.845 212.816C242.001 212.66 242.235 212.582 242.547 212.582C242.859 212.582 243.093 212.672 243.249 212.852C243.417 213.02 243.483 213.26 243.447 213.572C243.291 215.084 242.685 216.2 241.629 216.92C240.573 217.64 239.037 218 237.021 218H234.069C231.825 218 230.181 217.484 229.137 216.452C228.093 215.408 227.571 213.77 227.571 211.538V207.47C227.571 205.202 228.093 203.552 229.137 202.52C230.181 201.476 231.825 200.966 234.069 200.99H237.021C239.265 200.99 240.903 201.512 241.935 202.556C242.979 203.588 243.501 205.226 243.501 207.47V209.27C243.501 209.906 243.189 210.224 242.565 210.224H229.461ZM234.069 202.88C232.353 202.856 231.153 203.186 230.469 203.87C229.797 204.542 229.461 205.742 229.461 207.47V208.334H241.611V207.47C241.611 205.754 241.275 204.56 240.603 203.888C239.931 203.216 238.737 202.88 237.021 202.88H234.069ZM268.811 200.954C270.743 200.954 272.123 201.446 272.951 202.43C273.791 203.414 274.211 205.04 274.211 207.308V217.082C274.211 217.706 273.899 218.018 273.275 218.018C272.639 218.018 272.321 217.706 272.321 217.082V207.308C272.321 205.724 272.051 204.584 271.511 203.888C270.971 203.192 270.071 202.844 268.811 202.844H267.317C265.745 202.844 264.617 203.192 263.933 203.888C263.261 204.584 262.925 205.724 262.925 207.308V217.082C262.925 217.706 262.613 218.018 261.989 218.018C261.353 218.018 261.035 217.706 261.035 217.082V207.308C261.035 205.724 260.765 204.584 260.225 203.888C259.685 203.192 258.785 202.844 257.525 202.844H256.031C254.459 202.844 253.331 203.192 252.647 203.888C251.975 204.584 251.639 205.724 251.639 207.308V217.082C251.639 217.706 251.327 218.018 250.703 218.018C250.067 218.018 249.749 217.706 249.749 217.082V201.926C249.749 201.302 250.067 200.99 250.703 200.99C251.327 200.99 251.639 201.302 251.639 201.926V203.33C252.167 202.478 252.791 201.872 253.511 201.512C254.243 201.14 255.167 200.954 256.283 200.954H257.525C258.785 200.954 259.793 201.176 260.549 201.62C261.317 202.052 261.923 202.766 262.367 203.762C262.895 202.766 263.543 202.052 264.311 201.62C265.079 201.176 266.081 200.954 267.317 200.954H268.811ZM281.156 197.714C280.328 197.714 279.914 197.288 279.914 196.436V195.626C279.914 194.798 280.328 194.384 281.156 194.384H281.966C282.77 194.384 283.172 194.798 283.172 195.626V196.436C283.172 197.288 282.77 197.714 281.966 197.714H281.156ZM281.57 218C280.934 218 280.616 217.682 280.616 217.046V201.926C280.616 201.302 280.934 200.99 281.57 200.99C282.194 200.99 282.506 201.302 282.506 201.926V217.046C282.506 217.682 282.194 218 281.57 218ZM295.241 218C292.997 218 291.353 217.478 290.309 216.434C289.265 215.39 288.743 213.746 288.743 211.502V207.434C288.743 205.19 289.259 203.552 290.291 202.52C291.335 201.476 292.985 200.966 295.241 200.99H298.193C299.957 200.99 301.301 201.29 302.225 201.89C303.161 202.478 303.719 203.408 303.899 204.68C303.935 205.004 303.863 205.25 303.683 205.418C303.515 205.586 303.275 205.67 302.963 205.67C302.675 205.67 302.459 205.598 302.315 205.454C302.171 205.298 302.063 205.076 301.991 204.788C301.859 204.092 301.505 203.6 300.929 203.312C300.353 203.024 299.441 202.88 298.193 202.88H295.241C293.525 202.856 292.325 203.18 291.641 203.852C290.969 204.512 290.633 205.706 290.633 207.434V211.502C290.633 213.218 290.969 214.418 291.641 215.102C292.325 215.774 293.525 216.11 295.241 216.11H298.193C299.441 216.11 300.353 215.966 300.929 215.678C301.505 215.39 301.859 214.892 301.991 214.184C302.063 213.896 302.171 213.68 302.315 213.536C302.459 213.38 302.675 213.302 302.963 213.302C303.275 213.302 303.515 213.392 303.683 213.572C303.863 213.74 303.935 213.98 303.899 214.292C303.719 215.564 303.161 216.5 302.225 217.1C301.301 217.7 299.957 218 298.193 218H295.241ZM323.799 218C323.343 218 323.037 217.754 322.881 217.262L315.987 196.058C315.891 195.782 315.927 195.506 316.095 195.23C316.263 194.942 316.527 194.798 316.887 194.798C317.091 194.798 317.271 194.858 317.427 194.978C317.595 195.086 317.709 195.254 317.769 195.482L324.177 215.174H323.655L329.721 195.536C329.805 195.272 329.949 195.08 330.153 194.96C330.369 194.84 330.591 194.78 330.819 194.78C331.059 194.78 331.287 194.84 331.503 194.96C331.719 195.08 331.857 195.272 331.917 195.536L337.983 215.174H337.461L343.869 195.482C343.953 195.254 344.067 195.086 344.211 194.978C344.367 194.858 344.547 194.798 344.751 194.798C345.159 194.798 345.435 194.936 345.579 195.212C345.735 195.488 345.765 195.77 345.669 196.058L338.757 217.262C338.601 217.754 338.271 218 337.767 218H337.695C337.179 218 336.849 217.754 336.705 217.262L330.531 197.426H331.053L324.879 217.262C324.795 217.562 324.663 217.76 324.483 217.856C324.303 217.952 324.075 218 323.799 218ZM349.843 218C349.207 218 348.889 217.682 348.889 217.046V201.926C348.889 201.302 349.207 200.99 349.843 200.99C350.467 200.99 350.779 201.302 350.779 201.926V204.698C351.403 203.498 352.303 202.58 353.479 201.944C354.667 201.308 356.071 200.99 357.691 200.99C358.327 200.99 358.645 201.302 358.645 201.926C358.645 202.562 358.327 202.88 357.691 202.88C355.555 202.88 353.899 203.366 352.723 204.338C351.547 205.298 350.899 206.672 350.779 208.46V217.046C350.779 217.682 350.467 218 349.843 218ZM363 197.714C362.172 197.714 361.758 197.288 361.758 196.436V195.626C361.758 194.798 362.172 194.384 363 194.384H363.81C364.614 194.384 365.016 194.798 365.016 195.626V196.436C365.016 197.288 364.614 197.714 363.81 197.714H363ZM363.414 218C362.778 218 362.46 217.682 362.46 217.046V201.926C362.46 201.302 362.778 200.99 363.414 200.99C364.038 200.99 364.35 201.302 364.35 201.926V217.046C364.35 217.682 364.038 218 363.414 218ZM378.021 218C375.813 218 374.199 217.49 373.179 216.47C372.159 215.45 371.649 213.842 371.649 211.646V202.88H369.507C368.871 202.88 368.553 202.562 368.553 201.926C368.553 201.302 368.871 200.99 369.507 200.99H371.649V197.12C371.649 196.484 371.961 196.166 372.585 196.166C373.221 196.166 373.539 196.484 373.539 197.12V200.99H378.057C378.681 200.99 378.993 201.302 378.993 201.926C378.993 202.562 378.681 202.88 378.057 202.88H373.539V211.646C373.539 213.326 373.863 214.49 374.511 215.138C375.171 215.786 376.341 216.11 378.021 216.11C378.369 216.11 378.615 216.188 378.759 216.344C378.915 216.5 378.993 216.734 378.993 217.046C378.993 217.682 378.669 218 378.021 218ZM384.515 197.714C383.687 197.714 383.273 197.288 383.273 196.436V195.626C383.273 194.798 383.687 194.384 384.515 194.384H385.325C386.129 194.384 386.531 194.798 386.531 195.626V196.436C386.531 197.288 386.129 197.714 385.325 197.714H384.515ZM384.929 218C384.293 218 383.975 217.682 383.975 217.046V201.926C383.975 201.302 384.293 200.99 384.929 200.99C385.553 200.99 385.865 201.302 385.865 201.926V217.046C385.865 217.682 385.553 218 384.929 218ZM393.543 218C392.907 218 392.589 217.682 392.589 217.046V201.926C392.589 201.302 392.907 200.99 393.543 200.99C394.167 200.99 394.479 201.302 394.479 201.926V203.654C395.619 201.878 397.683 200.99 400.671 200.99H401.679C403.923 200.99 405.561 201.512 406.593 202.556C407.637 203.588 408.159 205.226 408.159 207.47V217.046C408.159 217.682 407.847 218 407.223 218C406.587 218 406.269 217.682 406.269 217.046V207.47C406.269 205.754 405.927 204.56 405.243 203.888C404.571 203.216 403.383 202.88 401.679 202.88H400.671C398.811 202.88 397.347 203.174 396.279 203.762C395.211 204.35 394.611 205.268 394.479 206.516V217.046C394.479 217.682 394.167 218 393.543 218ZM418.701 225.2C417.285 225.2 416.205 224.906 415.461 224.318C414.717 223.742 414.279 222.83 414.147 221.582C414.111 221.27 414.177 221.024 414.345 220.844C414.513 220.664 414.747 220.574 415.047 220.574C415.347 220.574 415.575 220.652 415.731 220.808C415.887 220.964 415.989 221.198 416.037 221.51C416.121 222.206 416.367 222.68 416.775 222.932C417.183 223.184 417.825 223.31 418.701 223.31H425.397C426.453 223.31 427.167 223.118 427.539 222.734C427.923 222.35 428.115 221.63 428.115 220.574V215.426C427.563 216.266 426.783 216.908 425.775 217.352C424.767 217.784 423.489 218 421.941 218H420.573C418.329 218 416.685 217.484 415.641 216.452C414.597 215.408 414.075 213.77 414.075 211.538V207.47C414.075 205.202 414.591 203.558 415.623 202.538C416.667 201.506 418.317 200.99 420.573 200.99H423.525C424.701 200.99 425.655 201.146 426.387 201.458C427.119 201.77 427.695 202.256 428.115 202.916V201.926C428.115 201.302 428.433 200.99 429.069 200.99C429.693 200.99 430.005 201.302 430.005 201.926V220.574C430.005 222.158 429.633 223.322 428.889 224.066C428.145 224.822 426.981 225.2 425.397 225.2H418.701ZM420.573 216.11H421.941C423.813 216.11 425.307 215.816 426.423 215.228C427.551 214.64 428.115 213.746 428.115 212.546V206.534C428.115 205.178 427.737 204.23 426.981 203.69C426.225 203.15 425.073 202.88 423.525 202.88H420.573C418.857 202.88 417.657 203.216 416.973 203.888C416.301 204.548 415.965 205.742 415.965 207.47V211.538C415.965 213.23 416.301 214.418 416.973 215.102C417.657 215.774 418.857 216.11 420.573 216.11Z"
              fill="white"/>
    </g>
    <defs>
        <filter id="filter0_d_15_269" x="57.3601" y="117.74" width="485.246" height="60.9299"
                filterUnits="userSpaceOnUse" color-interpolation-filters="sRGB">
            <feFlood flood-opacity="0" result="BackgroundImageFix"/>
            <feColorMatrix in="SourceAlpha" type="matrix" values="0 0 0 0 0 0 0 0 0 0 0 0 0 0 0 0 0 0 127 0"
                           result="hardAlpha"/>
            <feOffset dy="4"/>
            <feGaussianBlur stdDeviation="2"/>
            <feComposite in2="hardAlpha" operator="out"/>
            <feColorMatrix type="matrix" values="0 0 0 0 0 0 0 0 0 0 0 0 0 0 0 0 0 0 0.25 0"/>
            <feBlend mode="normal" in2="BackgroundImageFix" result="effect1_dropShadow_15_269"/>
            <feBlend mode="normal" in="SourceGraphic" in2="effect1_dropShadow_15_269" result="shape"/>
        </filter>
        <filter id="filter1_d_15_269" x="136.684" y="193.034" width="297.321" height="40.166"
                filterUnits="userSpaceOnUse" color-interpolation-filters="sRGB">
            <feFlood flood-opacity="0" result="BackgroundImageFix"/>
            <feColorMatrix in="SourceAlpha" type="matrix" values="0 0 0 0 0 0 0 0 0 0 0 0 0 0 0 0 0 0 127 0"
                           result="hardAlpha"/>
            <feOffset dy="4"/>
            <feGaussianBlur stdDeviation="2"/>
            <feComposite in2="hardAlpha" operator="out"/>
            <feColorMatrix type="matrix" values="0 0 0 0 0 0 0 0 0 0 0 0 0 0 0 0 0 0 0.25 0"/>
            <feBlend mode="normal" in2="BackgroundImageFix" result="effect1_dropShadow_15_269"/>
            <feBlend mode="normal" in="SourceGraphic" in2="effect1_dropShadow_15_269" result="shape"/>
        </filter>
    </defs>
</svg>
